<svg width="60" height="60" viewBox="0 0 60 60" fill="none" xmlns="http://www.w3.org/2000/svg">
<g clip-path="url(#clip0_643_1455)">
<path d="M55.8641 31.8036H55.1162C54.8742 31.8036 54.6403 31.8393 54.4196 31.9057C54.2272 30.7618 53.23 29.8877 52.0323 29.8877H51.2844C50.6991 29.8877 50.1615 30.0965 49.7425 30.4436C49.4394 30.1926 49.0745 30.0139 48.6743 29.9342V25.2676C48.6743 24.7821 48.2809 24.3887 47.7954 24.3887C47.3099 24.3887 46.9165 24.7821 46.9165 25.2676V29.9476C46.5408 30.0329 46.198 30.2057 45.9108 30.4436C45.4917 30.0965 44.9543 29.8877 44.3689 29.8877H43.621C42.2861 29.8877 41.2001 30.9738 41.2001 32.3086V35.0006L39.3966 36.804C38.7064 37.4943 38.3263 38.412 38.3263 39.3882V41.8419C38.3263 42.818 38.7064 43.7357 39.3966 44.426L43.9913 49.0206C44.233 49.2622 44.3661 49.5836 44.3661 49.9255V58.2428H34.9087V38.8664C34.9087 38.3801 35.1041 37.9217 35.4448 37.6087C37.5069 35.7132 38.6896 33.0208 38.6896 30.2215V21.3892C38.6896 19.8891 37.4692 18.6689 35.9692 18.6689H35.0761C34.7374 18.6689 34.4129 18.7311 34.1136 18.8448V11.8498C34.1136 11.2036 33.5879 10.6779 32.9417 10.6779H31.7164L40.515 1.87935L49.3136 10.6779H48.0884C47.4422 10.6779 46.9165 11.2036 46.9165 11.8498V21.1661C46.9165 21.6517 47.3099 22.0451 47.7954 22.0451C48.2809 22.0451 48.6743 21.6517 48.6743 21.1661V12.4357H50.021C50.6157 12.4357 51.1469 12.0807 51.3744 11.5312C51.6019 10.9819 51.4772 10.3554 51.0569 9.93502L41.551 0.429262C41.2743 0.152462 40.9065 0 40.515 0C40.1238 0 39.7558 0.152462 39.4791 0.429028L29.9733 9.9349C29.553 10.3554 29.4284 10.982 29.6559 11.5312C29.8833 12.0805 30.4147 12.4356 31.0093 12.4356H32.3559V16.5566C32.0565 16.443 31.7321 16.3807 31.3933 16.3807H30.5002C29.7905 16.3807 29.1436 16.6538 28.6587 17.1005C28.1739 16.6538 27.527 16.3807 26.8173 16.3807H25.9242C25.5854 16.3807 25.2611 16.443 24.9617 16.5566V12.4356H26.3083C26.9029 12.4356 27.434 12.0806 27.6617 11.5312C27.8891 10.9819 27.7646 10.3554 27.3442 9.9349L17.8383 0.429262C17.5617 0.152462 17.1938 0 16.8024 0C16.411 0 16.0431 0.152462 15.7666 0.429028L11.3837 4.81177C11.0405 5.15513 11.0405 5.71154 11.3837 6.05479C11.727 6.3978 12.2835 6.39803 12.6266 6.05479L16.8024 1.87912L25.601 10.6776H24.3757C23.7295 10.6776 23.2038 11.2034 23.2038 11.8495V16.5565C22.9044 16.4429 22.58 16.3806 22.2412 16.3806H21.3481C19.8481 16.3806 18.6278 17.601 18.6278 19.101V22.3865L16.424 24.5903C15.632 25.3824 15.1959 26.4354 15.1959 27.5556V30.4859C15.1959 31.6061 15.6321 32.6592 16.424 33.4513L21.911 38.9382C22.2319 39.2591 22.4087 39.6859 22.4087 40.1397V49.4105C22.4087 49.896 22.8021 50.2894 23.2876 50.2894C23.7731 50.2894 24.1665 49.896 24.1665 49.4105V40.1397C24.1665 39.2165 23.807 38.3483 23.154 37.6953L17.667 32.2082C17.2069 31.7483 16.9536 31.1366 16.9536 30.486V27.5557C16.9536 26.9051 17.2069 26.2935 17.667 25.8335L18.6277 24.8728V28.6997C18.6277 29.1852 19.0211 29.5786 19.5066 29.5786C19.9921 29.5786 20.3856 29.1852 20.3856 28.6997V19.1013C20.3856 18.5705 20.8174 18.1387 21.348 18.1387H22.2411C22.7719 18.1387 23.2037 18.5705 23.2037 19.1013V25.2677C23.2037 25.7533 23.5971 26.1467 24.0826 26.1467C24.5681 26.1467 24.9615 25.7533 24.9615 25.2677V19.1013C24.9615 18.5705 25.3934 18.1387 25.9241 18.1387H26.8172C27.3478 18.1387 27.7797 18.5705 27.7797 19.1013V25.2677C27.7797 25.7533 28.1731 26.1467 28.6586 26.1467C29.1441 26.1467 29.5375 25.7533 29.5375 25.2677V19.1013C29.5375 18.5705 29.9694 18.1387 30.5001 18.1387H31.3932C31.9239 18.1387 32.3558 18.5705 32.3558 19.1013V25.2677C32.3558 25.7533 32.7492 26.1467 33.2347 26.1467C33.7202 26.1467 34.1136 25.7533 34.1136 25.2677V21.3892C34.1136 20.8585 34.5455 20.4267 35.0761 20.4267H35.9692C36.4999 20.4267 36.9318 20.8585 36.9318 21.3892V30.2215C36.9318 32.5303 35.9562 34.751 34.2553 36.3143C33.5533 36.9593 33.1508 37.8894 33.1508 38.8664V58.2428H24.1666V53.5122C24.1666 53.0267 23.7732 52.6333 23.2877 52.6333C22.8022 52.6333 22.4088 53.0267 22.4088 53.5122V58.2428H16.7927V55.3669C16.7927 55.0053 16.9475 54.6546 17.2176 54.4046C18.9596 52.7922 19.9587 50.5067 19.9587 48.1343V40.7385C19.9587 39.4036 18.8726 38.3176 17.5379 38.3176H16.79C16.5481 38.3176 16.3141 38.3534 16.0935 38.4197C15.9011 37.2758 14.9038 36.4017 13.7062 36.4017H12.9583C12.3729 36.4017 11.8354 36.6106 11.4163 36.9577C11.1267 36.7178 10.7805 36.544 10.4011 36.4595V11.8496C10.4011 11.2035 9.87537 10.6778 9.22919 10.6778H8.00375L9.88369 8.79794C10.2269 8.45457 10.2269 7.89816 9.88369 7.55492C9.54033 7.21179 8.98392 7.21179 8.64067 7.55492L6.26057 9.93502C5.84021 10.3555 5.71564 10.9821 5.94311 11.5314C6.17057 12.0806 6.7019 12.4357 7.29652 12.4357H8.64313V36.4502C8.24668 36.5309 7.88504 36.7088 7.58445 36.9578C7.16538 36.6107 6.62796 36.4018 6.0426 36.4018H5.2947C3.9598 36.4018 2.87382 37.4879 2.87382 38.8227V41.5147L1.07028 43.3182C0.380043 44.0082 0 44.9259 0 45.9021V48.3558C0 49.332 0.380043 50.2497 1.07028 50.9399L5.6649 55.5345C5.90666 55.7762 6.03979 56.0976 6.03979 56.4396V58.5357C6.03979 59.3435 6.69686 60.0006 7.50464 60.0006H53.6541C54.4619 60.0006 55.119 59.3435 55.119 58.5357V48.853C55.119 48.4914 55.2738 48.1406 55.5439 47.8907C57.2859 46.2783 58.2851 43.9927 58.2851 41.6203V34.2245C58.2849 32.8896 57.199 31.8036 55.8641 31.8036ZM6.90792 54.2914L2.3133 49.6968C1.95506 49.3386 1.75783 48.8624 1.75783 48.3558V45.9021C1.75783 45.3955 1.95518 44.9191 2.3133 44.561L2.8737 44.0006V45.6149C2.8737 46.1004 3.2671 46.4938 3.75261 46.4938C4.23813 46.4938 4.63153 46.1004 4.63153 45.6149V38.8227C4.63153 38.4571 4.92895 38.1597 5.29458 38.1597H6.04248C6.40799 38.1597 6.70542 38.4571 6.70542 38.8227V43.9863C6.70542 44.4718 7.09882 44.8652 7.58433 44.8652C8.06985 44.8652 8.46325 44.4718 8.46325 43.9863V38.8227C8.46325 38.4571 8.76067 38.1597 9.1263 38.1597H9.8742C10.2397 38.1597 10.5371 38.4571 10.5371 38.8227V43.9863C10.5371 44.4718 10.9305 44.8652 11.416 44.8652C11.9016 44.8652 12.295 44.4718 12.295 43.9863V38.8227C12.295 38.4571 12.5924 38.1597 12.958 38.1597H13.7059C14.0715 38.1597 14.369 38.4571 14.369 38.8227V43.9863C14.369 44.4718 14.7624 44.8652 15.2479 44.8652C15.7334 44.8652 16.1268 44.4718 16.1268 43.9863V40.7385C16.1268 40.3729 16.4242 40.0755 16.7897 40.0755H17.5376C17.9033 40.0755 18.2007 40.3729 18.2007 40.7385V48.1343C18.2007 50.0185 17.4071 51.8337 16.0233 53.1146C15.3951 53.6963 15.0346 54.5172 15.0346 55.3669V58.2428H7.79762V56.4395C7.79762 55.628 7.48167 54.8653 6.90792 54.2914ZM56.5271 41.6203C56.5271 43.5045 55.7335 45.3198 54.3498 46.6007C53.7215 47.1821 53.361 48.0032 53.361 48.853V58.2428H46.1238V49.9254C46.1238 49.1139 45.8079 48.351 45.2341 47.7775L40.6395 43.1828C40.2813 42.8247 40.084 42.3485 40.084 41.8419V39.3882C40.084 38.8816 40.2814 38.4052 40.6395 38.0472L41.1999 37.4868V39.1008C41.1999 39.5863 41.5933 39.9797 42.0788 39.9797C42.5643 39.9797 42.9577 39.5863 42.9577 39.1008V32.3087C42.9577 31.943 43.2551 31.6456 43.6208 31.6456H44.3687C44.7342 31.6456 45.0316 31.943 45.0316 32.3087V37.4722C45.0316 37.9578 45.425 38.3512 45.9105 38.3512C46.396 38.3512 46.7894 37.9578 46.7894 37.4722V32.3087C46.7894 31.943 47.0869 31.6456 47.4525 31.6456H48.2004C48.5659 31.6456 48.8633 31.943 48.8633 32.3087V37.4722C48.8633 37.9578 49.2567 38.3512 49.7422 38.3512C50.2278 38.3512 50.6212 37.9578 50.6212 37.4722V32.3087C50.6212 31.943 50.9186 31.6456 51.2842 31.6456H52.0321C52.3976 31.6456 52.695 31.943 52.695 32.3087V37.4722C52.695 37.9578 53.0885 38.3512 53.574 38.3512C54.0595 38.3512 54.4529 37.9578 54.4529 37.4722V34.2245C54.4529 33.8588 54.7503 33.5614 55.1159 33.5614H55.8638C56.2295 33.5614 56.5269 33.8588 56.5269 34.2245V41.6203H56.5271Z" fill="#7DC6E9"/>
<path d="M30.5303 38.1596C31.0158 38.1596 31.4092 37.7662 31.4092 37.2806C31.4092 36.7951 31.0158 36.4017 30.5303 36.4017H26.8901C26.4046 36.4017 26.0112 36.7951 26.0112 37.2806C26.0112 37.7662 26.4046 38.1596 26.8901 38.1596H30.5303Z" fill="#7DC6E9"/>
</g>
<defs>
<clipPath id="clip0_643_1455">
<rect width="60" height="60" fill="white"/>
</clipPath>
</defs>
</svg>
