<svg width="70" height="70" viewBox="0 0 70 70" fill="none" xmlns="http://www.w3.org/2000/svg">
<path d="M8.30566 34.3291C8.30566 35.0373 8.87924 35.6108 9.5874 35.6108C10.2952 35.6108 10.8691 35.0373 10.8691 34.3291V32.4065C10.8691 31.6987 10.2952 31.1248 9.5874 31.1248C8.87924 31.1248 8.30566 31.6987 8.30566 32.4065V34.3291Z" fill="#7DC6E9"/>
<path d="M9.5874 21.5117C10.2952 21.5117 10.8691 20.9381 10.8691 20.23V18.3074C10.8691 17.5996 10.2952 17.0256 9.5874 17.0256C8.87924 17.0256 8.30566 17.5996 8.30566 18.3074V20.23C8.30566 20.9381 8.87924 21.5117 9.5874 21.5117Z" fill="#7DC6E9"/>
<path d="M8.30566 27.2795C8.30566 27.9877 8.87924 28.5613 9.5874 28.5613C10.2952 28.5613 10.8691 27.9877 10.8691 27.2795V25.3569C10.8691 24.6492 10.2952 24.0752 9.5874 24.0752C8.87924 24.0752 8.30566 24.6492 8.30566 25.3569V27.2795Z" fill="#7DC6E9"/>
<path d="M9.5874 40.7378H11.51C12.2178 40.7378 12.7917 40.1642 12.7917 39.4561C12.7917 38.7483 12.2178 38.1743 11.51 38.1743H9.5874C8.87924 38.1743 8.30566 38.7483 8.30566 39.4561C8.30566 40.1642 8.87924 40.7378 9.5874 40.7378Z" fill="#7DC6E9"/>
<path d="M42.3999 21.2554C43.1077 21.2554 43.6817 20.6818 43.6817 19.9736V18.051C43.6817 17.3433 43.1077 16.7693 42.3999 16.7693C41.6918 16.7693 41.1182 17.3433 41.1182 18.051V19.9736C41.1182 20.6818 41.6918 21.2554 42.3999 21.2554Z" fill="#7DC6E9"/>
<path d="M37.4011 19.2046C38.1089 19.2046 38.6829 18.631 38.6829 17.9229C38.6829 17.2151 38.1089 16.6411 37.4011 16.6411H35.4785C34.7704 16.6411 34.1968 17.2151 34.1968 17.9229C34.1968 18.631 34.7704 19.2046 35.4785 19.2046H37.4011Z" fill="#7DC6E9"/>
<path d="M16.2524 16.6411H14.3298C13.6217 16.6411 13.0481 17.2151 13.0481 17.9229C13.0481 18.631 13.6217 19.2046 14.3298 19.2046H16.2524C16.9602 19.2046 17.5342 18.631 17.5342 17.9229C17.5342 17.2151 16.9602 16.6411 16.2524 16.6411Z" fill="#7DC6E9"/>
<path d="M30.3516 19.2046C31.0593 19.2046 31.6333 18.631 31.6333 17.9229C31.6333 17.2151 31.0593 16.6411 30.3516 16.6411H28.429C27.7208 16.6411 27.1472 17.2151 27.1472 17.9229C27.1472 18.631 27.7208 19.2046 28.429 19.2046H30.3516Z" fill="#7DC6E9"/>
<path d="M41.1182 27.0232C41.1182 27.7314 41.6918 28.3049 42.3999 28.3049C43.1077 28.3049 43.6817 27.7314 43.6817 27.0232V25.1006C43.6817 24.3928 43.1077 23.8188 42.3999 23.8188C41.6918 23.8188 41.1182 24.3928 41.1182 25.1006V27.0232Z" fill="#7DC6E9"/>
<path d="M23.302 19.2046C24.0098 19.2046 24.5837 18.631 24.5837 17.9229C24.5837 17.2151 24.0098 16.6411 23.302 16.6411H21.3794C20.6712 16.6411 20.0977 17.2151 20.0977 17.9229C20.0977 18.631 20.6712 19.2046 21.3794 19.2046H23.302Z" fill="#7DC6E9"/>
<path d="M15.3552 39.4561C15.3552 40.1642 15.9288 40.7378 16.637 40.7378H18.5596C19.2673 40.7378 19.8413 40.1642 19.8413 39.4561C19.8413 38.7483 19.2673 38.1743 18.5596 38.1743H16.637C15.9288 38.1743 15.3552 38.7483 15.3552 39.4561Z" fill="#7DC6E9"/>
<path d="M43.7241 6.3551H25.9937C25.2855 6.3551 24.7119 6.92908 24.7119 7.63684C24.7119 8.345 25.2855 8.91858 25.9937 8.91858H43.7241C44.4323 8.91858 45.0058 8.345 45.0058 7.63684C45.0058 6.92908 44.4323 6.3551 43.7241 6.3551Z" fill="#7DC6E9"/>
<path d="M13.2824 6.35596C12.9456 6.35596 12.6151 6.49134 12.3768 6.73127C12.1377 6.96959 12.0007 7.29924 12.0007 7.6377C12.0007 7.97455 12.1377 8.3054 12.3768 8.54373C12.6151 8.78205 12.9456 8.91943 13.2824 8.91943C13.6197 8.91943 13.9501 8.78205 14.1884 8.54373C14.4268 8.3054 14.5641 7.97455 14.5641 7.6377C14.5641 7.29924 14.4276 6.96959 14.1884 6.73127C13.9501 6.49134 13.6209 6.35596 13.2824 6.35596Z" fill="#7DC6E9"/>
<path d="M8.00726 6.35596C7.66961 6.35596 7.33916 6.49134 7.10083 6.73127C6.86131 6.96959 6.72552 7.30044 6.72552 7.6377C6.72552 7.97455 6.86131 8.3054 7.10083 8.54373C7.33916 8.78205 7.6688 8.91943 8.00726 8.91943C8.34412 8.91943 8.67377 8.78205 8.91289 8.54373C9.15122 8.3054 9.289 7.97455 9.289 7.6377C9.289 7.30044 9.15162 6.96959 8.91289 6.73127C8.67377 6.49134 8.34412 6.35596 8.00726 6.35596Z" fill="#7DC6E9"/>
<path d="M18.5596 6.35596C18.2227 6.35596 17.8915 6.49294 17.6531 6.73127C17.4148 6.96959 17.2778 7.29924 17.2778 7.6377C17.2778 7.97455 17.4148 8.3054 17.6531 8.54373C17.8915 8.78205 18.2227 8.91943 18.5596 8.91943C18.8964 8.91943 19.2273 8.78205 19.4656 8.54373C19.7039 8.3054 19.8413 7.97455 19.8413 7.6377C19.8413 7.29924 19.7039 6.96959 19.4656 6.73127C19.2273 6.49294 18.8964 6.35596 18.5596 6.35596Z" fill="#7DC6E9"/>
<path d="M3.43506 40.7385C3.77192 40.7385 4.10276 40.6011 4.34109 40.3628C4.57941 40.1245 4.7168 39.7936 4.7168 39.4568C4.7168 39.1195 4.57941 38.7887 4.34109 38.5504C4.10276 38.312 3.77192 38.175 3.43506 38.175C3.0982 38.175 2.76695 38.312 2.52863 38.5504C2.29031 38.7887 2.15332 39.1195 2.15332 39.4568C2.15332 39.7936 2.29031 40.1245 2.52863 40.3628C2.76695 40.6011 3.0982 40.7385 3.43506 40.7385Z" fill="#7DC6E9"/>
<path d="M67.4026 60.6769L60.7957 54.0699L65.3479 52.102C65.8485 51.8857 66.1578 51.3758 66.1177 50.8323C66.0776 50.288 65.6979 49.8289 65.1708 49.6876L60.857 48.5316V33.0001C60.857 32.292 60.283 31.7184 59.5752 31.7184H49.834V6.06677C49.834 3.9467 48.1093 2.22156 45.9888 2.22156H5.99854C3.87806 2.22156 2.15332 3.9467 2.15332 6.06677V34.265C2.15332 34.9732 2.7269 35.5468 3.43506 35.5468C4.14282 35.5468 4.7168 34.9732 4.7168 34.265V13.0523H47.2705V31.7184H26.7627C26.0545 31.7184 25.481 32.292 25.481 33.0001V38.1743H23.6865C22.9784 38.1743 22.4048 38.7483 22.4048 39.4561C22.4048 40.1642 22.9784 40.7378 23.6865 40.7378H25.481V47.2747H5.99854C5.29158 47.2747 4.7168 46.6999 4.7168 45.9929V44.5189C4.7168 43.8112 4.14282 43.2372 3.43506 43.2372C2.7269 43.2372 2.15332 43.8112 2.15332 44.5189V45.9929C2.15332 48.1134 3.87806 49.8382 5.99854 49.8382H25.481V54.5329C25.481 55.2407 26.0545 55.8147 26.7627 55.8147H47.0959L49.6205 65.2374C49.7619 65.7642 50.2209 66.1443 50.7653 66.1839C51.3088 66.2244 51.8187 65.9152 52.0354 65.4145L54.0037 60.8623L60.6106 67.4693C60.851 67.7096 61.177 67.8446 61.5167 67.8446C61.8567 67.8446 62.1828 67.7096 62.4231 67.4693L67.4026 62.4897C67.9033 61.989 67.9033 61.1775 67.4026 60.6769ZM4.7168 10.4888V6.06677C4.7168 5.35982 5.29158 4.78504 5.99854 4.78504H45.9888C46.6958 4.78504 47.2705 5.35982 47.2705 6.06677V10.4888H4.7168ZM28.0444 53.2512V34.2819H58.2935V47.8447L46.0733 44.5702C45.6307 44.4517 45.1593 44.5782 44.8352 44.9023C44.5116 45.2255 44.385 45.6977 44.5036 46.1403L46.409 53.2512H28.0444ZM61.5167 64.7504L54.4819 57.7152C54.2388 57.4729 53.9123 57.3399 53.5755 57.3399C53.4958 57.3399 53.4153 57.3475 53.3352 57.3628C52.9182 57.4425 52.5677 57.7233 52.3991 58.113L51.1438 61.0169L47.5545 47.6212L60.9499 51.2108L58.0467 52.4657C57.657 52.634 57.3762 52.9844 57.2965 53.4014C57.2168 53.8188 57.3486 54.2481 57.649 54.5485L64.6842 61.5837L61.5167 64.7504Z" fill="#7DC6E9"/>
</svg>
