<svg width="70" height="70" viewBox="0 0 70 70" fill="none" xmlns="http://www.w3.org/2000/svg">
<g clip-path="url(#clip0_612_1328)">
<path d="M67.6074 52.3014H67.2565L67.2738 15.7446C67.2748 14.9233 66.9556 14.1508 66.3748 13.5694C65.7937 12.9876 65.021 12.6672 64.1997 12.6672L59.7304 12.6643C59.7301 12.6643 59.73 12.6643 59.7297 12.6643C59.1637 12.6643 58.7046 13.1229 58.7043 13.689C58.704 14.2554 59.1627 14.7147 59.729 14.7151L64.199 14.7179C64.4727 14.7179 64.7302 14.8247 64.9238 15.0186C65.1171 15.2121 65.2233 15.4691 65.223 15.7428L65.2057 52.3012H62.5256V31.749C62.5256 29.6654 60.831 27.9701 58.748 27.9701H51.2226V14.7115L54.9438 14.7138H54.9444C55.5104 14.7138 55.9695 14.2552 55.9698 13.6891C55.9701 13.1227 55.5114 12.6635 54.9449 12.6631L51.2225 12.6607V6.58277C51.2225 4.8783 49.8358 3.4917 48.1314 3.4917H3.09135C1.38688 3.4917 0 4.87857 0 6.58305V41.5394C0 43.1214 1.19465 44.4288 2.72904 44.6089L2.72535 52.3019H2.39258C1.75369 52.3019 1.15281 52.5509 0.703008 53.0008C0.249648 53.4516 0 54.053 0 54.6945C0 57.5216 2.29988 59.8215 5.12695 59.8215H8.85801C9.4243 59.8215 9.8834 59.3625 9.8834 58.7961C9.8834 58.2296 9.4243 57.7707 8.85801 57.7707H5.12695C3.43068 57.7707 2.05078 56.3906 2.05078 54.6945C2.05078 54.5712 2.1123 54.4916 2.15113 54.4529C2.18846 54.4155 2.26967 54.3527 2.39258 54.3527H37.8615V57.7707H13.6432C13.0769 57.7707 12.6178 58.2296 12.6178 58.7961C12.6178 59.3625 13.0769 59.8215 13.6432 59.8215H37.8615V62.7296C37.8615 64.8132 39.5567 66.5085 41.6404 66.5085H58.748C60.831 66.5085 62.5256 64.8133 62.5256 62.7296V59.8211H64.873C67.7001 59.8211 70 57.5212 70 54.6941C70 53.3746 68.9266 52.3014 67.6074 52.3014ZM2.05078 41.5394V6.58305C2.05078 6.00924 2.51768 5.54248 3.09135 5.54248H48.1316C48.7052 5.54248 49.1719 6.0091 49.1719 6.58277V27.9701H47.2582V8.48221C47.2582 7.91578 46.7991 7.45682 46.2328 7.45682H15.2961C14.7298 7.45682 14.2707 7.91578 14.2707 8.48221C14.2707 9.04863 14.7298 9.5076 15.2961 9.5076H45.2074V27.9701H41.6404C39.5567 27.9701 37.8615 29.6653 37.8615 31.749V38.6152H6.01562V9.50773H10.5109C11.0772 9.50773 11.5363 9.04877 11.5363 8.48234C11.5363 7.91592 11.0772 7.45695 10.5109 7.45695H4.99023C4.42395 7.45695 3.96484 7.91592 3.96484 8.48234V39.6405C3.96484 40.207 4.42395 40.6659 4.99023 40.6659H37.8615V42.5801H3.09135C2.51768 42.58 2.05078 42.1132 2.05078 41.5394ZM60.4748 62.7295C60.4748 63.6824 59.7002 64.4576 58.748 64.4576H41.6404C40.6875 64.4576 39.9123 63.6824 39.9123 62.7295V51.3668C39.9123 50.8004 39.4532 50.3414 38.8869 50.3414C38.3206 50.3414 37.8615 50.8004 37.8615 51.3668V52.3019H4.77627L4.77982 44.6309H37.8615V46.5818C37.8615 47.1482 38.3206 47.6071 38.8869 47.6071C39.4532 47.6071 39.9123 47.1482 39.9123 46.5818V31.7491C39.9123 30.7962 40.6875 30.021 41.6404 30.021H58.748C59.7002 30.021 60.4748 30.7962 60.4748 31.7491V62.7295ZM64.873 57.7701H62.5256V54.3522H67.6074C67.7958 54.3522 67.9492 54.5054 67.9492 54.694C67.9492 56.3901 66.5693 57.7701 64.873 57.7701Z" fill="#7DC6E9"/>
<path d="M25.6114 33.9792C31.2309 33.9792 35.8027 29.4074 35.8027 23.7879C35.8027 18.1682 31.2309 13.5964 25.6114 13.5964C19.9918 13.5964 15.4201 18.1682 15.4201 23.7879C15.42 29.4074 19.9918 33.9792 25.6114 33.9792ZM25.6114 15.6472C30.1001 15.6472 33.7519 19.2991 33.7519 23.7879C33.7519 28.2766 30.1001 31.9284 25.6114 31.9284C21.1226 31.9284 17.4709 28.2766 17.4709 23.7879C17.4709 19.2991 21.1226 15.6472 25.6114 15.6472Z" fill="#7DC6E9"/>
<path d="M24.2055 27.6945C24.4005 27.914 24.6797 28.0391 24.9721 28.0391C24.983 28.0391 24.9941 28.0389 25.0051 28.0385C25.3095 28.0288 25.5938 27.8842 25.7809 27.6438L30.4857 21.6059C30.8338 21.1592 30.7538 20.515 30.3071 20.1669C29.8604 19.8187 29.216 19.8986 28.868 20.3456L24.9206 25.4116L22.859 23.0903C22.483 22.6668 21.8348 22.6284 21.4114 23.0045C20.988 23.3805 20.9496 24.0286 21.3255 24.4521L24.2055 27.6945Z" fill="#7DC6E9"/>
<path d="M48.3582 33.5903H52.0294C52.5957 33.5903 53.0548 33.1314 53.0548 32.5649C53.0548 31.9985 52.5957 31.5396 52.0294 31.5396H48.3582C47.7919 31.5396 47.3328 31.9985 47.3328 32.5649C47.3328 33.1314 47.7919 33.5903 48.3582 33.5903Z" fill="#7DC6E9"/>
<path d="M50.1938 39.0703C45.6893 39.0703 42.0247 42.7349 42.0247 47.2394C42.0247 51.7439 45.6893 55.4085 50.1938 55.4085C54.6983 55.4085 58.3629 51.7439 58.3629 47.2394C58.3629 42.7349 54.6983 39.0703 50.1938 39.0703ZM50.1938 53.3576C46.8201 53.3576 44.0755 50.6129 44.0755 47.2393C44.0755 43.8656 46.8201 41.121 50.1938 41.121C53.5675 41.121 56.3121 43.8656 56.3121 47.2393C56.3121 50.6129 53.5675 53.3576 50.1938 53.3576Z" fill="#7DC6E9"/>
<path d="M53.7789 44.4089C53.3321 44.0605 52.688 44.1407 52.3398 44.5875L49.6956 47.9808L48.4318 46.5577C48.0558 46.1342 47.4076 46.0959 46.9842 46.472C46.5608 46.848 46.5224 47.496 46.8984 47.9196L48.9803 50.2639C49.1753 50.4833 49.4545 50.6084 49.7469 50.6084C49.7578 50.6084 49.7689 50.6083 49.7798 50.6079C50.0843 50.5982 50.3686 50.4535 50.5557 50.2133L53.9573 45.848C54.3056 45.4013 54.2257 44.757 53.7789 44.4089Z" fill="#7DC6E9"/>
</g>
<defs>
<clipPath id="clip0_612_1328">
<rect width="70" height="70" fill="white"/>
</clipPath>
</defs>
</svg>
