<svg width="70" height="70" viewBox="0 0 70 70" fill="none" xmlns="http://www.w3.org/2000/svg">
<path d="M61.25 54.1406H53.5938C52.688 54.1406 51.9531 53.4058 51.9531 52.5C51.9531 51.5942 52.688 50.8594 53.5938 50.8594H61.25C62.1547 50.8594 62.8906 50.1234 62.8906 49.2188V8.75C62.8906 7.8453 62.1547 7.10938 61.25 7.10938H8.75C7.8453 7.10938 7.10938 7.8453 7.10938 8.75V49.2188C7.10938 50.1234 7.8453 50.8594 8.75 50.8594H22.9688C23.8745 50.8594 24.6094 51.5942 24.6094 52.5C24.6094 53.4058 23.8745 54.1406 22.9688 54.1406H8.75C6.03591 54.1406 3.82812 51.9328 3.82812 49.2188V8.75C3.82812 6.03591 6.03591 3.82812 8.75 3.82812H61.25C63.9641 3.82812 66.1719 6.03591 66.1719 8.75V49.2188C66.1719 51.9328 63.9641 54.1406 61.25 54.1406Z" fill="#7DC6E9"/>
<path d="M64.5312 20.2344H43.75C42.8442 20.2344 42.1094 19.4995 42.1094 18.5938C42.1094 17.688 42.8442 16.9531 43.75 16.9531H64.5312C65.437 16.9531 66.1719 17.688 66.1719 18.5938C66.1719 19.4995 65.437 20.2344 64.5312 20.2344Z" fill="#7DC6E9"/>
<path d="M26.25 20.2344H5.46875C4.56299 20.2344 3.82812 19.4995 3.82812 18.5938C3.82812 17.688 4.56299 16.9531 5.46875 16.9531H26.25C27.1558 16.9531 27.8906 17.688 27.8906 18.5938C27.8906 19.4995 27.1558 20.2344 26.25 20.2344Z" fill="#7DC6E9"/>
<path d="M57.9687 13.6719H25.1552C24.2494 13.6719 23.5145 12.937 23.5145 12.0312C23.5145 11.1255 24.2494 10.3906 25.1552 10.3906H57.9687C58.8745 10.3906 59.6093 11.1255 59.6093 12.0312C59.6093 12.937 58.8745 13.6719 57.9687 13.6719Z" fill="#7DC6E9"/>
<path d="M13.125 13.6719H12.0312C11.1255 13.6719 10.3906 12.937 10.3906 12.0312C10.3906 11.1255 11.1255 10.3906 12.0312 10.3906H13.125C14.0308 10.3906 14.7656 11.1255 14.7656 12.0312C14.7656 12.937 14.0308 13.6719 13.125 13.6719Z" fill="#7DC6E9"/>
<path d="M19.6875 13.6719H18.5938C17.688 13.6719 16.9531 12.937 16.9531 12.0312C16.9531 11.1255 17.688 10.3906 18.5938 10.3906H19.6875C20.5933 10.3906 21.3281 11.1255 21.3281 12.0312C21.3281 12.937 20.5933 13.6719 19.6875 13.6719Z" fill="#7DC6E9"/>
<path d="M27.0372 37.9202C26.3493 37.9202 25.7095 37.4855 25.481 36.7976L22.879 28.9844H17.5C16.5942 28.9844 15.8594 28.2495 15.8594 27.3438C15.8594 26.438 16.5942 25.7031 17.5 25.7031H24.0625C24.7685 25.7031 25.3955 26.1549 25.6187 26.8257L28.5934 35.7616C28.8797 36.6214 28.4151 37.5496 27.5552 37.8358C27.3833 37.8935 27.2092 37.9202 27.0372 37.9202Z" fill="#7DC6E9"/>
<path d="M14.2188 32.2656C11.5047 32.2656 9.29688 30.0578 9.29688 27.3438C9.29688 24.6297 11.5047 22.4219 14.2188 22.4219C16.9328 22.4219 19.1406 24.6297 19.1406 27.3438C19.1406 30.0578 16.9328 32.2656 14.2188 32.2656ZM14.2188 25.7031C13.3141 25.7031 12.5781 26.4391 12.5781 27.3438C12.5781 28.2484 13.3141 28.9844 14.2188 28.9844C15.1234 28.9844 15.8594 28.2484 15.8594 27.3438C15.8594 26.4391 15.1234 25.7031 14.2188 25.7031Z" fill="#7DC6E9"/>
<path d="M35 26.7969C32.2859 26.7969 30.0781 24.5891 30.0781 21.875C30.0781 19.1609 32.2859 16.9531 35 16.9531C37.7141 16.9531 39.9219 19.1609 39.9219 21.875C39.9219 24.5891 37.7141 26.7969 35 26.7969ZM35 20.2344C34.0953 20.2344 33.3594 20.9703 33.3594 21.875C33.3594 22.7797 34.0953 23.5156 35 23.5156C35.9047 23.5156 36.6406 22.7797 36.6406 21.875C36.6406 20.9703 35.9047 20.2344 35 20.2344Z" fill="#7DC6E9"/>
<path d="M14.2188 46.4844C11.5047 46.4844 9.29688 44.2766 9.29688 41.5625C9.29688 38.8484 11.5047 36.6406 14.2188 36.6406C16.9328 36.6406 19.1406 38.8484 19.1406 41.5625C19.1406 44.2766 16.9328 46.4844 14.2188 46.4844ZM14.2188 39.9219C13.3141 39.9219 12.5781 40.6578 12.5781 41.5625C12.5781 42.4672 13.3141 43.2031 14.2188 43.2031C15.1234 43.2031 15.8594 42.4672 15.8594 41.5625C15.8594 40.6578 15.1234 39.9219 14.2188 39.9219Z" fill="#7DC6E9"/>
<path d="M22.9688 43.2031H17.5C16.5942 43.2031 15.8594 42.4683 15.8594 41.5625C15.8594 40.6567 16.5942 39.9219 17.5 39.9219H22.9688C23.8745 39.9219 24.6094 40.6567 24.6094 41.5625C24.6094 42.4683 23.8745 43.2031 22.9688 43.2031Z" fill="#7DC6E9"/>
<path d="M43.0172 37.7344C42.8453 37.7344 42.6701 37.7077 42.4981 37.65C41.6383 37.3627 41.1737 36.4334 41.461 35.5746L44.3812 26.8246C44.6045 26.1549 45.2314 25.7031 45.9375 25.7031H52.5C53.4057 25.7031 54.1406 26.438 54.1406 27.3438C54.1406 28.2495 53.4057 28.9844 52.5 28.9844H47.1199L44.5735 36.6129C44.3438 37.3007 43.704 37.7344 43.0172 37.7344Z" fill="#7DC6E9"/>
<path d="M55.7812 32.2656C53.0672 32.2656 50.8594 30.0578 50.8594 27.3438C50.8594 24.6297 53.0672 22.4219 55.7812 22.4219C58.4953 22.4219 60.7031 24.6297 60.7031 27.3438C60.7031 30.0578 58.4953 32.2656 55.7812 32.2656ZM55.7812 25.7031C54.8766 25.7031 54.1406 26.4391 54.1406 27.3438C54.1406 28.2484 54.8766 28.9844 55.7812 28.9844C56.6859 28.9844 57.4219 28.2484 57.4219 27.3438C57.4219 26.4391 56.6859 25.7031 55.7812 25.7031Z" fill="#7DC6E9"/>
<path d="M55.7812 46.4844C53.0672 46.4844 50.8594 44.2766 50.8594 41.5625C50.8594 38.8484 53.0672 36.6406 55.7812 36.6406C58.4953 36.6406 60.7031 38.8484 60.7031 41.5625C60.7031 44.2766 58.4953 46.4844 55.7812 46.4844ZM55.7812 39.9219C54.8766 39.9219 54.1406 40.6578 54.1406 41.5625C54.1406 42.4672 54.8766 43.2031 55.7812 43.2031C56.6859 43.2031 57.4219 42.4672 57.4219 41.5625C57.4219 40.6578 56.6859 39.9219 55.7812 39.9219Z" fill="#7DC6E9"/>
<path d="M52.5 43.2031H47.0312C46.1255 43.2031 45.3906 42.4683 45.3906 41.5625C45.3906 40.6567 46.1255 39.9219 47.0312 39.9219H52.5C53.4058 39.9219 54.1406 40.6567 54.1406 41.5625C54.1406 42.4683 53.4058 43.2031 52.5 43.2031Z" fill="#7DC6E9"/>
<path d="M35 35.5469C34.0942 35.5469 33.3594 34.812 33.3594 33.9062V25.1562C33.3594 24.2505 34.0942 23.5156 35 23.5156C35.9058 23.5156 36.6406 24.2505 36.6406 25.1562V33.9062C36.6406 34.812 35.9058 35.5469 35 35.5469Z" fill="#7DC6E9"/>
<path d="M35 66.1719C34.7298 66.1719 34.4595 66.1046 34.2149 65.9711L25.6038 61.2746C22.9666 59.8358 21.3281 57.0769 21.3281 54.0734V37.4941C21.3281 36.7688 21.8045 36.129 22.4998 35.9218L34.5311 32.334C34.8248 32.2464 35.1378 32.2422 35.4315 32.3233L47.4628 35.6035C48.1763 35.7979 48.6719 36.4462 48.6719 37.1865V54.0734C48.6719 57.0769 47.0334 59.8358 44.3973 61.2746L35.7851 65.9711C35.5405 66.1046 35.2702 66.1719 35 66.1719ZM24.6094 38.7171V54.0734C24.6094 55.8753 25.592 57.5308 27.175 58.3949L35 62.6621L42.8261 58.3949C44.408 57.5308 45.3906 55.8753 45.3906 54.0734V38.4393L35.0203 35.612L24.6094 38.7171Z" fill="#7DC6E9"/>
<path d="M33.9062 53.0479C33.5612 53.0479 33.2151 52.9401 32.9214 52.72L28.5464 49.4388C27.8222 48.8951 27.6748 47.8665 28.2185 47.1413C28.7632 46.4181 29.7908 46.2707 30.516 46.8133L33.7524 49.2412L39.3087 43.6838C39.9496 43.0429 40.9878 43.0429 41.6287 43.6838C42.2695 44.3247 42.2695 45.3629 41.6287 46.0037L35.0662 52.5673C34.7479 52.8856 34.3281 53.0479 33.9062 53.0479Z" fill="#7DC6E9"/>
</svg>
