<svg width="35" height="35" viewBox="0 0 35 35" fill="none" xmlns="http://www.w3.org/2000/svg">
<path d="M30.625 19.0859V17.9922C30.9269 17.9922 31.1719 17.7474 31.1719 17.4453V14.1641C31.1719 13.862 30.9269 13.6172 30.625 13.6172H27.6719L27.5659 13.2064C27.3241 12.2669 26.9486 11.3669 26.4502 10.5344L26.2314 10.1685L28.3281 8.06812C28.5392 7.85663 28.5392 7.51398 28.3281 7.30249L26.0056 4.97656C25.7911 4.77213 25.4543 4.77213 25.2398 4.97656L23.1392 7.07712L22.7735 6.85837C21.9397 6.35977 21.0389 5.98422 20.0981 5.74219L19.6875 5.63538V2.67969C19.6875 2.37762 19.4427 2.13281 19.1406 2.13281H15.8594C15.5573 2.13281 15.3125 2.37762 15.3125 2.67969V5.63281L14.9017 5.73898C13.9622 5.98059 13.0622 6.35614 12.2293 6.85388L11.8633 7.07285L9.76343 4.97656C9.54874 4.77042 9.20972 4.77042 8.99503 4.97656L6.67188 7.29907C6.56976 7.40097 6.5123 7.5394 6.5123 7.68359C6.5123 7.828 6.56976 7.96622 6.67188 8.06812L8.77243 10.1685L8.55368 10.5344C8.05551 11.3669 7.67975 12.2669 7.43814 13.2064L7.3309 13.6172H4.375C4.07294 13.6172 3.82813 13.862 3.82813 14.1641V17.4453C3.82813 17.7474 4.07294 17.9922 4.375 17.9922V19.0859C3.46902 19.0859 2.73438 18.3513 2.73438 17.4453V14.1641C2.73438 13.2581 3.46902 12.5234 4.375 12.5234H6.49094C6.71652 11.7672 7.02158 11.037 7.40097 10.3453L5.89706 8.84143C5.58945 8.53446 5.41663 8.11789 5.41663 7.68359C5.41663 7.2493 5.58945 6.83273 5.89706 6.52597L8.22128 4.20175C8.86878 3.58203 9.88968 3.58203 10.5372 4.20175L12.0407 5.70502C12.7324 5.32584 13.4627 5.02142 14.2188 4.79605V2.67969C14.2188 1.77371 14.9534 1.03906 15.8594 1.03906H19.1406C20.0466 1.03906 20.7813 1.77371 20.7813 2.67969V4.79605C21.5375 5.02142 22.2674 5.32648 22.9594 5.70566L24.4633 4.20175C25.111 3.58203 26.1317 3.58203 26.7794 4.20175L29.1032 6.52533C29.4106 6.83231 29.5832 7.24844 29.5832 7.68295C29.5832 8.11746 29.4106 8.53403 29.1032 8.84079L27.5992 10.3447C27.9784 11.0368 28.2833 11.7672 28.5091 12.5234H30.625C31.531 12.5234 32.2656 13.2581 32.2656 14.1641V17.4453C32.2656 18.3513 31.531 19.0859 30.625 19.0859Z" fill="#057CB5"/>
<path d="M25.1563 15.8047H24.0625C24.0625 12.1804 21.1243 9.24219 17.5 9.24219C13.8757 9.24219 10.9375 12.1804 10.9375 15.8047H9.84375C9.84375 11.5762 13.2715 8.14844 17.5 8.14844C21.7282 8.14844 25.1563 11.5762 25.1563 15.8047Z" fill="#057CB5"/>
<path d="M17.5 20.1797C15.6878 20.1797 14.2188 18.7104 14.2188 16.8984C14.2188 15.0863 15.6878 13.6172 17.5 13.6172C19.3124 13.6172 20.7813 15.0863 20.7813 16.8984C20.7793 18.71 19.3115 20.1778 17.5 20.1797ZM17.5 14.7109C16.292 14.7109 15.3125 15.6904 15.3125 16.8984C15.3125 18.1065 16.292 19.0859 17.5 19.0859C18.708 19.0859 19.6875 18.1065 19.6875 16.8984C19.6875 15.6904 18.708 14.7109 17.5 14.7109Z" fill="#057CB5"/>
<path d="M26.7969 22.3672C24.9847 22.3672 23.5156 20.8979 23.5156 19.0859C23.5156 17.2738 24.9847 15.8047 26.7969 15.8047C28.609 15.8047 30.0781 17.2738 30.0781 19.0859C30.0762 20.8975 28.6084 22.3653 26.7969 22.3672ZM26.7969 16.8984C25.5888 16.8984 24.6094 17.8779 24.6094 19.0859C24.6094 20.294 25.5888 21.2734 26.7969 21.2734C28.0049 21.2734 28.9844 20.294 28.9844 19.0859C28.9844 17.8779 28.0049 16.8984 26.7969 16.8984Z" fill="#057CB5"/>
<path d="M8.20313 22.3672C6.39096 22.3672 4.92188 20.8979 4.92188 19.0859C4.92188 17.2738 6.39096 15.8047 8.20313 15.8047C10.0155 15.8047 11.4844 17.2738 11.4844 19.0859C11.4825 20.8975 10.0146 22.3653 8.20313 22.3672ZM8.20313 16.8984C6.99509 16.8984 6.01563 17.8779 6.01563 19.0859C6.01563 20.294 6.99509 21.2734 8.20313 21.2734C9.41116 21.2734 10.3906 20.294 10.3906 19.0859C10.3906 17.8779 9.41116 16.8984 8.20313 16.8984Z" fill="#057CB5"/>
<path d="M31.7546 23.7703C30.9397 23.2102 29.9735 22.9113 28.9844 22.9141H24.6094C24.3434 22.9164 24.0779 22.9406 23.8158 22.9861C23.4659 22.4388 23.0106 21.9667 22.4766 21.5965C22.3965 21.536 22.3123 21.4811 22.2245 21.4326C21.4595 20.9693 20.5817 20.7253 19.6875 20.7266H15.3125C13.64 20.7206 12.0817 21.574 11.1857 22.9861C10.923 22.9406 10.657 22.9164 10.3906 22.9141H6.01563C5.02741 22.9113 4.0614 23.2097 3.24686 23.7692C1.9006 24.6852 1.0946 26.2077 1.09375 27.836V30.0235C1.09567 31.5167 1.96448 32.8728 3.32077 33.4983C3.8215 33.7341 4.36859 33.8548 4.92188 33.8516H10.3906V32.7578H5.46875V26.7422H4.375V32.7029C4.16907 32.6617 3.96912 32.5951 3.77942 32.5051C2.81064 32.0584 2.18964 31.0901 2.1875 30.0235V27.836C2.18878 26.5688 2.81662 25.3842 3.86423 24.6716C4.49719 24.2371 5.24765 24.0057 6.01563 24.0078H10.3906C10.487 24.0078 10.5799 24.0181 10.6739 24.0245C10.4889 24.5462 10.393 25.0952 10.3906 25.6485V31.1172C10.3925 32.6267 11.6158 33.8497 13.125 33.8516H14.7656V25.1016H13.6719V32.7578H13.125C12.219 32.7578 11.4844 32.0232 11.4844 31.1172V25.6485C11.4844 23.534 13.1985 21.8203 15.3125 21.8203H19.6875C20.3912 21.8208 21.0808 22.0156 21.6808 22.383C21.7364 22.4134 21.7898 22.4475 21.8404 22.4851C22.3529 22.8361 22.7735 23.305 23.0666 23.8523C23.3612 24.4052 23.5156 25.0219 23.5156 25.6485V31.1172C23.5156 32.0232 22.781 32.7578 21.875 32.7578H21.3281V25.1016H20.2344V33.8516H21.875C23.3845 33.8497 24.6075 32.6267 24.6094 31.1172V25.6485C24.6068 25.0952 24.5113 24.5464 24.3265 24.0245C24.4207 24.0181 24.5137 24.0078 24.6094 24.0078H28.9844C29.7528 24.0057 30.5039 24.2377 31.1373 24.6726C32.184 25.3857 32.811 26.5694 32.8125 27.836V30.0235C32.8106 31.0939 32.1849 32.0651 31.2114 32.5094C31.0245 32.5978 30.8275 32.6628 30.625 32.7029V26.7422H29.5313V32.7578H24.6094V33.8516H30.0781C30.6282 33.855 31.1721 33.7358 31.67 33.5025C33.0308 32.879 33.9041 31.5203 33.9063 30.0235V27.836C33.9054 26.2084 33.1 24.6865 31.7546 23.7703Z" fill="#057CB5"/>
<path d="M15.3125 32.7578H19.6875V33.8516H15.3125V32.7578Z" fill="#057CB5"/>
</svg>
