<svg width="60" height="60" viewBox="0 0 60 60" fill="none" xmlns="http://www.w3.org/2000/svg">
<path d="M40.6266 15.3094C38.9539 13.8012 36.9783 12.6678 34.832 11.985C32.6857 11.3023 30.4184 11.086 28.1817 11.3506C24.8058 11.7361 21.6417 13.1912 19.1516 15.5031C16.6616 17.815 14.976 20.8626 14.3414 24.2007C13.7067 27.5387 14.1561 30.9923 15.624 34.0567C17.0918 37.1211 19.5012 39.6359 22.5 41.2335V50.625C22.5005 51.1221 22.6982 51.5987 23.0498 51.9503C23.4013 52.3018 23.8779 52.4995 24.375 52.5H26.25V54.375C26.2505 54.8721 26.4482 55.3487 26.7998 55.7003C27.1513 56.0518 27.6279 56.2495 28.125 56.25H31.875C32.3722 56.2495 32.8488 56.0518 33.2003 55.7003C33.5518 55.3487 33.7495 54.8721 33.75 54.375V52.5H35.625C36.1222 52.4995 36.5988 52.3018 36.9503 51.9503C37.3018 51.5987 37.4995 51.1221 37.5 50.625V41.234C39.7627 40.0288 41.701 38.2952 43.1501 36.1803C44.5991 34.0655 45.5161 31.6321 45.823 29.0869C46.13 26.5417 45.8179 23.96 44.9131 21.5613C44.0084 19.1627 42.5379 17.0179 40.6266 15.3094ZM35.625 45V46.875H24.375V45H35.625ZM31.8764 54.375H28.125V52.5H31.8755L31.8764 54.375ZM32.8125 50.625H24.375V48.75H35.625V50.625H32.8125ZM36.1514 39.8177C35.9935 39.8946 35.8605 40.0143 35.7674 40.1633C35.6743 40.3122 35.625 40.4843 35.625 40.6599V43.125H30.9375V38.8257L33.4753 36.2878C33.6461 36.111 33.7406 35.8742 33.7385 35.6284C33.7363 35.3825 33.6377 35.1474 33.4639 34.9736C33.2901 34.7998 33.055 34.7012 32.8092 34.699C32.5633 34.6969 32.3265 34.7914 32.1497 34.9622L30 37.1118L27.8503 34.9622C27.6735 34.7914 27.4367 34.6969 27.1909 34.699C26.9451 34.7012 26.71 34.7998 26.5361 34.9736C26.3623 35.1474 26.2637 35.3825 26.2616 35.6284C26.2594 35.8742 26.3539 36.111 26.5247 36.2878L29.0625 38.8257V43.125H24.375V40.6599C24.3751 40.4843 24.3257 40.3122 24.2327 40.1633C24.1396 40.0143 24.0065 39.8946 23.8486 39.8177C21.1119 38.4885 18.8804 36.3072 17.4895 33.6014C16.0986 30.8955 15.6233 27.8114 16.1352 24.8124C16.647 21.8133 18.1182 19.0614 20.3279 16.9701C22.5375 14.8787 25.3661 13.5609 28.3887 13.2147C28.9301 13.1542 29.4745 13.1238 30.0192 13.1236C33.475 13.1133 36.8108 14.3905 39.376 16.7062C41.0955 18.2431 42.4102 20.1797 43.2041 22.345C43.9979 24.5103 44.2464 26.8377 43.9278 29.1218C43.6091 31.406 42.733 33.5765 41.3768 35.4418C40.0205 37.3071 38.226 38.8102 36.1514 39.8177Z" fill="#7DC6E9"/>
<path d="M30 9.375C30.2486 9.375 30.4871 9.27623 30.6629 9.10041C30.8387 8.9246 30.9375 8.68614 30.9375 8.4375V4.6875C30.9375 4.43886 30.8387 4.2004 30.6629 4.02459C30.4871 3.84877 30.2486 3.75 30 3.75C29.7514 3.75 29.5129 3.84877 29.3371 4.02459C29.1613 4.2004 29.0625 4.43886 29.0625 4.6875V8.4375C29.0625 8.68614 29.1613 8.9246 29.3371 9.10041C29.5129 9.27623 29.7514 9.375 30 9.375Z" fill="#7DC6E9"/>
<path d="M16.0789 14.5921C16.1654 14.6817 16.2688 14.7531 16.3832 14.8022C16.4976 14.8514 16.6206 14.8772 16.7451 14.8783C16.8696 14.8794 16.993 14.8557 17.1082 14.8085C17.2234 14.7614 17.3281 14.6918 17.4161 14.6038C17.5042 14.5157 17.5738 14.4111 17.6209 14.2958C17.668 14.1806 17.6918 14.0572 17.6907 13.9327C17.6896 13.8082 17.6637 13.6852 17.6146 13.5708C17.5655 13.4564 17.4941 13.353 17.4045 13.2665L14.7527 10.6147C14.6662 10.5252 14.5628 10.4537 14.4484 10.4046C14.334 10.3555 14.211 10.3296 14.0865 10.3285C13.962 10.3274 13.8386 10.3512 13.7234 10.3983C13.6082 10.4454 13.5035 10.5151 13.4155 10.6031C13.3274 10.6911 13.2578 10.7958 13.2107 10.911C13.1635 11.0262 13.1398 11.1497 13.1409 11.2741C13.142 11.3986 13.1678 11.5216 13.217 11.636C13.2661 11.7504 13.3375 11.8538 13.4271 11.9403L16.0789 14.5921Z" fill="#7DC6E9"/>
<path d="M11.25 26.25H7.5C7.25136 26.25 7.0129 26.3488 6.83709 26.5246C6.66127 26.7004 6.5625 26.9389 6.5625 27.1875C6.5625 27.4361 6.66127 27.6746 6.83709 27.8504C7.0129 28.0262 7.25136 28.125 7.5 28.125H11.25C11.4986 28.125 11.7371 28.0262 11.9129 27.8504C12.0887 27.6746 12.1875 27.4361 12.1875 27.1875C12.1875 26.9389 12.0887 26.7004 11.9129 26.5246C11.7371 26.3488 11.4986 26.25 11.25 26.25Z" fill="#7DC6E9"/>
<path d="M16.0789 39.7829L13.4271 42.4348C13.3375 42.5212 13.2661 42.6247 13.217 42.7391C13.1678 42.8534 13.142 42.9765 13.1409 43.1009C13.1398 43.2254 13.1635 43.3489 13.2107 43.4641C13.2578 43.5793 13.3274 43.684 13.4155 43.772C13.5035 43.86 13.6082 43.9296 13.7234 43.9768C13.8386 44.0239 13.962 44.0476 14.0865 44.0466C14.211 44.0455 14.334 44.0196 14.4484 43.9705C14.5628 43.9213 14.6662 43.8499 14.7527 43.7604L17.4045 41.1086C17.5753 40.9318 17.6698 40.6949 17.6676 40.4491C17.6655 40.2033 17.5669 39.9682 17.3931 39.7944C17.2193 39.6205 16.9841 39.5219 16.7383 39.5198C16.4925 39.5177 16.2557 39.6122 16.0789 39.7829Z" fill="#7DC6E9"/>
<path d="M45.2471 10.6147L42.5953 13.2665C42.5058 13.353 42.4343 13.4564 42.3852 13.5708C42.3361 13.6852 42.3102 13.8082 42.3091 13.9327C42.308 14.0572 42.3318 14.1806 42.3789 14.2958C42.426 14.4111 42.4956 14.5157 42.5837 14.6038C42.6717 14.6918 42.7764 14.7614 42.8916 14.8085C43.0068 14.8557 43.1302 14.8794 43.2547 14.8783C43.3792 14.8772 43.5022 14.8514 43.6166 14.8022C43.731 14.7531 43.8344 14.6817 43.9209 14.5921L46.5727 11.9403C46.6623 11.8538 46.7337 11.7504 46.7828 11.636C46.832 11.5216 46.8578 11.3986 46.8589 11.2741C46.86 11.1497 46.8363 11.0262 46.7891 10.911C46.742 10.7958 46.6724 10.6911 46.5843 10.6031C46.4963 10.5151 46.3916 10.4454 46.2764 10.3983C46.1612 10.3512 46.0378 10.3274 45.9133 10.3285C45.7888 10.3296 45.6658 10.3555 45.5514 10.4046C45.437 10.4537 45.3336 10.5252 45.2471 10.6147Z" fill="#7DC6E9"/>
<path d="M43.9211 39.7829C43.7443 39.6122 43.5074 39.5177 43.2616 39.5198C43.0158 39.5219 42.7807 39.6205 42.6069 39.7944C42.433 39.9682 42.3344 40.2033 42.3323 40.4491C42.3302 40.6949 42.4247 40.9318 42.5954 41.1086L45.2473 43.7604C45.4241 43.9312 45.6609 44.0256 45.9067 44.0235C46.1525 44.0214 46.3876 43.9228 46.5615 43.749C46.7353 43.5751 46.8339 43.34 46.836 43.0942C46.8381 42.8484 46.7437 42.6116 46.5729 42.4348L43.9211 39.7829Z" fill="#7DC6E9"/>
<path d="M52.5 26.25H48.75C48.5014 26.25 48.2629 26.3488 48.0871 26.5246C47.9113 26.7004 47.8125 26.9389 47.8125 27.1875C47.8125 27.4361 47.9113 27.6746 48.0871 27.8504C48.2629 28.0262 48.5014 28.125 48.75 28.125H52.5C52.7486 28.125 52.9871 28.0262 53.1629 27.8504C53.3387 27.6746 53.4375 27.4361 53.4375 27.1875C53.4375 26.9389 53.3387 26.7004 53.1629 26.5246C52.9871 26.3488 52.7486 26.25 52.5 26.25Z" fill="#7DC6E9"/>
</svg>
