<svg width="40" height="40" viewBox="0 0 40 40" fill="none" xmlns="http://www.w3.org/2000/svg">
<g clip-path="url(#clip0_665_1975)">
<path d="M26.1696 0C18.715 0 12.6502 6.06484 12.6502 13.5195C12.6502 15.1767 12.9446 16.7872 13.526 18.3166L0.599141 31.2444C0.414375 31.4292 0.310547 31.6798 0.310547 31.941V39.0148C0.310547 39.5589 0.751641 40 1.29578 40H7.12516C7.38617 40 7.63648 39.8965 7.82125 39.712L9.7857 37.7505C9.97086 37.5657 10.0748 37.3148 10.0748 37.0533V34.6411H12.484C13.0281 34.6411 13.4692 34.2 13.4692 33.6559V32.6902H14.4349C14.979 32.6902 15.4202 32.2491 15.4202 31.705V29.585H17.5402C17.8014 29.585 18.052 29.4812 18.2368 29.2964L21.3713 26.162C22.9009 26.7439 24.5116 27.0387 26.1695 27.0387C33.6241 27.0387 39.6889 20.9739 39.6889 13.5193C39.689 6.06484 33.6242 0 26.1696 0ZM26.1696 25.0683C24.557 25.0683 22.9973 24.7426 21.5338 24.1001C21.1553 23.934 20.7291 24.0254 20.4501 24.2973C20.447 24.3002 20.4441 24.3026 20.4411 24.3056L17.1322 27.6145H14.4351C13.8909 27.6145 13.4498 28.0556 13.4498 28.5998V30.7198H12.4841C11.9401 30.7198 11.4989 31.1609 11.4989 31.705V32.6706H9.08969C8.54562 32.6706 8.10445 33.1117 8.10445 33.6559V36.6447L6.7175 38.0295H2.28117V36.6372L14.3234 24.595C14.6698 24.2487 14.6698 23.6873 14.3234 23.341C13.9771 22.9948 13.4159 22.9946 13.0693 23.341L2.28117 34.1292V32.3492L15.3824 19.247C15.3854 19.2441 15.3877 19.2413 15.3904 19.2384C15.6624 18.9596 15.7541 18.5334 15.588 18.1547C14.9462 16.6912 14.6209 15.1316 14.6209 13.5195C14.6209 7.15141 19.8017 1.97055 26.1698 1.97055C32.538 1.97055 37.7187 7.15133 37.7187 13.5195C37.7185 19.8875 32.5376 25.0683 26.1696 25.0683Z" fill="#057CB5"/>
<path d="M30.2841 5.71436C28.2492 5.71436 26.5938 7.36982 26.5938 9.40475C26.5938 11.4397 28.2492 13.0951 30.2841 13.0951C32.3191 13.0951 33.9745 11.4397 33.9745 9.40475C33.9745 7.36982 32.3191 5.71436 30.2841 5.71436ZM30.2841 11.1247C29.3358 11.1247 28.5642 10.3531 28.5642 9.40475C28.5642 8.45639 29.3358 7.68482 30.2841 7.68482C31.2325 7.68482 32.0041 8.45639 32.0041 9.40475C32.0041 10.3531 31.2325 11.1247 30.2841 11.1247Z" fill="#057CB5"/>
</g>
<defs>
<clipPath id="clip0_665_1975">
<rect width="40" height="40" fill="white"/>
</clipPath>
</defs>
</svg>
