<svg width="51" height="51" viewBox="0 0 51 51" fill="none" xmlns="http://www.w3.org/2000/svg">
<g clip-path="url(#clip0_799_72)">
<mask id="mask0_799_72" style="mask-type:luminance" maskUnits="userSpaceOnUse" x="0" y="0" width="51" height="51">
<path d="M51 0H0V51H51V0Z" fill="white"/>
</mask>
<g mask="url(#mask0_799_72)">
<path d="M41.3136 25.0558C41.4682 24.6747 41.9029 24.491 42.2841 24.646C45.7084 26.0369 47.9209 29.3186 47.9208 33.0062C47.9208 37.9805 43.8739 42.0274 38.8995 42.0274C33.9253 42.0274 29.8784 37.9805 29.8784 33.0062C29.8784 28.0418 33.9175 23.995 38.8819 23.9854H38.8834C39.2942 23.9854 39.6275 24.3179 39.6283 24.7288C39.6291 25.1403 39.2963 25.4745 38.8848 25.4753C34.7402 25.4833 31.3685 28.8617 31.3685 33.0062C31.3685 37.159 34.747 40.5375 38.8997 40.5375C43.0523 40.5375 46.4309 37.159 46.4309 33.0062C46.4309 29.9278 44.5831 27.1879 41.7234 26.0264C41.3422 25.8715 41.1586 25.4371 41.3136 25.0558Z" fill="#7DC6E9"/>
<path fill-rule="evenodd" clip-rule="evenodd" d="M49.2874 26.8065C49.2856 26.8026 49.2843 26.7986 49.2824 26.7947L43.2397 14.2671C42.4048 12.5361 41.0181 11.163 39.3541 10.3173L38.7837 9.1346C37.8338 7.16539 35.8073 5.89307 33.6211 5.89307C30.4606 5.89307 27.8893 8.46432 27.8893 11.6249V13.8258C27.3871 14.7262 27.0413 15.725 26.8884 16.7855H24.1118C23.9589 15.725 23.6131 14.7261 23.1108 13.8256V11.6249C23.1108 8.46442 20.5395 5.89307 17.379 5.89307C15.1928 5.89307 13.1664 7.16549 12.2164 9.1347L11.646 10.3173C9.98205 11.1631 8.59531 12.5362 7.76044 14.2671L6.7138 16.4369C6.53501 16.8074 6.69056 17.2528 7.06106 17.4316C7.43166 17.6102 7.87695 17.4549 8.05575 17.0842L9.10239 14.9143C10.2888 12.4545 12.8202 10.8652 15.5512 10.8652C19.4991 10.8652 22.7111 14.077 22.7111 18.025V27.1895C22.0096 25.9109 21.0751 24.7545 19.9352 23.7851C19.6218 23.5185 19.1516 23.5566 18.8852 23.8699C18.6186 24.1833 18.6566 24.6535 18.97 24.92C21.3476 26.9419 22.7111 29.8891 22.7111 33.006C22.7111 38.8566 17.9512 43.6165 12.1006 43.6165C6.24993 43.6165 1.48995 38.8567 1.48995 33.0061C1.48995 27.1555 6.24983 22.3956 12.1005 22.3956C13.6213 22.3956 15.0892 22.7103 16.4635 23.3312C16.8381 23.5004 17.2797 23.3339 17.4492 22.9589C17.6185 22.5839 17.4519 22.1427 17.077 21.9733C15.5086 21.2649 13.8343 20.9056 12.1005 20.9056C9.51629 20.9056 7.11907 21.7203 5.15114 23.1058L6.67298 19.9507C6.85177 19.5801 6.69622 19.1348 6.32572 18.956C5.95532 18.7776 5.50982 18.9327 5.33103 19.3033L1.71761 26.7947C1.71659 26.7968 1.71575 26.7989 1.7149 26.8011L1.71264 26.8065C0.625877 28.6209 0 30.7416 0 33.0061C0 39.6783 5.42818 45.1065 12.1005 45.1065C18.6886 45.1065 24.0632 39.8141 24.1977 33.2577H26.8024C26.9369 39.8141 32.3115 45.1065 38.8995 45.1065C45.5718 45.1065 51 39.6783 51 33.0061C51 30.7416 50.3742 28.6209 49.2874 26.8065ZM41.8977 14.9143L45.8488 23.1056C43.8809 21.7202 41.4837 20.9055 38.8995 20.9055C34.3324 20.9055 30.3485 23.4493 28.2891 27.1941V18.025C28.2891 14.077 31.501 10.8652 35.4489 10.8652C38.1799 10.8652 40.7112 12.4546 41.8977 14.9143ZM26.7992 31.7677H24.201V18.2754H26.7992V31.7677ZM33.6211 7.38302C35.1658 7.38302 36.6009 8.24252 37.3396 9.58844C36.7252 9.44908 36.0918 9.37528 35.4489 9.37528C33.0862 9.37528 30.9419 10.328 29.3793 11.8689V11.6249C29.3792 9.28588 31.2821 7.38302 33.6211 7.38302ZM15.5512 9.37518C14.9083 9.37518 14.2749 9.44898 13.6605 9.58834C14.3993 8.24242 15.8344 7.38292 17.379 7.38292C19.718 7.38292 21.6208 9.28578 21.6208 11.6248V11.8688C20.0582 10.3279 17.9139 9.37518 15.5512 9.37518ZM38.8995 43.6166C33.0489 43.6166 28.2891 38.8567 28.2891 33.0061C28.2891 27.1555 33.0489 22.3956 38.8995 22.3956C44.7502 22.3956 49.5101 27.1555 49.5101 33.0061C49.5101 38.8567 44.7502 43.6166 38.8995 43.6166Z" fill="#7DC6E9"/>
<path fill-rule="evenodd" clip-rule="evenodd" d="M3.07935 33.0061C3.07935 37.9805 7.12624 42.0274 12.1006 42.0274C17.0748 42.0274 21.1217 37.9805 21.1217 33.0061C21.1217 28.0318 17.0748 23.9849 12.1006 23.9849C7.12624 23.9848 3.07935 28.0317 3.07935 33.0061ZM19.6319 33.0061C19.6319 37.1589 16.2534 40.5374 12.1007 40.5374C7.948 40.5374 4.56929 37.1589 4.56929 33.0061C4.56929 28.8534 7.9479 25.4749 12.1006 25.4749C16.2533 25.4749 19.6319 28.8533 19.6319 33.0061Z" fill="#7DC6E9"/>
<path fill-rule="evenodd" clip-rule="evenodd" d="M49.066 26.9234L49.0603 26.9111C49.0577 26.9056 49.0558 26.9009 49.0545 26.8978L43.0145 14.3757C42.2043 12.6958 40.8578 11.3619 39.2408 10.5401L39.1656 10.5019L38.5585 9.2432C37.6504 7.36045 35.7113 6.14307 33.6211 6.14307C30.5987 6.14307 28.1393 8.60239 28.1393 11.6249V13.8908L28.1077 13.9476C27.62 14.8219 27.2842 15.7915 27.1358 16.8212L27.1049 17.0355H23.8953L23.8644 16.8212C23.716 15.7915 23.3802 14.8218 22.8924 13.9474L22.8608 13.8906V11.6249C22.8608 8.60249 20.4014 6.14307 17.379 6.14307C15.2888 6.14307 13.3499 7.36053 12.4416 9.24331C12.4415 9.24331 12.4416 9.2433 12.4416 9.24331L11.8345 10.5019L11.7593 10.5401C10.1423 11.362 8.79584 12.6959 7.98562 14.3757L6.93897 16.5455C6.82023 16.7915 6.92347 17.0875 7.16959 17.2063C7.41598 17.3251 7.71181 17.2218 7.83057 16.9756L8.87721 14.8057C10.1053 12.2595 12.7242 10.6152 15.5512 10.6152C19.6372 10.6152 22.9611 13.9389 22.9611 18.025V27.1895L22.4919 27.3098C21.8049 26.0576 20.8897 24.925 19.7732 23.9755C19.5651 23.7985 19.2526 23.8237 19.0756 24.0319C18.8985 24.2401 18.9238 24.5525 19.132 24.7296C21.5653 26.7989 22.9611 29.8157 22.9611 33.006C22.9611 38.9947 18.0893 43.8665 12.1006 43.8665C6.11187 43.8665 1.23995 38.9948 1.23995 33.0061C1.23995 27.0174 6.11176 22.1456 12.1005 22.1456C13.6565 22.1456 15.1595 22.4678 16.5664 23.1033C16.8152 23.2157 17.1088 23.1051 17.2213 22.8559C17.3339 22.6068 17.2231 22.3137 16.9741 22.2011C15.4382 21.5074 13.799 21.1556 12.1005 21.1556C9.56966 21.1556 7.22239 21.9533 5.29506 23.3102L4.50757 23.8646L6.4478 19.8421C6.56656 19.5959 6.46332 19.3001 6.21724 19.1812C5.97096 19.0626 5.67493 19.1659 5.55621 19.4119L1.94581 26.897L1.9365 26.9193L1.92711 26.935C0.862853 28.7118 0.25 30.7882 0.25 33.0061C0.25 39.5402 5.56625 44.8565 12.1005 44.8565C18.5522 44.8565 23.8161 39.6733 23.9478 33.2526L23.9528 33.0077H27.0473L27.0523 33.2526C27.184 39.6733 32.4479 44.8565 38.8995 44.8565C45.4338 44.8565 50.75 39.5402 50.75 33.0061C50.75 30.7882 50.1372 28.7118 49.0729 26.935L49.066 26.9234ZM1.94756 26.8926C1.94814 26.8911 1.94766 26.8923 1.947 26.8939L1.94756 26.8926ZM5.33103 19.3033L1.71761 26.7947C1.71659 26.7968 1.71575 26.7989 1.7149 26.8011L1.71264 26.8065C0.625877 28.6209 0 30.7416 0 33.0061C0 39.6783 5.42818 45.1065 12.1005 45.1065C18.6886 45.1065 24.0632 39.8141 24.1977 33.2577H26.8024C26.9369 39.8141 32.3115 45.1065 38.8995 45.1065C45.5718 45.1065 51 39.6783 51 33.0061C51 30.7416 50.3742 28.6209 49.2874 26.8065C49.2856 26.8026 49.2843 26.7986 49.2824 26.7947L43.2397 14.2671C42.4048 12.5361 41.0181 11.163 39.3541 10.3173L38.7837 9.1346C37.8338 7.16539 35.8073 5.89307 33.6211 5.89307C30.4606 5.89307 27.8893 8.46432 27.8893 11.6249V13.8258C27.3871 14.7262 27.0413 15.725 26.8884 16.7855H24.1118C23.9589 15.725 23.6131 14.7261 23.1108 13.8256V11.6249C23.1108 8.46442 20.5395 5.89307 17.379 5.89307C15.1928 5.89307 13.1664 7.16549 12.2164 9.1347L11.646 10.3173C9.98205 11.1631 8.59531 12.5362 7.76044 14.2671L6.7138 16.4369C6.53501 16.8074 6.69056 17.2528 7.06106 17.4316C7.43166 17.6102 7.87695 17.4549 8.05575 17.0842L9.10239 14.9143C10.2888 12.4545 12.8202 10.8652 15.5512 10.8652C19.4991 10.8652 22.7111 14.077 22.7111 18.025V27.1895C22.6308 27.0432 22.5474 26.8984 22.4611 26.7554C21.793 25.6486 20.9446 24.6435 19.9352 23.7851C19.6218 23.5185 19.1516 23.5566 18.8852 23.8699C18.6186 24.1833 18.6566 24.6535 18.97 24.92C21.3476 26.9419 22.7111 29.8891 22.7111 33.006C22.7111 38.8566 17.9512 43.6165 12.1006 43.6165C6.24993 43.6165 1.48995 38.8567 1.48995 33.0061C1.48995 27.1555 6.24983 22.3956 12.1005 22.3956C13.6213 22.3956 15.0892 22.7103 16.4635 23.3312C16.8381 23.5004 17.2797 23.3339 17.4492 22.9589C17.6185 22.5839 17.4519 22.1427 17.077 21.9733C15.5086 21.2649 13.8343 20.9056 12.1005 20.9056C9.69368 20.9056 7.44906 21.6123 5.56239 22.8286C5.42334 22.9183 5.28623 23.0107 5.15114 23.1058L6.67298 19.9507C6.85177 19.5801 6.69622 19.1348 6.32572 18.956C5.95532 18.7776 5.50982 18.9327 5.33103 19.3033ZM46.4923 23.8644L45.7048 23.31C43.7776 21.9532 41.4303 21.1555 38.8995 21.1555C34.4275 21.1555 30.5256 23.6461 28.5082 27.3146L28.0391 27.1941V18.025C28.0391 13.9389 31.3629 10.6152 35.4489 10.6152C38.2759 10.6152 40.8947 12.2596 42.1229 14.8057L41.8977 14.9143C40.7112 12.4546 38.1799 10.8652 35.4489 10.8652C31.501 10.8652 28.2891 14.077 28.2891 18.025V27.1941C28.3696 27.0478 28.4529 26.9034 28.5391 26.7609C30.6606 23.2545 34.5107 20.9055 38.8995 20.9055C41.3063 20.9055 43.5509 21.6122 45.4375 22.8284C45.5766 22.9181 45.7137 23.0105 45.8488 23.1056L41.8977 14.9143L42.1229 14.8057L46.4923 23.8644ZM23.951 32.0177V18.0254H27.0492V32.0177H23.951ZM37.826 9.95513L37.2843 9.83224C36.6875 9.69687 36.0726 9.62528 35.4489 9.62528C33.1547 9.62528 31.0728 10.5501 29.5548 12.0469L29.1293 12.4665V11.6249C29.1292 9.1478 31.1441 7.13302 33.6211 7.13302C35.2579 7.13302 36.7765 8.04296 37.5587 9.46815L37.826 9.95513ZM13.174 9.95504L13.4414 9.46804C14.2237 8.04286 15.7423 7.13292 17.379 7.13292C19.856 7.13292 21.8708 9.14771 21.8708 11.6248V12.4664L21.4453 12.0468C19.9273 10.55 17.8454 9.62518 15.5512 9.62518C14.9275 9.62518 14.3126 9.69678 13.7158 9.83214L13.174 9.95504ZM42.19 24.8774C41.9367 24.7745 41.6479 24.8965 41.5452 25.1496C41.4423 25.4029 41.5641 25.6916 41.8175 25.7946C44.7711 26.9943 46.6809 29.8255 46.6809 33.006C46.6809 37.2968 43.1904 40.7873 38.8997 40.7873C34.6089 40.7873 31.1185 37.2968 31.1185 33.006C31.1185 28.7236 34.6019 25.2334 38.8844 25.2251C39.1577 25.2246 39.3789 25.0025 39.3783 24.7291C39.3778 24.4561 39.1563 24.2352 38.8834 24.2352C34.0568 24.2445 30.1284 28.1795 30.1284 33.006C30.1284 37.8423 34.0634 41.7772 38.8995 41.7772C43.7358 41.7772 47.6708 37.8423 47.6708 33.006C47.6709 29.4204 45.5203 26.2301 42.19 24.8774ZM38.8819 23.9852H38.8834C39.2942 23.9852 39.6275 24.3177 39.6283 24.7286C39.6291 25.1401 39.2963 25.4743 38.8848 25.4751C34.7402 25.4831 31.3685 28.8615 31.3685 33.006C31.3685 37.1588 34.747 40.5373 38.8997 40.5373C43.0523 40.5373 46.4309 37.1588 46.4309 33.006C46.4309 29.9276 44.5831 27.1877 41.7234 26.0262C41.3422 25.8713 41.1586 25.4369 41.3136 25.0556C41.4682 24.6745 41.9029 24.4908 42.2841 24.6458C45.7084 26.0367 47.9209 29.3184 47.9208 33.006C47.9208 37.9803 43.8739 42.0272 38.8995 42.0272C33.9253 42.0272 29.8784 37.9803 29.8784 33.006C29.8784 28.0416 33.9175 23.9948 38.8819 23.9852ZM26.7992 18.2754H24.201V31.7677H26.7992V18.2754ZM29.3805 11.5213C29.4357 9.2299 31.3168 7.38302 33.6211 7.38302C35.0505 7.38302 36.3859 8.11893 37.1627 9.29518C37.2253 9.39011 37.2844 9.48792 37.3396 9.58844C37.2303 9.56366 37.1205 9.54096 37.0101 9.52037C36.4997 9.42517 35.9775 9.37528 35.4489 9.37528C33.2098 9.37528 31.1669 10.2309 29.6293 11.6319C29.5444 11.7093 29.461 11.7883 29.3793 11.8689V11.6249C29.3793 11.5903 29.3797 11.5557 29.3805 11.5213ZM13.8375 9.29507C14.6143 8.11883 15.9497 7.38292 17.379 7.38292C19.6833 7.38292 21.5643 9.2298 21.6196 11.5211C21.6204 11.5556 21.6208 11.5902 21.6208 11.6248V11.8688C21.5391 11.7882 21.4557 11.7092 21.3708 11.6318C19.8332 10.2308 17.7903 9.37518 15.5512 9.37518C15.0226 9.37518 14.5004 9.42507 13.99 9.52027C13.8796 9.54086 13.7698 9.56356 13.6605 9.58834C13.7157 9.48782 13.7748 9.39001 13.8375 9.29507ZM38.8995 43.8666C32.9108 43.8666 28.0391 38.9948 28.0391 33.0061C28.0391 27.0174 32.9108 22.1456 38.8995 22.1456C44.8882 22.1456 49.7601 27.0174 49.7601 33.0061C49.7601 38.9948 44.8882 43.8666 38.8995 43.8666ZM3.32935 33.0061C3.32935 37.8424 7.26431 41.7774 12.1006 41.7774C16.9367 41.7774 20.8717 37.8424 20.8717 33.0061C20.8717 28.1699 16.9367 24.2349 12.1006 24.2349C7.26431 24.2348 3.32935 28.1698 3.32935 33.0061ZM19.8819 33.0061C19.8819 37.297 16.3914 40.7874 12.1007 40.7874C7.80993 40.7874 4.31929 37.297 4.31929 33.0061C4.31929 28.7153 7.80983 25.2249 12.1006 25.2249C16.3913 25.2249 19.8819 28.7152 19.8819 33.0061ZM38.8995 43.6166C33.0489 43.6166 28.2891 38.8567 28.2891 33.0061C28.2891 27.1555 33.0489 22.3956 38.8995 22.3956C44.7502 22.3956 49.5101 27.1555 49.5101 33.0061C49.5101 38.8567 44.7502 43.6166 38.8995 43.6166ZM12.1006 42.0274C7.12624 42.0274 3.07935 37.9805 3.07935 33.0061C3.07935 28.0317 7.12624 23.9848 12.1006 23.9849C17.0748 23.9849 21.1217 28.0318 21.1217 33.0061C21.1217 37.9805 17.0748 42.0274 12.1006 42.0274ZM12.1007 40.5374C16.2534 40.5374 19.6319 37.1589 19.6319 33.0061C19.6319 28.8533 16.2533 25.4749 12.1006 25.4749C7.9479 25.4749 4.56929 28.8534 4.56929 33.0061C4.56929 37.1589 7.948 40.5374 12.1007 40.5374Z" fill="#7DC6E9"/>
</g>
</g>
<defs>
<clipPath id="clip0_799_72">
<rect width="51" height="51" fill="white"/>
</clipPath>
</defs>
</svg>
