<svg width="70" height="70" viewBox="0 0 70 70" fill="none" xmlns="http://www.w3.org/2000/svg">
<g clip-path="url(#clip0_612_1267)">
<path d="M38.5 6.99999H47.8334C48.4777 6.99999 49 6.47759 49 5.83337C49 5.18915 48.4776 4.66675 47.8334 4.66675H38.5C37.8556 4.66675 37.3334 5.18915 37.3334 5.83337C37.3334 6.47759 37.8556 6.99999 38.5 6.99999Z" fill="#7DC6E9"/>
<path d="M5.83337 6.99999C6.47768 6.99999 6.99999 6.47768 6.99999 5.83337C6.99999 5.18906 6.47768 4.66675 5.83337 4.66675C5.18906 4.66675 4.66675 5.18906 4.66675 5.83337C4.66675 6.47768 5.18906 6.99999 5.83337 6.99999Z" fill="#7DC6E9"/>
<path d="M10.5 6.99999C11.1443 6.99999 11.6666 6.47768 11.6666 5.83337C11.6666 5.18906 11.1443 4.66675 10.5 4.66675C9.85569 4.66675 9.33337 5.18906 9.33337 5.83337C9.33337 6.47768 9.85569 6.99999 10.5 6.99999Z" fill="#7DC6E9"/>
<path d="M15.1666 6.99999C15.8109 6.99999 16.3332 6.47768 16.3332 5.83337C16.3332 5.18906 15.8109 4.66675 15.1666 4.66675C14.5223 4.66675 14 5.18906 14 5.83337C14 6.47768 14.5223 6.99999 15.1666 6.99999Z" fill="#7DC6E9"/>
<path d="M45.5 19.8334C45.5 20.4777 46.0223 21 46.6666 21H56C56.6444 21 57.1666 20.4776 57.1666 19.8334C57.1666 19.189 56.6442 18.6667 56 18.6667H46.6666C46.0224 18.6666 45.5 19.189 45.5 19.8334Z" fill="#7DC6E9"/>
<path d="M14 21C14.6443 21 15.1666 20.4777 15.1666 19.8334C15.1666 19.1891 14.6443 18.6667 14 18.6667C13.3557 18.6667 12.8334 19.1891 12.8334 19.8334C12.8334 20.4777 13.3557 21 14 21Z" fill="#7DC6E9"/>
<path d="M18.6666 21C19.3109 21 19.8332 20.4777 19.8332 19.8334C19.8332 19.1891 19.3109 18.6667 18.6666 18.6667C18.0223 18.6667 17.5 19.1891 17.5 19.8334C17.5 20.4777 18.0223 21 18.6666 21Z" fill="#7DC6E9"/>
<path d="M23.3334 21C23.9777 21 24.5 20.4777 24.5 19.8334C24.5 19.1891 23.9777 18.6667 23.3334 18.6667C22.6891 18.6667 22.1667 19.1891 22.1667 19.8334C22.1667 20.4777 22.6891 21 23.3334 21Z" fill="#7DC6E9"/>
<path d="M65.3334 28H61.8334V18.6666C61.8334 16.0893 59.744 14 57.1668 14H53.6668V4.66662C53.6666 2.08934 51.5773 0 49 0H4.66662C2.08934 0 0 2.08934 0 4.66662V37.3332C0 39.9107 2.08934 42 4.66662 42H8.16662V51.3334C8.16662 53.9107 10.256 56 12.8332 56H16.3332V65.3334C16.3332 67.9107 18.4226 70 20.9999 70H65.3332C67.9107 70 70 67.9107 70 65.3334V32.6666C70 30.0893 67.9107 28 65.3334 28ZM67.6666 32.6666V37.3332H18.6666V32.6666C18.6666 31.3779 19.7113 30.3332 21 30.3332H65.3334C66.622 30.3334 67.6666 31.378 67.6666 32.6666ZM59.5 18.6666V23.3332H10.5V18.6666C10.5 17.3779 11.5447 16.3332 12.8334 16.3332H57.1668C58.4553 16.3334 59.5 17.378 59.5 18.6666ZM4.66662 2.33338H49C50.2887 2.33338 51.3334 3.37805 51.3334 4.66676V9.33338H2.33338V4.66662C2.33338 3.37805 3.37805 2.33338 4.66662 2.33338ZM4.66662 39.6666C3.37791 39.6666 2.33324 38.622 2.33324 37.3332V11.6666H51.3332V14H12.8332C10.256 14 8.16662 16.0893 8.16662 18.6666V39.6666H4.66662ZM12.8334 53.6666C11.5447 53.6666 10.5 52.622 10.5 51.3332V25.6666H59.5V28H21C18.4227 28 16.3334 30.0893 16.3334 32.6666V53.6666H12.8334ZM65.3334 67.6666H21C19.7113 67.6666 18.6666 66.622 18.6666 65.3332V39.6666H67.6666V65.3332C67.6666 66.622 66.622 67.6666 65.3334 67.6666Z" fill="#7DC6E9"/>
<path d="M53.6666 33.8334C53.6666 34.4777 54.1889 35 54.8332 35H64.1666C64.811 35 65.3332 34.4777 65.3332 33.8334C65.3332 33.189 64.8108 32.6667 64.1666 32.6667H54.8332C54.189 32.6666 53.6666 33.189 53.6666 33.8334Z" fill="#7DC6E9"/>
<path d="M22.1666 35C22.8109 35 23.3332 34.4777 23.3332 33.8334C23.3332 33.1891 22.8109 32.6667 22.1666 32.6667C21.5223 32.6667 21 33.1891 21 33.8334C21 34.4777 21.5223 35 22.1666 35Z" fill="#7DC6E9"/>
<path d="M26.8334 35C27.4777 35 28 34.4777 28 33.8334C28 33.1891 27.4777 32.6667 26.8334 32.6667C26.1891 32.6667 25.6667 33.1891 25.6667 33.8334C25.6667 34.4777 26.1891 35 26.8334 35Z" fill="#7DC6E9"/>
<path d="M31.5 35C32.1443 35 32.6666 34.4777 32.6666 33.8334C32.6666 33.1891 32.1443 32.6667 31.5 32.6667C30.8557 32.6667 30.3334 33.1891 30.3334 33.8334C30.3334 34.4777 30.8557 35 31.5 35Z" fill="#7DC6E9"/>
<path d="M25.6666 43.1666H23.3332C22.6889 43.1666 22.1666 43.689 22.1666 44.3332C22.1666 44.9775 22.689 45.4999 23.3332 45.4999H25.6666C26.311 45.4999 26.8332 44.9776 26.8332 44.3332C26.8332 43.6889 26.311 43.1666 25.6666 43.1666Z" fill="#7DC6E9"/>
<path d="M30.3334 45.5H50.1667C50.8111 45.5 51.3334 44.9777 51.3334 44.3334C51.3334 43.689 50.8111 43.1667 50.1667 43.1667H30.3334C29.689 43.1667 29.1667 43.6891 29.1667 44.3334C29.1667 44.9776 29.689 45.5 30.3334 45.5Z" fill="#7DC6E9"/>
<path d="M25.6666 47.8334H23.3332C22.6889 47.8334 22.1666 48.3556 22.1666 49C22.1666 49.6443 22.689 50.1666 23.3332 50.1666H25.6666C26.311 50.1666 26.8332 49.6443 26.8332 49C26.8332 48.3556 26.311 47.8334 25.6666 47.8334Z" fill="#7DC6E9"/>
<path d="M30.3334 50.1666H40.8334C41.4777 50.1666 42 49.6443 42 49C42 48.3556 41.4777 47.8334 40.8334 47.8334H30.3334C29.689 47.8334 29.1667 48.3556 29.1667 49C29.1667 49.6443 29.689 50.1666 30.3334 50.1666Z" fill="#7DC6E9"/>
<path d="M25.6666 52.5H23.3332C22.6889 52.5 22.1666 53.0223 22.1666 53.6666C22.1666 54.311 22.689 54.8332 23.3332 54.8332H25.6666C26.311 54.8332 26.8332 54.311 26.8332 53.6666C26.8332 53.0223 26.311 52.5 25.6666 52.5Z" fill="#7DC6E9"/>
<path d="M30.3334 54.8334H44.3334C44.9777 54.8334 45.5 54.3111 45.5 53.6668C45.5 53.0224 44.9777 52.5 44.3334 52.5H30.3334C29.689 52.5 29.1667 53.0223 29.1667 53.6666C29.1667 54.311 29.689 54.8334 30.3334 54.8334Z" fill="#7DC6E9"/>
<path d="M25.6666 57.1666H23.3332C22.6889 57.1666 22.1666 57.6889 22.1666 58.3332C22.1666 58.9776 22.689 59.4999 23.3332 59.4999H25.6666C26.311 59.4999 26.8332 58.9776 26.8332 58.3332C26.8332 57.6889 26.311 57.1666 25.6666 57.1666Z" fill="#7DC6E9"/>
<path d="M30.3334 59.5H50.1667C50.8111 59.5 51.3334 58.9777 51.3334 58.3334C51.3334 57.689 50.8111 57.1667 50.1667 57.1667H30.3334C29.689 57.1667 29.1667 57.689 29.1667 58.3334C29.1667 58.9777 29.689 59.5 30.3334 59.5Z" fill="#7DC6E9"/>
<path d="M25.6666 61.8334H23.3332C22.6889 61.8334 22.1666 62.3556 22.1666 63C22.1666 63.6443 22.689 64.1666 23.3332 64.1666H25.6666C26.311 64.1666 26.8332 63.6443 26.8332 63C26.8332 62.3556 26.311 61.8334 25.6666 61.8334Z" fill="#7DC6E9"/>
<path d="M61.8334 61.8334H30.3334C29.689 61.8334 29.1667 62.3556 29.1667 63C29.1667 63.6443 29.6892 64.1666 30.3334 64.1666H61.8334C62.4777 64.1666 63 63.6443 63 63C63 62.3556 62.4777 61.8334 61.8334 61.8334Z" fill="#7DC6E9"/>
<path d="M54.8334 45.5H60.6667C61.3111 45.5 61.8334 44.9777 61.8334 44.3334C61.8334 43.689 61.311 43.1667 60.6667 43.1667H54.8334C54.189 43.1667 53.6667 43.6891 53.6667 44.3334C53.6667 44.9776 54.189 45.5 54.8334 45.5Z" fill="#7DC6E9"/>
<path d="M63 52.5H49C48.3556 52.5 47.8334 53.0223 47.8334 53.6666C47.8334 54.311 48.3556 54.8332 49 54.8332H63C63.6443 54.8332 64.1666 54.311 64.1666 53.6666C64.1666 53.0223 63.6443 52.5 63 52.5Z" fill="#7DC6E9"/>
</g>
<defs>
<clipPath id="clip0_612_1267">
<rect width="70" height="70" fill="white"/>
</clipPath>
</defs>
</svg>
