<svg width="70" height="70" viewBox="0 0 70 70" fill="none" xmlns="http://www.w3.org/2000/svg">
<g clip-path="url(#clip0_612_1399)">
<mask id="path-1-outside-1_612_1399" maskUnits="userSpaceOnUse" x="24.7373" y="-1" width="46" height="72" fill="black">
<rect fill="white" x="24.7373" y="-1" width="46" height="72"/>
<path d="M50.7541 22.5586H60.7402C61.6764 23.803 63.1652 24.6094 64.839 24.6094C67.6661 24.6094 69.966 22.3095 69.966 19.4824C69.966 16.6554 67.6661 14.3555 64.839 14.3555C63.1652 14.3555 61.6764 15.1618 60.7402 16.4064C60.7392 16.4064 60.7384 16.4062 60.7374 16.4062H50.7542C50.4462 15.9969 50.0779 15.6357 49.6632 15.3342V11.8016L53.33 8.13477H60.6908C61.6237 9.4176 63.1351 10.2539 64.839 10.2539C67.6661 10.2539 69.966 7.95402 69.966 5.12695C69.966 2.29988 67.6659 0 64.8389 0C63.1963 0 61.7328 0.777246 60.7939 1.98242H52.0557C51.234 1.98242 50.4615 2.30234 49.8805 2.8834L44.4117 8.35215C43.8307 8.9332 43.5107 9.70566 43.5107 10.5273V15.4375C41.9671 16.6199 41.1143 18.8543 41.738 20.9311L37.7964 26.2175C36.9039 25.9291 35.9531 25.7716 34.9658 25.7716C29.8771 25.7716 25.7373 29.9115 25.7373 35.0001C25.7373 40.0888 29.8771 44.2287 34.9658 44.2287C35.9364 44.2287 36.872 44.0772 37.7513 43.798L41.732 49.09C41.6002 49.5435 41.5283 50.0221 41.5283 50.5176C41.5283 52.1601 42.3056 53.6237 43.5107 54.5625V59.4727C43.5107 60.2943 43.8307 61.0668 44.4117 61.6479L49.8805 67.1166C50.4615 67.6977 51.234 68.0176 52.0557 68.0176H60.7939C61.7329 69.2228 63.1963 70 64.8389 70C67.6659 70 69.9658 67.7001 69.9658 64.873C69.9658 62.046 67.6659 59.7461 64.8389 59.7461C63.1349 59.7461 61.6234 60.5824 60.6907 61.8652H53.3299L49.6631 58.1984V54.6658C50.0776 54.3643 50.4461 54.0031 50.7541 53.5938H60.7402C61.6764 54.8382 63.1652 55.6445 64.839 55.6445C67.6661 55.6445 69.966 53.3447 69.966 50.5176C69.966 47.6905 67.6661 45.3906 64.839 45.3906C63.1652 45.3906 61.6764 46.197 60.7402 47.4415C60.7392 47.4415 60.7384 47.4414 60.7374 47.4414H50.7542C49.818 46.197 48.3293 45.3906 46.6554 45.3906C46.6531 45.3906 46.6506 45.3908 46.6483 45.3908L42.6598 40.0884C43.0727 39.4662 43.4118 38.7913 43.6654 38.0762H60.7374C60.7384 38.0762 60.7392 38.076 60.7402 38.076C61.6764 39.3206 63.1653 40.127 64.839 40.127C67.6661 40.127 69.966 37.8271 69.966 35C69.966 32.1729 67.6661 29.873 64.839 29.873C63.1652 29.873 61.6764 30.6794 60.7402 31.924C60.7392 31.924 60.7384 31.9238 60.7374 31.9238H54.7857C54.2194 31.9238 53.7603 32.3829 53.7603 32.9492C53.7603 33.5155 54.2194 33.9746 54.7857 33.9746H59.8151C59.7142 34.5019 59.6556 35.197 59.8151 36.0254H44.136C44.1924 35.4888 44.2261 34.8115 44.136 33.9746H49.8682C50.4345 33.9746 50.8936 33.5155 50.8936 32.9492C50.8936 32.3829 50.4345 31.9238 49.8682 31.9238H43.6652C43.4171 31.2241 43.0866 30.5635 42.6858 29.9525L46.6699 24.6091C48.3377 24.6043 49.8204 23.7993 50.7541 22.5586ZM64.8389 16.4062C66.5351 16.4062 67.915 17.7862 67.915 19.4824C67.915 21.1787 66.5351 22.5586 64.8389 22.5586C63.1426 22.5586 61.7627 21.1787 61.7627 19.4824C61.7627 17.7862 63.1426 16.4062 64.8389 16.4062ZM51.679 18.457H59.815C59.7141 18.9844 59.6554 19.6794 59.815 20.5078H51.679C51.7465 20.1764 51.7822 19.8335 51.7822 19.4824C51.7822 19.1313 51.7465 18.7884 51.679 18.457ZM64.8389 2.05078C66.5351 2.05078 67.915 3.43068 67.915 5.12695C67.915 6.82322 66.5351 8.20312 64.8389 8.20312C63.1426 8.20312 61.7627 6.82322 61.7627 5.12695C61.7627 3.43068 63.1426 2.05078 64.8389 2.05078ZM64.8389 61.7969C66.5351 61.7969 67.915 63.1768 67.915 64.873C67.915 66.5693 66.5351 67.9492 64.8389 67.9492C63.1426 67.9492 61.7627 66.5693 61.7627 64.873C61.7627 63.1768 63.1426 61.7969 64.8389 61.7969ZM64.8389 47.4414C66.5351 47.4414 67.915 48.8213 67.915 50.5176C67.915 52.2138 66.5351 53.5938 64.8389 53.5938C63.1426 53.5938 61.7627 52.2138 61.7627 50.5176C61.7627 48.8213 63.1426 47.4414 64.8389 47.4414ZM51.679 49.4922H59.815C59.7141 50.0195 59.6554 50.7146 59.815 51.543H51.679C51.7799 51.0156 51.8386 50.3206 51.679 49.4922ZM64.8389 31.9238C66.5351 31.9238 67.915 33.3037 67.915 35C67.915 36.6963 66.5351 38.0762 64.8389 38.0762C63.1426 38.0762 61.7627 36.6963 61.7627 35C61.7627 33.3037 63.1426 31.9238 64.8389 31.9238ZM45.5615 10.5273C45.5615 10.2535 45.6682 9.99605 45.8619 9.80232L51.3306 4.33357C51.5244 4.13984 51.7818 4.0332 52.0557 4.0332H59.8306C59.7536 4.3858 59.7119 4.75152 59.7119 5.12695C59.7119 5.45412 59.744 5.77377 59.8028 6.08398H52.9051C52.6332 6.08398 52.3723 6.19199 52.1801 6.38436L47.9127 10.6518C47.7203 10.844 47.6123 11.1048 47.6123 11.3768V14.4464C47.0654 14.349 46.4054 14.3031 45.5615 14.4741V10.5273ZM34.9658 42.1777C31.0079 42.1777 27.7881 38.9579 27.7881 35C27.7881 31.0421 31.0079 27.8223 34.9658 27.8223C38.9237 27.8223 42.1436 31.0421 42.1436 35C42.1436 38.9579 38.9237 42.1777 34.9658 42.1777ZM52.1801 63.6156C52.3723 63.808 52.6332 63.916 52.9051 63.916H59.8028C59.7055 64.4629 59.6596 65.123 59.8306 65.9668H52.0557C51.7818 65.9668 51.5242 65.8602 51.3306 65.6664L45.8619 60.1977C45.6682 60.0039 45.5615 59.7465 45.5615 59.4727V55.5259C46.0694 55.6324 46.8137 55.7037 47.6123 55.5536V58.6232C47.6123 58.8952 47.7203 59.156 47.9127 59.3482L52.1801 63.6156ZM46.6553 47.4414C48.3515 47.4414 49.7314 48.8213 49.7314 50.5176C49.7314 52.2138 48.3515 53.5938 46.6553 53.5938C44.959 53.5938 43.5791 52.2138 43.5791 50.5176C43.5791 48.8213 44.959 47.4414 46.6553 47.4414ZM44.4556 45.8875C43.8294 46.1862 43.2735 46.6085 42.8183 47.1224L39.6691 42.9358C40.26 42.5843 40.8078 42.1682 41.3042 41.6981L44.4556 45.8875ZM41.3358 28.3321C40.8414 27.8596 40.2961 27.4403 39.7068 27.0859L42.8325 22.894C43.2898 23.4058 43.8478 23.8254 44.4754 24.1214L41.3358 28.3321ZM43.5791 19.4824C43.5791 17.7862 44.959 16.4062 46.6553 16.4062C48.3515 16.4062 49.7314 17.7862 49.7314 19.4824C49.7314 21.1787 48.3515 22.5586 46.6553 22.5586C44.959 22.5586 43.5791 21.1787 43.5791 19.4824Z"/>
</mask>
<path d="M50.7541 22.5586H60.7402C61.6764 23.803 63.1652 24.6094 64.839 24.6094C67.6661 24.6094 69.966 22.3095 69.966 19.4824C69.966 16.6554 67.6661 14.3555 64.839 14.3555C63.1652 14.3555 61.6764 15.1618 60.7402 16.4064C60.7392 16.4064 60.7384 16.4062 60.7374 16.4062H50.7542C50.4462 15.9969 50.0779 15.6357 49.6632 15.3342V11.8016L53.33 8.13477H60.6908C61.6237 9.4176 63.1351 10.2539 64.839 10.2539C67.6661 10.2539 69.966 7.95402 69.966 5.12695C69.966 2.29988 67.6659 0 64.8389 0C63.1963 0 61.7328 0.777246 60.7939 1.98242H52.0557C51.234 1.98242 50.4615 2.30234 49.8805 2.8834L44.4117 8.35215C43.8307 8.9332 43.5107 9.70566 43.5107 10.5273V15.4375C41.9671 16.6199 41.1143 18.8543 41.738 20.9311L37.7964 26.2175C36.9039 25.9291 35.9531 25.7716 34.9658 25.7716C29.8771 25.7716 25.7373 29.9115 25.7373 35.0001C25.7373 40.0888 29.8771 44.2287 34.9658 44.2287C35.9364 44.2287 36.872 44.0772 37.7513 43.798L41.732 49.09C41.6002 49.5435 41.5283 50.0221 41.5283 50.5176C41.5283 52.1601 42.3056 53.6237 43.5107 54.5625V59.4727C43.5107 60.2943 43.8307 61.0668 44.4117 61.6479L49.8805 67.1166C50.4615 67.6977 51.234 68.0176 52.0557 68.0176H60.7939C61.7329 69.2228 63.1963 70 64.8389 70C67.6659 70 69.9658 67.7001 69.9658 64.873C69.9658 62.046 67.6659 59.7461 64.8389 59.7461C63.1349 59.7461 61.6234 60.5824 60.6907 61.8652H53.3299L49.6631 58.1984V54.6658C50.0776 54.3643 50.4461 54.0031 50.7541 53.5938H60.7402C61.6764 54.8382 63.1652 55.6445 64.839 55.6445C67.6661 55.6445 69.966 53.3447 69.966 50.5176C69.966 47.6905 67.6661 45.3906 64.839 45.3906C63.1652 45.3906 61.6764 46.197 60.7402 47.4415C60.7392 47.4415 60.7384 47.4414 60.7374 47.4414H50.7542C49.818 46.197 48.3293 45.3906 46.6554 45.3906C46.6531 45.3906 46.6506 45.3908 46.6483 45.3908L42.6598 40.0884C43.0727 39.4662 43.4118 38.7913 43.6654 38.0762H60.7374C60.7384 38.0762 60.7392 38.076 60.7402 38.076C61.6764 39.3206 63.1653 40.127 64.839 40.127C67.6661 40.127 69.966 37.8271 69.966 35C69.966 32.1729 67.6661 29.873 64.839 29.873C63.1652 29.873 61.6764 30.6794 60.7402 31.924C60.7392 31.924 60.7384 31.9238 60.7374 31.9238H54.7857C54.2194 31.9238 53.7603 32.3829 53.7603 32.9492C53.7603 33.5155 54.2194 33.9746 54.7857 33.9746H59.8151C59.7142 34.5019 59.6556 35.197 59.8151 36.0254H44.136C44.1924 35.4888 44.2261 34.8115 44.136 33.9746H49.8682C50.4345 33.9746 50.8936 33.5155 50.8936 32.9492C50.8936 32.3829 50.4345 31.9238 49.8682 31.9238H43.6652C43.4171 31.2241 43.0866 30.5635 42.6858 29.9525L46.6699 24.6091C48.3377 24.6043 49.8204 23.7993 50.7541 22.5586ZM64.8389 16.4062C66.5351 16.4062 67.915 17.7862 67.915 19.4824C67.915 21.1787 66.5351 22.5586 64.8389 22.5586C63.1426 22.5586 61.7627 21.1787 61.7627 19.4824C61.7627 17.7862 63.1426 16.4062 64.8389 16.4062ZM51.679 18.457H59.815C59.7141 18.9844 59.6554 19.6794 59.815 20.5078H51.679C51.7465 20.1764 51.7822 19.8335 51.7822 19.4824C51.7822 19.1313 51.7465 18.7884 51.679 18.457ZM64.8389 2.05078C66.5351 2.05078 67.915 3.43068 67.915 5.12695C67.915 6.82322 66.5351 8.20312 64.8389 8.20312C63.1426 8.20312 61.7627 6.82322 61.7627 5.12695C61.7627 3.43068 63.1426 2.05078 64.8389 2.05078ZM64.8389 61.7969C66.5351 61.7969 67.915 63.1768 67.915 64.873C67.915 66.5693 66.5351 67.9492 64.8389 67.9492C63.1426 67.9492 61.7627 66.5693 61.7627 64.873C61.7627 63.1768 63.1426 61.7969 64.8389 61.7969ZM64.8389 47.4414C66.5351 47.4414 67.915 48.8213 67.915 50.5176C67.915 52.2138 66.5351 53.5938 64.8389 53.5938C63.1426 53.5938 61.7627 52.2138 61.7627 50.5176C61.7627 48.8213 63.1426 47.4414 64.8389 47.4414ZM51.679 49.4922H59.815C59.7141 50.0195 59.6554 50.7146 59.815 51.543H51.679C51.7799 51.0156 51.8386 50.3206 51.679 49.4922ZM64.8389 31.9238C66.5351 31.9238 67.915 33.3037 67.915 35C67.915 36.6963 66.5351 38.0762 64.8389 38.0762C63.1426 38.0762 61.7627 36.6963 61.7627 35C61.7627 33.3037 63.1426 31.9238 64.8389 31.9238ZM45.5615 10.5273C45.5615 10.2535 45.6682 9.99605 45.8619 9.80232L51.3306 4.33357C51.5244 4.13984 51.7818 4.0332 52.0557 4.0332H59.8306C59.7536 4.3858 59.7119 4.75152 59.7119 5.12695C59.7119 5.45412 59.744 5.77377 59.8028 6.08398H52.9051C52.6332 6.08398 52.3723 6.19199 52.1801 6.38436L47.9127 10.6518C47.7203 10.844 47.6123 11.1048 47.6123 11.3768V14.4464C47.0654 14.349 46.4054 14.3031 45.5615 14.4741V10.5273ZM34.9658 42.1777C31.0079 42.1777 27.7881 38.9579 27.7881 35C27.7881 31.0421 31.0079 27.8223 34.9658 27.8223C38.9237 27.8223 42.1436 31.0421 42.1436 35C42.1436 38.9579 38.9237 42.1777 34.9658 42.1777ZM52.1801 63.6156C52.3723 63.808 52.6332 63.916 52.9051 63.916H59.8028C59.7055 64.4629 59.6596 65.123 59.8306 65.9668H52.0557C51.7818 65.9668 51.5242 65.8602 51.3306 65.6664L45.8619 60.1977C45.6682 60.0039 45.5615 59.7465 45.5615 59.4727V55.5259C46.0694 55.6324 46.8137 55.7037 47.6123 55.5536V58.6232C47.6123 58.8952 47.7203 59.156 47.9127 59.3482L52.1801 63.6156ZM46.6553 47.4414C48.3515 47.4414 49.7314 48.8213 49.7314 50.5176C49.7314 52.2138 48.3515 53.5938 46.6553 53.5938C44.959 53.5938 43.5791 52.2138 43.5791 50.5176C43.5791 48.8213 44.959 47.4414 46.6553 47.4414ZM44.4556 45.8875C43.8294 46.1862 43.2735 46.6085 42.8183 47.1224L39.6691 42.9358C40.26 42.5843 40.8078 42.1682 41.3042 41.6981L44.4556 45.8875ZM41.3358 28.3321C40.8414 27.8596 40.2961 27.4403 39.7068 27.0859L42.8325 22.894C43.2898 23.4058 43.8478 23.8254 44.4754 24.1214L41.3358 28.3321ZM43.5791 19.4824C43.5791 17.7862 44.959 16.4062 46.6553 16.4062C48.3515 16.4062 49.7314 17.7862 49.7314 19.4824C49.7314 21.1787 48.3515 22.5586 46.6553 22.5586C44.959 22.5586 43.5791 21.1787 43.5791 19.4824Z" fill="#7DC6E9"/>
<path d="M50.7541 22.5586H60.7402C61.6764 23.803 63.1652 24.6094 64.839 24.6094C67.6661 24.6094 69.966 22.3095 69.966 19.4824C69.966 16.6554 67.6661 14.3555 64.839 14.3555C63.1652 14.3555 61.6764 15.1618 60.7402 16.4064C60.7392 16.4064 60.7384 16.4062 60.7374 16.4062H50.7542C50.4462 15.9969 50.0779 15.6357 49.6632 15.3342V11.8016L53.33 8.13477H60.6908C61.6237 9.4176 63.1351 10.2539 64.839 10.2539C67.6661 10.2539 69.966 7.95402 69.966 5.12695C69.966 2.29988 67.6659 0 64.8389 0C63.1963 0 61.7328 0.777246 60.7939 1.98242H52.0557C51.234 1.98242 50.4615 2.30234 49.8805 2.8834L44.4117 8.35215C43.8307 8.9332 43.5107 9.70566 43.5107 10.5273V15.4375C41.9671 16.6199 41.1143 18.8543 41.738 20.9311L37.7964 26.2175C36.9039 25.9291 35.9531 25.7716 34.9658 25.7716C29.8771 25.7716 25.7373 29.9115 25.7373 35.0001C25.7373 40.0888 29.8771 44.2287 34.9658 44.2287C35.9364 44.2287 36.872 44.0772 37.7513 43.798L41.732 49.09C41.6002 49.5435 41.5283 50.0221 41.5283 50.5176C41.5283 52.1601 42.3056 53.6237 43.5107 54.5625V59.4727C43.5107 60.2943 43.8307 61.0668 44.4117 61.6479L49.8805 67.1166C50.4615 67.6977 51.234 68.0176 52.0557 68.0176H60.7939C61.7329 69.2228 63.1963 70 64.8389 70C67.6659 70 69.9658 67.7001 69.9658 64.873C69.9658 62.046 67.6659 59.7461 64.8389 59.7461C63.1349 59.7461 61.6234 60.5824 60.6907 61.8652H53.3299L49.6631 58.1984V54.6658C50.0776 54.3643 50.4461 54.0031 50.7541 53.5938H60.7402C61.6764 54.8382 63.1652 55.6445 64.839 55.6445C67.6661 55.6445 69.966 53.3447 69.966 50.5176C69.966 47.6905 67.6661 45.3906 64.839 45.3906C63.1652 45.3906 61.6764 46.197 60.7402 47.4415C60.7392 47.4415 60.7384 47.4414 60.7374 47.4414H50.7542C49.818 46.197 48.3293 45.3906 46.6554 45.3906C46.6531 45.3906 46.6506 45.3908 46.6483 45.3908L42.6598 40.0884C43.0727 39.4662 43.4118 38.7913 43.6654 38.0762H60.7374C60.7384 38.0762 60.7392 38.076 60.7402 38.076C61.6764 39.3206 63.1653 40.127 64.839 40.127C67.6661 40.127 69.966 37.8271 69.966 35C69.966 32.1729 67.6661 29.873 64.839 29.873C63.1652 29.873 61.6764 30.6794 60.7402 31.924C60.7392 31.924 60.7384 31.9238 60.7374 31.9238H54.7857C54.2194 31.9238 53.7603 32.3829 53.7603 32.9492C53.7603 33.5155 54.2194 33.9746 54.7857 33.9746H59.8151C59.7142 34.5019 59.6556 35.197 59.8151 36.0254H44.136C44.1924 35.4888 44.2261 34.8115 44.136 33.9746H49.8682C50.4345 33.9746 50.8936 33.5155 50.8936 32.9492C50.8936 32.3829 50.4345 31.9238 49.8682 31.9238H43.6652C43.4171 31.2241 43.0866 30.5635 42.6858 29.9525L46.6699 24.6091C48.3377 24.6043 49.8204 23.7993 50.7541 22.5586ZM64.8389 16.4062C66.5351 16.4062 67.915 17.7862 67.915 19.4824C67.915 21.1787 66.5351 22.5586 64.8389 22.5586C63.1426 22.5586 61.7627 21.1787 61.7627 19.4824C61.7627 17.7862 63.1426 16.4062 64.8389 16.4062ZM51.679 18.457H59.815C59.7141 18.9844 59.6554 19.6794 59.815 20.5078H51.679C51.7465 20.1764 51.7822 19.8335 51.7822 19.4824C51.7822 19.1313 51.7465 18.7884 51.679 18.457ZM64.8389 2.05078C66.5351 2.05078 67.915 3.43068 67.915 5.12695C67.915 6.82322 66.5351 8.20312 64.8389 8.20312C63.1426 8.20312 61.7627 6.82322 61.7627 5.12695C61.7627 3.43068 63.1426 2.05078 64.8389 2.05078ZM64.8389 61.7969C66.5351 61.7969 67.915 63.1768 67.915 64.873C67.915 66.5693 66.5351 67.9492 64.8389 67.9492C63.1426 67.9492 61.7627 66.5693 61.7627 64.873C61.7627 63.1768 63.1426 61.7969 64.8389 61.7969ZM64.8389 47.4414C66.5351 47.4414 67.915 48.8213 67.915 50.5176C67.915 52.2138 66.5351 53.5938 64.8389 53.5938C63.1426 53.5938 61.7627 52.2138 61.7627 50.5176C61.7627 48.8213 63.1426 47.4414 64.8389 47.4414ZM51.679 49.4922H59.815C59.7141 50.0195 59.6554 50.7146 59.815 51.543H51.679C51.7799 51.0156 51.8386 50.3206 51.679 49.4922ZM64.8389 31.9238C66.5351 31.9238 67.915 33.3037 67.915 35C67.915 36.6963 66.5351 38.0762 64.8389 38.0762C63.1426 38.0762 61.7627 36.6963 61.7627 35C61.7627 33.3037 63.1426 31.9238 64.8389 31.9238ZM45.5615 10.5273C45.5615 10.2535 45.6682 9.99605 45.8619 9.80232L51.3306 4.33357C51.5244 4.13984 51.7818 4.0332 52.0557 4.0332H59.8306C59.7536 4.3858 59.7119 4.75152 59.7119 5.12695C59.7119 5.45412 59.744 5.77377 59.8028 6.08398H52.9051C52.6332 6.08398 52.3723 6.19199 52.1801 6.38436L47.9127 10.6518C47.7203 10.844 47.6123 11.1048 47.6123 11.3768V14.4464C47.0654 14.349 46.4054 14.3031 45.5615 14.4741V10.5273ZM34.9658 42.1777C31.0079 42.1777 27.7881 38.9579 27.7881 35C27.7881 31.0421 31.0079 27.8223 34.9658 27.8223C38.9237 27.8223 42.1436 31.0421 42.1436 35C42.1436 38.9579 38.9237 42.1777 34.9658 42.1777ZM52.1801 63.6156C52.3723 63.808 52.6332 63.916 52.9051 63.916H59.8028C59.7055 64.4629 59.6596 65.123 59.8306 65.9668H52.0557C51.7818 65.9668 51.5242 65.8602 51.3306 65.6664L45.8619 60.1977C45.6682 60.0039 45.5615 59.7465 45.5615 59.4727V55.5259C46.0694 55.6324 46.8137 55.7037 47.6123 55.5536V58.6232C47.6123 58.8952 47.7203 59.156 47.9127 59.3482L52.1801 63.6156ZM46.6553 47.4414C48.3515 47.4414 49.7314 48.8213 49.7314 50.5176C49.7314 52.2138 48.3515 53.5938 46.6553 53.5938C44.959 53.5938 43.5791 52.2138 43.5791 50.5176C43.5791 48.8213 44.959 47.4414 46.6553 47.4414ZM44.4556 45.8875C43.8294 46.1862 43.2735 46.6085 42.8183 47.1224L39.6691 42.9358C40.26 42.5843 40.8078 42.1682 41.3042 41.6981L44.4556 45.8875ZM41.3358 28.3321C40.8414 27.8596 40.2961 27.4403 39.7068 27.0859L42.8325 22.894C43.2898 23.4058 43.8478 23.8254 44.4754 24.1214L41.3358 28.3321ZM43.5791 19.4824C43.5791 17.7862 44.959 16.4062 46.6553 16.4062C48.3515 16.4062 49.7314 17.7862 49.7314 19.4824C49.7314 21.1787 48.3515 22.5586 46.6553 22.5586C44.959 22.5586 43.5791 21.1787 43.5791 19.4824Z" stroke="#7DC6E9" stroke-width="0.5" mask="url(#path-1-outside-1_612_1399)"/>
<path d="M14.472 61.0349L14.5603 60.9466C14.8624 61.2486 15.2633 61.4147 15.6905 61.4147C16.1177 61.4147 16.5186 61.2486 16.8206 60.9467L18.9151 58.8522C20.1055 57.6617 21.9179 57.3714 23.4243 58.1293C24.5403 58.6905 25.708 59.1743 26.8947 59.5674C26.8947 59.5674 26.8947 59.5674 26.8947 59.5674L26.8554 59.6861C28.4018 60.1977 29.441 61.6366 29.441 63.2666V66.2266C29.441 67.1765 30.2138 67.9492 31.1637 67.9492H32.5049C33.0712 67.9492 33.5304 68.4083 33.5304 68.9746C33.5304 69.5409 33.0713 70 32.505 70H31.1638C29.0831 70 27.3904 68.3073 27.3904 66.2266V63.2666C27.3904 62.5229 26.9165 61.8663 26.211 61.6329L14.472 61.0349ZM14.472 61.0349L14.5603 60.9465L9.08673 55.4742M14.472 61.0349L9.08673 55.4742M11.1823 51.1191L11.1823 51.1191L9.08604 53.2138L11.1823 51.1191ZM11.1823 51.1191C12.3728 49.9284 12.663 48.1162 11.9052 46.61C11.3438 45.4939 10.8598 44.3262 10.4669 43.1398C9.93823 41.5419 8.45141 40.4682 6.76758 40.4682H3.80762C2.92673 40.4682 2.20996 39.7514 2.20996 38.8705V31.1295C2.20996 30.2486 2.92673 29.5318 3.80762 29.5318H6.76758C8.45139 29.5318 9.93821 28.4581 10.4668 26.8605C10.8598 25.6738 11.3437 24.5062 11.9049 23.3901C12.6628 21.8837 12.3727 20.0714 11.1817 18.8806L11.1817 18.8806M11.1823 51.1191L11.1817 18.8806M11.1817 18.8806L9.08673 16.7869L11.1817 18.8806ZM18.9151 11.148L18.9151 11.1479L16.8203 9.05184C16.198 8.43005 15.1835 8.42995 14.56 9.05255L9.08631 14.5262C8.46437 15.1489 8.46429 16.1634 9.08664 16.7868L18.9151 11.148ZM18.9151 11.148C20.1057 12.3383 21.9181 12.6289 23.4242 11.8708C24.5403 11.3095 25.708 10.8255 26.8944 10.4327C28.4923 9.90405 29.566 8.41723 29.566 6.7334V3.77344C29.566 2.89255 30.2828 2.17578 31.1637 2.17578H38.768C39.5531 2.17578 40.2327 2.76067 40.348 3.53495L40.4716 3.51654L40.348 3.53497C40.3525 3.5655 40.3489 3.60199 40.334 3.64037L40.334 3.64045M18.9151 11.148L40.334 3.64045M40.334 3.64045L39.2945 6.32875C39.0654 6.9214 39.36 7.58757 39.9526 7.81659L39.9976 7.7M40.334 3.64045L39.9976 7.7M39.9976 7.7L39.9526 7.8166C40.5452 8.04558 41.2114 7.75113 41.4404 7.15854L42.4799 4.47026C42.6374 4.06289 42.6871 3.62225 42.6236 3.19571C42.3416 1.30191 40.6845 -0.125 38.768 -0.125H31.1637C29.0139 -0.125 27.2652 1.62368 27.2652 3.77344V6.7334C27.2652 7.42331 26.8259 8.03195 26.1714 8.24852L26.1713 8.24853M39.9976 7.7L26.1713 8.24853M26.1713 8.24853C24.8785 8.67673 23.6064 9.20393 22.3902 9.81547L22.3902 9.81549M26.1713 8.24853L22.3902 9.81549M22.3902 9.81549C21.7716 10.1268 21.0292 10.0081 20.5422 9.52133C20.5422 9.52131 20.5422 9.5213 20.5422 9.52129L18.447 7.42475L18.4469 7.42466M22.3902 9.81549L18.4469 7.42466M18.4469 7.42466C16.9269 5.9066 14.454 5.90661 12.9337 7.42507L12.9337 7.42513M18.4469 7.42466L12.9337 7.42513M12.9337 7.42513L7.4589 12.8999L7.45884 12.9M12.9337 7.42513L7.45884 12.9M7.45884 12.9C5.94077 14.42 5.9408 16.8927 7.45952 18.4134L7.45961 18.4135M7.45884 12.9L7.45961 18.4135M7.45961 18.4135L9.55521 20.5077C9.55521 20.5078 9.55522 20.5078 9.55523 20.5078C10.0423 20.9948 10.1609 21.7374 9.84966 22.3561L9.84965 22.3561M7.45961 18.4135L9.84965 22.3561M9.84965 22.3561C9.23811 23.5722 8.71091 24.8443 8.28257 26.1374L8.28256 26.1375M9.84965 22.3561L8.28256 26.1375M8.28256 26.1375C8.06613 26.7917 7.4575 27.2311 6.76758 27.2311H3.80762C1.65786 27.2311 -0.0908203 28.9797 -0.0908203 31.1295V38.8705C-0.0908203 41.0203 1.65786 42.7689 3.80762 42.7689H6.76758C7.45749 42.7689 8.06613 43.2083 8.28269 43.8628L8.28271 43.8629M8.28256 26.1375L8.28271 43.8629M8.28271 43.8629C8.71091 45.1557 9.23811 46.4278 9.84965 47.644L9.84967 47.644M8.28271 43.8629L9.84967 47.644M9.84967 47.644C10.1609 48.2626 10.0423 49.005 9.55551 49.492C9.55549 49.492 9.55548 49.492 9.55547 49.492L7.45893 51.5872L7.45884 51.5873M9.84967 47.644L7.45884 51.5873M7.45884 51.5873C5.94077 53.1073 5.9408 55.58 7.45939 57.1006L7.45946 57.1007M7.45884 51.5873L7.45946 57.1007M7.45946 57.1007L12.9337 62.5734C14.4538 64.0937 16.9271 64.0937 18.4475 62.5734L18.3591 62.485L7.45946 57.1007ZM9.08673 55.4742C8.4643 54.8509 8.46435 53.8364 9.08595 53.2139L9.08673 55.4742Z" fill="#7DC6E9" stroke="#7DC6E9" stroke-width="0.25"/>
<path d="M35.6737 54.208L34.2169 50.4103L34.2169 50.4103C34.1866 50.3313 34.1132 50.2778 34.0318 50.2728C34.0318 50.2728 34.0318 50.2728 34.0317 50.2728L34.0393 50.1481C26.0107 49.6663 19.7217 42.9825 19.7217 34.9317C19.7217 26.8795 26.012 20.1954 34.0423 19.7151L35.6737 54.208ZM35.6737 54.208C31.2023 54.3978 26.5406 52.8998 23.0165 50.056L23.0158 50.0554C22.5184 49.66 21.7947 49.7426 21.3994 50.2401C21.004 50.7374 21.0868 51.461 21.5839 51.8563C25.7993 55.2226 31.0985 56.8488 36.5392 56.4645L40.3345 66.3588C40.349 66.3967 40.3527 66.4334 40.3481 66.4644L40.3481 66.4645C40.2332 67.239 39.5536 67.8242 38.768 67.8242H37.29C36.6547 67.8242 36.1396 68.3393 36.1396 68.9746C36.1396 69.61 36.6547 70.125 37.29 70.125H38.768C40.6856 70.125 42.343 68.6971 42.624 66.8019L42.5004 66.7836L42.624 66.8019C42.687 66.3773 42.638 65.9392 42.4826 65.5345C42.4826 65.5344 42.4826 65.5344 42.4826 65.5344L36.3651 49.5862C36.0125 48.667 35.1509 48.035 34.1695 47.9762C27.2882 47.5632 21.8973 41.8334 21.8973 34.9317C21.8973 28.0287 27.2892 22.2987 34.172 21.887C35.1505 21.8284 36.0112 21.1989 36.3652 20.2833L39.7135 11.6245C39.9426 11.032 39.648 10.3657 39.0554 10.1367C38.4629 9.90752 37.7966 10.2022 37.5676 10.7947L36.5082 13.5345C35.9964 13.4981 35.4792 13.4787 34.9658 13.4787C23.0988 13.4787 13.4443 23.1331 13.4443 35.0002C13.4443 39.8589 15.0248 44.4452 18.0145 48.2616C18.2414 48.5514 18.5797 48.7026 18.9208 48.7026C19.1689 48.7026 19.4191 48.6226 19.6295 48.4578C20.1297 48.0659 20.2174 47.3428 19.8257 46.8428C17.156 43.4347 15.7451 39.34 15.7451 35C15.7451 24.4019 24.3676 15.7793 34.9658 15.7793C35.1885 15.7793 35.4121 15.7833 35.6357 15.7909L34.2194 19.4535C34.1889 19.5324 34.1157 19.5855 34.0347 19.5904L35.6737 54.208Z" fill="#7DC6E9" stroke="#7DC6E9" stroke-width="0.25"/>
</g>
<defs>
<clipPath id="clip0_612_1399">
<rect width="70" height="70" fill="white"/>
</clipPath>
</defs>
</svg>
