<svg width="60" height="60" viewBox="0 0 60 60" fill="none" xmlns="http://www.w3.org/2000/svg">
<path d="M27.2015 31.0847L31.0836 27.202C31.1599 27.1259 31.2203 27.0356 31.2616 26.9361C31.3029 26.8366 31.3241 26.7299 31.3241 26.6222C31.3241 26.5145 31.3029 26.4078 31.2616 26.3083C31.2203 26.2088 31.1599 26.1185 31.0836 26.0424L29.0155 23.9742C29.4406 23.1952 29.7814 22.373 30.0322 21.5217H32.9554C33.1729 21.5217 33.3816 21.4353 33.5354 21.2815C33.6892 21.1276 33.7757 20.919 33.7757 20.7014V15.2114C33.7757 14.9939 33.6892 14.7852 33.5354 14.6314C33.3816 14.4775 33.1729 14.3911 32.9554 14.3911H30.0388C29.7878 13.5386 29.4459 12.7156 29.0188 11.9363L31.0836 9.87095C31.1599 9.79481 31.2204 9.70438 31.2616 9.60485C31.3029 9.50532 31.3241 9.39862 31.3241 9.29087C31.3241 9.18312 31.3029 9.07643 31.2616 8.9769C31.2204 8.87736 31.1599 8.78694 31.0836 8.7108L27.2015 4.82814C27.1254 4.75192 27.035 4.69145 26.9355 4.65019C26.836 4.60893 26.7293 4.58769 26.6216 4.58769C26.5139 4.58769 26.4072 4.60893 26.3078 4.65019C26.2083 4.69145 26.1179 4.75192 26.0418 4.82814L23.9765 6.89392C23.1971 6.46686 22.3741 6.1249 21.5216 5.87392V2.95642C21.5217 2.84868 21.5005 2.74198 21.4593 2.64243C21.4181 2.54288 21.3577 2.45242 21.2815 2.37624C21.2053 2.30005 21.1148 2.23963 21.0153 2.19843C20.9157 2.15722 20.809 2.13605 20.7013 2.13611H15.2108C15.1031 2.13605 14.9964 2.15722 14.8968 2.19843C14.7973 2.23963 14.7068 2.30005 14.6306 2.37624C14.5545 2.45242 14.494 2.54288 14.4528 2.64243C14.4116 2.74198 14.3905 2.84868 14.3905 2.95642V5.87908C13.5394 6.13015 12.7174 6.47113 11.9385 6.89626L9.87083 4.82814C9.79469 4.7519 9.70426 4.69142 9.60473 4.65016C9.50519 4.60889 9.3985 4.58765 9.29075 4.58765C9.183 4.58765 9.07631 4.60889 8.97677 4.65016C8.87724 4.69142 8.78682 4.7519 8.71067 4.82814L4.82802 8.7108C4.75178 8.78694 4.6913 8.87736 4.65003 8.9769C4.60877 9.07643 4.58753 9.18312 4.58753 9.29087C4.58753 9.39862 4.60877 9.50532 4.65003 9.60485C4.6913 9.70438 4.75178 9.79481 4.82802 9.87095L6.89521 11.9386C6.47011 12.7177 6.12912 13.5398 5.87802 14.3911H2.9563C2.84856 14.391 2.74186 14.4122 2.64231 14.4534C2.54275 14.4946 2.4523 14.555 2.37611 14.6312C2.29993 14.7074 2.23951 14.7979 2.1983 14.8974C2.1571 14.997 2.13592 15.1037 2.13599 15.2114V20.7014C2.13592 20.8092 2.1571 20.9159 2.1983 21.0154C2.23951 21.115 2.29993 21.2054 2.37611 21.2816C2.4523 21.3578 2.54275 21.4182 2.64231 21.4594C2.74186 21.5006 2.84856 21.5218 2.9563 21.5217H5.87333C6.12443 22.3743 6.46656 23.1973 6.8938 23.9766L4.82802 26.0424C4.75179 26.1185 4.69132 26.2088 4.65007 26.3083C4.60881 26.4078 4.58757 26.5145 4.58757 26.6222C4.58757 26.7299 4.60881 26.8366 4.65007 26.9361C4.69132 27.0356 4.75179 27.1259 4.82802 27.202L8.70974 31.0847C8.8637 31.2383 9.07232 31.3246 9.28981 31.3246C9.50731 31.3246 9.71593 31.2383 9.86989 31.0847L11.9352 29.0189C12.7148 29.446 13.5379 29.7881 14.3905 30.0394V32.9569C14.3905 33.1744 14.4769 33.3831 14.6308 33.5369C14.7846 33.6908 14.9933 33.7772 15.2108 33.7772H20.7013C20.9189 33.7772 21.1275 33.6908 21.2813 33.5369C21.4352 33.3831 21.5216 33.1744 21.5216 32.9569V30.0338C22.3727 29.7827 23.1947 29.4417 23.9736 29.0166L26.0418 31.0847C26.1956 31.2384 26.4042 31.3248 26.6216 31.3248C26.8391 31.3248 27.0476 31.2384 27.2015 31.0847ZM24.6885 27.4111C24.5582 27.2806 24.3877 27.1978 24.2046 27.1762C24.0214 27.1546 23.8363 27.1954 23.6793 27.292C22.6992 27.8946 21.6296 28.3377 20.5105 28.6045C20.3314 28.6475 20.172 28.7495 20.0578 28.894C19.9436 29.0385 19.8814 29.2172 19.881 29.4014V32.1342H16.0311V29.4089C16.0309 29.2246 15.9685 29.0457 15.8541 28.9011C15.7398 28.7565 15.58 28.6547 15.4007 28.612C14.2817 28.3444 13.2127 27.8996 12.2343 27.2944C12.077 27.1974 11.8917 27.1563 11.7082 27.1778C11.5247 27.1992 11.3538 27.2819 11.2232 27.4125L9.29052 29.3438L6.56895 26.6213L8.50021 24.6895C8.63069 24.5589 8.71333 24.3881 8.73476 24.2047C8.7562 24.0214 8.71518 23.8361 8.61833 23.6789C8.01317 22.6999 7.56864 21.6302 7.30161 20.5106C7.25895 20.3313 7.15712 20.1715 7.01255 20.0572C6.86797 19.9428 6.68909 19.8804 6.50474 19.8802H3.77661V16.0313H6.50896C6.69316 16.031 6.8719 15.9687 7.01644 15.8545C7.16098 15.7404 7.26291 15.5809 7.30583 15.4017C7.57244 14.2828 8.01548 13.2135 8.61833 12.2339C8.71478 12.0766 8.75548 11.8914 8.73388 11.7082C8.71228 11.525 8.62964 11.3543 8.49927 11.2238L6.56895 9.29064L9.29052 6.56908L11.2236 8.5022C11.3541 8.63261 11.5247 8.71528 11.7078 8.73689C11.891 8.75849 12.0761 8.71776 12.2333 8.62126C13.2132 8.0187 14.2827 7.57567 15.4016 7.30876C15.5807 7.26577 15.7401 7.16382 15.8543 7.0193C15.9685 6.87477 16.0308 6.69607 16.0311 6.51189V3.77673H19.881V6.50439C19.8812 6.68874 19.9436 6.86763 20.058 7.0122C20.1724 7.15677 20.3321 7.2586 20.5115 7.30126C21.631 7.5682 22.7006 8.01257 23.6797 8.61752C23.8368 8.71477 24.0221 8.75604 24.2056 8.73459C24.3891 8.71314 24.56 8.63025 24.6904 8.49939L26.6216 6.56814L29.3436 9.29064L27.4124 11.2224C27.2819 11.3531 27.1993 11.524 27.1779 11.7074C27.1565 11.8909 27.1975 12.0762 27.2943 12.2335C27.8994 13.2123 28.3438 14.2818 28.6105 15.4013C28.6532 15.5806 28.755 15.7404 28.8996 15.8547C29.0442 15.9691 29.223 16.0315 29.4074 16.0317H32.135V19.8811H29.4022C29.218 19.8815 29.0392 19.9439 28.8947 20.0581C28.7502 20.1724 28.6483 20.3319 28.6054 20.5111C28.3385 21.6301 27.8955 22.6995 27.2929 23.6794C27.1962 23.8365 27.1554 24.0215 27.177 24.2047C27.1986 24.3878 27.2814 24.5583 27.4119 24.6886L29.3436 26.6222L26.6216 29.3438L24.6885 27.4111Z" fill="#7DC6E9"/>
<path d="M17.9563 10.8553C16.5519 10.8553 15.1789 11.2718 14.0112 12.0521C12.8434 12.8324 11.9332 13.9414 11.3958 15.239C10.8583 16.5365 10.7177 17.9643 10.9917 19.3418C11.2657 20.7193 11.942 21.9846 12.9351 22.9777C13.9282 23.9708 15.1935 24.6471 16.571 24.9211C17.9484 25.1951 19.3762 25.0545 20.6738 24.517C21.9713 23.9795 23.0804 23.0694 23.8607 21.9016C24.6409 20.7338 25.0574 19.3609 25.0574 17.9564C25.0553 16.0738 24.3065 14.2688 22.9752 12.9375C21.644 11.6063 19.839 10.8575 17.9563 10.8553ZM17.9563 23.4178C16.8764 23.4178 15.8207 23.0976 14.9227 22.4977C14.0248 21.8977 13.3249 21.0449 12.9116 20.0472C12.4983 19.0495 12.3901 17.9516 12.6007 16.8924C12.8113 15.8332 13.3313 14.8603 14.0949 14.0966C14.8584 13.3329 15.8313 12.8127 16.8905 12.6019C17.9496 12.3911 19.0475 12.4991 20.0453 12.9123C21.0431 13.3254 21.896 14.0252 22.4961 14.923C23.0962 15.8209 23.4166 16.8765 23.4168 17.9564C23.4151 19.4041 22.8392 20.792 21.8155 21.8157C20.7919 22.8393 19.404 23.4152 17.9563 23.4169V23.4178Z" fill="#7DC6E9"/>
<path d="M57.0435 38.4782H54.126C53.875 37.6257 53.533 36.8027 53.106 36.0234L55.1713 33.9576C55.2475 33.8815 55.308 33.7911 55.3492 33.6916C55.3905 33.5921 55.4117 33.4855 55.4117 33.3778C55.4117 33.2701 55.3905 33.1634 55.3492 33.0639C55.308 32.9644 55.2475 32.874 55.1713 32.7979L51.2891 28.9162C51.2129 28.84 51.1225 28.7795 51.023 28.7382C50.9234 28.697 50.8168 28.6757 50.709 28.6757C50.6013 28.6757 50.4946 28.697 50.395 28.7382C50.2955 28.7795 50.2051 28.84 50.1289 28.9162L48.0636 30.9811C47.2844 30.5541 46.4615 30.212 45.6092 29.9606V27.0431C45.6092 26.8255 45.5228 26.6169 45.369 26.463C45.2151 26.3092 45.0065 26.2228 44.7889 26.2228H39.2985C39.0809 26.2228 38.8722 26.3092 38.7184 26.463C38.5646 26.6169 38.4781 26.8255 38.4781 27.0431V29.9662C37.6268 30.2172 36.8047 30.5582 36.0256 30.9834L33.958 28.9162C33.8819 28.84 33.7915 28.7795 33.692 28.7383C33.5925 28.697 33.4859 28.6758 33.3781 28.6758C33.2704 28.6758 33.1638 28.697 33.0643 28.7383C32.9648 28.7795 32.8744 28.84 32.7983 28.9162L28.9156 32.7979C28.7619 32.9518 28.6756 33.1603 28.6756 33.3778C28.6756 33.5952 28.7619 33.8038 28.9156 33.9576L30.9842 36.0257C30.5589 36.8047 30.2181 37.6269 29.9675 38.4782H27.0435C26.8259 38.4782 26.6172 38.5647 26.4634 38.7185C26.3096 38.8723 26.2231 39.081 26.2231 39.2986V44.7886C26.2231 45.0061 26.3096 45.2148 26.4634 45.3686C26.6172 45.5224 26.8259 45.6089 27.0435 45.6089H29.961C30.2119 46.4614 30.5539 47.2844 30.981 48.0637L28.9156 50.129C28.7619 50.2829 28.6755 50.4916 28.6755 50.7091C28.6755 50.9266 28.7619 51.1353 28.9156 51.2892L32.7983 55.1718C32.8744 55.2481 32.9648 55.3085 33.0643 55.3498C33.1638 55.3911 33.2704 55.4123 33.3781 55.4123C33.4859 55.4123 33.5925 55.3911 33.692 55.3498C33.7915 55.3085 33.8819 55.2481 33.958 55.1718L36.0233 53.1093C36.8026 53.5365 37.6256 53.8784 38.4781 54.1293V57.0468C38.4781 57.1546 38.4993 57.2613 38.5405 57.3608C38.5817 57.4604 38.6421 57.5508 38.7183 57.627C38.7945 57.7032 38.8849 57.7636 38.9845 57.8048C39.084 57.846 39.1907 57.8672 39.2985 57.8672H44.7885C44.8962 57.8672 45.0029 57.846 45.1024 57.8048C45.202 57.7636 45.2925 57.7032 45.3686 57.627C45.4448 57.5508 45.5052 57.4604 45.5465 57.3608C45.5877 57.2613 45.6088 57.1546 45.6088 57.0468V54.1242C46.4601 53.8731 47.2823 53.5319 48.0613 53.1065L50.1289 55.1742C50.2051 55.2504 50.2955 55.3109 50.395 55.3522C50.4946 55.3934 50.6013 55.4147 50.709 55.4147C50.8168 55.4147 50.9234 55.3934 51.023 55.3522C51.1225 55.3109 51.2129 55.2504 51.2891 55.1742L55.1713 51.2925C55.2475 51.2163 55.308 51.1259 55.3493 51.0264C55.3905 50.9268 55.4118 50.8201 55.4118 50.7124C55.4118 50.6046 55.3905 50.4979 55.3493 50.3984C55.308 50.2989 55.2475 50.2085 55.1713 50.1323L53.1036 48.0642C53.5287 47.2853 53.8697 46.4633 54.1208 45.6122H57.0435C57.1512 45.6122 57.2579 45.591 57.3575 45.5498C57.457 45.5086 57.5475 45.4482 57.6236 45.372C57.6998 45.2958 57.7603 45.2054 57.8015 45.1058C57.8427 45.0063 57.8638 44.8996 57.8638 44.7918V39.2986C57.8638 39.1908 57.8427 39.0841 57.8015 38.9846C57.7603 38.885 57.6998 38.7946 57.6236 38.7184C57.5475 38.6422 57.457 38.5818 57.3575 38.5406C57.2579 38.4994 57.1512 38.4782 57.0435 38.4782ZM56.2231 43.9687H53.4908C53.3066 43.969 53.1279 44.0313 52.9833 44.1454C52.8388 44.2596 52.7368 44.4191 52.6939 44.5982C52.427 45.7172 51.984 46.7866 51.3814 47.7665C51.285 47.9238 51.2443 48.1089 51.2659 48.292C51.2875 48.4752 51.3701 48.6457 51.5005 48.7762L53.4341 50.7098L50.712 53.4314L48.7789 51.4982C48.6484 51.3681 48.4778 51.2855 48.2947 51.2639C48.1116 51.2423 47.9265 51.2829 47.7692 51.3792C46.7891 51.9817 45.7196 52.4247 44.6005 52.6917C44.4214 52.7346 44.2619 52.8365 44.1477 52.9811C44.0335 53.1256 43.9713 53.3044 43.971 53.4886V56.2209H40.1188V53.4932C40.1185 53.3089 40.0562 53.13 39.9418 52.9854C39.8274 52.8409 39.6676 52.739 39.4883 52.6964C38.3688 52.4294 37.2991 51.9851 36.32 51.3801C36.1629 51.2829 35.9776 51.2417 35.7941 51.2632C35.6107 51.2846 35.4398 51.3675 35.3094 51.4982L33.3781 53.4295L30.6561 50.7093L32.5874 48.7776C32.718 48.647 32.8008 48.4761 32.8222 48.2926C32.8437 48.1091 32.8025 47.9237 32.7055 47.7665C32.1007 46.7876 31.6565 45.7181 31.3897 44.5987C31.347 44.4194 31.2452 44.2596 31.1006 44.1452C30.9561 44.0309 30.7772 43.9685 30.5928 43.9682H27.8638V40.1189H30.5961C30.7804 40.1185 30.9591 40.0561 31.1036 39.9419C31.2482 39.8276 31.3501 39.668 31.393 39.4889C31.6598 38.3699 32.1029 37.3005 32.7055 36.3206C32.8021 36.1635 32.8429 35.9784 32.8213 35.7953C32.7997 35.6121 32.7169 35.4417 32.5864 35.3114L30.6561 33.3778L33.3781 30.6562L35.3113 32.5893C35.4415 32.72 35.612 32.8029 35.7952 32.8245C35.9783 32.8461 36.1635 32.8052 36.3205 32.7084C37.3005 32.1058 38.3701 31.6628 39.4892 31.3959C39.6683 31.3529 39.8278 31.251 39.9419 31.1064C40.0561 30.9619 40.1184 30.7832 40.1188 30.599V27.8662H43.9686V30.5939C43.9689 30.7782 44.0312 30.9571 44.1456 31.1017C44.26 31.2463 44.4197 31.3481 44.5991 31.3907C45.7185 31.658 46.7879 32.1025 47.7669 32.7075C47.9241 32.8047 48.1095 32.8459 48.293 32.8245C48.4766 32.803 48.6475 32.7202 48.778 32.5893L50.7092 30.6562L53.4313 33.3782L51.4995 35.31C51.369 35.4405 51.2863 35.6113 51.2649 35.7947C51.2434 35.9782 51.2845 36.1634 51.3814 36.3206C51.9863 37.2995 52.4305 38.369 52.6972 39.4884C52.7398 39.6678 52.8416 39.8277 52.9862 39.9422C53.1307 40.0566 53.3097 40.1191 53.4941 40.1193H56.2217L56.2231 43.9687Z" fill="#7DC6E9"/>
<path d="M42.0435 34.9425C40.639 34.9425 39.2661 35.359 38.0983 36.1393C36.9306 36.9195 36.0204 38.0286 35.4829 39.3261C34.9455 40.6237 34.8048 42.0515 35.0788 43.429C35.3528 44.8064 36.0291 46.0717 37.0222 47.0648C38.0154 48.0579 39.2806 48.7343 40.6581 49.0082C42.0356 49.2822 43.4634 49.1416 44.761 48.6042C46.0585 48.0667 47.1675 47.1565 47.9478 45.9888C48.7281 44.821 49.1446 43.4481 49.1446 42.0436C49.1425 40.1609 48.3936 38.356 47.0624 37.0247C45.7311 35.6934 43.9262 34.9446 42.0435 34.9425ZM42.0435 47.505C40.9635 47.505 39.9078 47.1848 39.0098 46.5848C38.1118 45.9847 37.412 45.1319 36.9987 44.1342C36.5854 43.1364 36.4772 42.0385 36.6879 40.9793C36.8986 39.92 37.4187 38.9471 38.1823 38.1834C38.946 37.4197 39.919 36.8997 40.9782 36.689C42.0374 36.4783 43.1353 36.5864 44.1331 36.9997C45.1309 37.413 45.9837 38.1129 46.5837 39.0109C47.1837 39.9088 47.504 40.9646 47.504 42.0445C47.5021 43.4921 46.9262 44.8798 45.9025 45.9033C44.8788 46.9268 43.491 47.5025 42.0435 47.5041V47.505Z" fill="#7DC6E9"/>
<path d="M35.9582 9.77679C40.7243 11.1799 44.8404 14.2238 47.578 18.3699C46.9215 18.9642 46.5063 19.7792 46.4116 20.6597C46.3169 21.5402 46.5492 22.4249 47.0643 23.1452C47.5794 23.8656 48.3414 24.3715 49.2053 24.5665C50.0691 24.7616 50.9745 24.6323 51.7492 24.2031C52.5239 23.774 53.1138 23.0751 53.4066 22.2393C53.6995 21.4035 53.6748 20.4892 53.3373 19.6704C52.9999 18.8516 52.3732 18.1855 51.5765 17.7988C50.7798 17.412 49.8687 17.3317 49.0166 17.573C46.0674 13.0502 41.6015 9.72781 36.4218 8.20319C36.3178 8.17043 36.2083 8.15873 36.0997 8.16877C35.9912 8.17881 35.8857 8.2104 35.7895 8.26169C35.6932 8.31297 35.6082 8.38292 35.5393 8.46745C35.4705 8.55198 35.4191 8.64939 35.3884 8.75399C35.3576 8.85859 35.3479 8.96828 35.36 9.07664C35.3721 9.185 35.4057 9.28986 35.4588 9.38509C35.5119 9.48032 35.5835 9.56401 35.6693 9.63126C35.7551 9.69852 35.853 9.74799 35.9582 9.77679ZM51.9374 21.0348C51.9374 21.4215 51.8227 21.7996 51.6078 22.1212C51.3929 22.4428 51.0875 22.6935 50.7302 22.8415C50.3728 22.9895 49.9796 23.0283 49.6003 22.9528C49.2209 22.8773 48.8724 22.6911 48.5989 22.4176C48.3254 22.1441 48.1392 21.7956 48.0637 21.4163C47.9883 21.0369 48.027 20.6437 48.175 20.2864C48.323 19.929 48.5737 19.6236 48.8953 19.4087C49.2169 19.1938 49.595 19.0791 49.9818 19.0791C50.5003 19.0796 50.9974 19.2858 51.3641 19.6525C51.7307 20.0191 51.9369 20.5162 51.9374 21.0348Z" fill="#7DC6E9"/>
<path d="M24.0417 50.2234C19.2764 48.8198 15.1612 45.7759 12.4242 41.6302C13.0808 41.0359 13.4959 40.2209 13.5906 39.3404C13.6853 38.4599 13.453 37.5753 12.9379 36.8549C12.4228 36.1345 11.6608 35.6287 10.797 35.4336C9.93312 35.2386 9.02771 35.3679 8.25302 35.797C7.47833 36.2261 6.88844 36.9251 6.59561 37.7609C6.30277 38.5967 6.32743 39.5109 6.66489 40.3297C7.00235 41.1485 7.62906 41.8146 8.42576 42.2014C9.22245 42.5881 10.1335 42.6685 10.9856 42.4271C13.9341 46.9496 18.3992 50.2719 23.5781 51.797C23.6534 51.8192 23.7316 51.8304 23.8101 51.8302C24.0072 51.8298 24.1974 51.7585 24.3462 51.6293C24.495 51.5001 24.5923 51.3217 24.6203 51.1267C24.6484 50.9317 24.6053 50.7331 24.4989 50.5672C24.3926 50.4013 24.2301 50.2793 24.0412 50.2234H24.0417ZM8.06248 38.9654C8.06266 38.5786 8.17752 38.2006 8.39251 37.8792C8.60751 37.5577 8.91301 37.3072 9.27037 37.1593C9.62773 37.0114 10.0209 36.9728 10.4002 37.0484C10.7795 37.124 11.1279 37.3103 11.4013 37.5838C11.6747 37.8574 11.8608 38.2058 11.9362 38.5851C12.0116 38.9645 11.9728 39.3576 11.8248 39.7149C11.6767 40.0722 11.4261 40.3776 11.1045 40.5924C10.7829 40.8073 10.4048 40.922 10.0181 40.922C9.49943 40.9215 9.00215 40.7151 8.63548 40.3483C8.26881 39.9814 8.06273 39.4841 8.06248 38.9654Z" fill="#7DC6E9"/>
</svg>
