<svg width="40" height="40" viewBox="0 0 40 40" fill="none" xmlns="http://www.w3.org/2000/svg">
<path d="M18.1344 20.7231L20.7225 18.1347C20.7733 18.084 20.8136 18.0237 20.8411 17.9574C20.8687 17.891 20.8828 17.8199 20.8828 17.7481C20.8828 17.6763 20.8687 17.6052 20.8411 17.5389C20.8136 17.4726 20.7733 17.4123 20.7225 17.3616L19.3438 15.9828C19.6272 15.4635 19.8544 14.9154 20.0216 14.3478H21.9703C22.1154 14.3478 22.2545 14.2902 22.357 14.1876C22.4596 14.0851 22.5172 13.946 22.5172 13.8009V10.1409C22.5172 9.99591 22.4596 9.85681 22.357 9.75425C22.2545 9.65169 22.1154 9.59407 21.9703 9.59407H20.0259C19.8586 9.02574 19.6307 8.47707 19.3459 7.95751L20.7225 6.58064C20.7733 6.52987 20.8137 6.46959 20.8412 6.40323C20.8687 6.33688 20.8828 6.26575 20.8828 6.19392C20.8828 6.12208 20.8687 6.05095 20.8412 5.9846C20.8137 5.91824 20.7733 5.85796 20.7225 5.8072L18.1344 3.21876C18.0836 3.16794 18.0234 3.12763 17.9571 3.10012C17.8907 3.07262 17.8196 3.05846 17.7478 3.05846C17.676 3.05846 17.6049 3.07262 17.5386 3.10012C17.4723 3.12763 17.412 3.16794 17.3613 3.21876L15.9844 4.59595C15.4648 4.31124 14.9162 4.08326 14.3478 3.91595V1.97095C14.3479 1.89912 14.3337 1.82799 14.3063 1.76162C14.2788 1.69525 14.2385 1.63495 14.1877 1.58416C14.1369 1.53337 14.0766 1.49309 14.0103 1.46562C13.9439 1.43815 13.8728 1.42403 13.8009 1.42407H10.1406C10.0688 1.42403 9.99767 1.43815 9.93131 1.46562C9.86494 1.49309 9.80464 1.53337 9.75384 1.58416C9.70305 1.63495 9.66277 1.69525 9.6353 1.76162C9.60784 1.82799 9.59372 1.89912 9.59376 1.97095V3.91938C9.02634 4.08677 8.47836 4.31409 7.95907 4.59751L6.58064 3.21876C6.52987 3.16793 6.46959 3.12761 6.40323 3.1001C6.33688 3.07259 6.26575 3.05843 6.19392 3.05843C6.12208 3.05843 6.05095 3.07259 5.9846 3.1001C5.91824 3.12761 5.85796 3.16793 5.8072 3.21876L3.21876 5.8072C3.16793 5.85796 3.12761 5.91824 3.1001 5.9846C3.07259 6.05095 3.05843 6.12208 3.05843 6.19392C3.05843 6.26575 3.07259 6.33688 3.1001 6.40323C3.12761 6.46959 3.16793 6.52987 3.21876 6.58064L4.59688 7.95907C4.31348 8.47847 4.08616 9.02656 3.91876 9.59407H1.97095C1.89912 9.59403 1.82799 9.60815 1.76162 9.63562C1.69525 9.66309 1.63495 9.70337 1.58416 9.75416C1.53337 9.80495 1.49309 9.86525 1.46562 9.93162C1.43815 9.99799 1.42403 10.0691 1.42407 10.1409V13.8009C1.42403 13.8728 1.43815 13.9439 1.46562 14.0103C1.49309 14.0766 1.53337 14.1369 1.58416 14.1877C1.63495 14.2385 1.69525 14.2788 1.76162 14.3063C1.82799 14.3337 1.89912 14.3479 1.97095 14.3478H3.91563C4.08304 14.9162 4.31112 15.4649 4.59595 15.9844L3.21876 17.3616C3.16794 17.4123 3.12763 17.4726 3.10012 17.5389C3.07262 17.6052 3.05846 17.6763 3.05846 17.7481C3.05846 17.8199 3.07262 17.891 3.10012 17.9574C3.12763 18.0237 3.16794 18.084 3.21876 18.1347L5.80657 20.7231C5.90921 20.8256 6.04829 20.8831 6.19329 20.8831C6.33829 20.8831 6.47737 20.8256 6.58001 20.7231L7.95688 19.3459C8.47658 19.6307 9.02536 19.8587 9.59376 20.0263V21.9713C9.59376 22.1163 9.65138 22.2554 9.75394 22.358C9.85649 22.4605 9.99559 22.5181 10.1406 22.5181H13.8009C13.946 22.5181 14.0851 22.4605 14.1876 22.358C14.2902 22.2554 14.3478 22.1163 14.3478 21.9713V20.0225C14.9152 19.8551 15.4632 19.6278 15.9825 19.3444L17.3613 20.7231C17.4638 20.8256 17.6028 20.8832 17.7478 20.8832C17.8928 20.8832 18.0318 20.8256 18.1344 20.7231ZM16.4591 18.2741C16.3722 18.1871 16.2586 18.1319 16.1365 18.1175C16.0144 18.1031 15.891 18.1303 15.7863 18.1947C15.1329 18.5964 14.4198 18.8918 13.6738 19.0697C13.5544 19.0984 13.4481 19.1663 13.372 19.2627C13.2958 19.359 13.2543 19.4782 13.2541 19.6009V21.4228H10.6875V19.6059C10.6873 19.483 10.6458 19.3638 10.5695 19.2674C10.4933 19.171 10.3868 19.1031 10.2672 19.0747C9.52122 18.8963 8.80858 18.5997 8.15626 18.1963C8.05144 18.1316 7.92787 18.1042 7.80555 18.1185C7.68322 18.1328 7.5693 18.1879 7.4822 18.275L6.19376 19.5625L4.37938 17.7475L5.66688 16.4597C5.75388 16.3726 5.80897 16.2588 5.82326 16.1365C5.83755 16.0142 5.8102 15.8907 5.74563 15.7859C5.34219 15.1332 5.04584 14.4202 4.86782 13.6738C4.83938 13.5542 4.77149 13.4477 4.67511 13.3714C4.57873 13.2952 4.45947 13.2536 4.33657 13.2534H2.51782V10.6875H4.33938C4.46219 10.6873 4.58135 10.6458 4.67771 10.5697C4.77407 10.4936 4.84202 10.3872 4.87063 10.2678C5.04837 9.52189 5.34374 8.80901 5.74563 8.15595C5.80993 8.05108 5.83707 7.92763 5.82267 7.80547C5.80827 7.68331 5.75318 7.56955 5.66626 7.48251L4.37938 6.19376L6.19376 4.37938L7.48251 5.66813C7.56947 5.75508 7.68318 5.81019 7.8053 5.82459C7.92742 5.83899 8.05084 5.81184 8.15563 5.74751C8.8089 5.3458 9.52185 5.05045 10.2678 4.87251C10.3872 4.84385 10.4935 4.77588 10.5696 4.67953C10.6457 4.58318 10.6873 4.46405 10.6875 4.34126V2.51782H13.2541V4.33626C13.2542 4.45916 13.2958 4.57842 13.3721 4.6748C13.4483 4.77118 13.5548 4.83907 13.6744 4.86751C14.4207 5.04546 15.1338 5.34171 15.7866 5.74501C15.8913 5.80985 16.0148 5.83736 16.1372 5.82306C16.2595 5.80876 16.3734 5.7535 16.4603 5.66626L17.7478 4.37876L19.5625 6.19376L18.275 7.48157C18.188 7.56873 18.133 7.68265 18.1187 7.80494C18.1044 7.92724 18.1317 8.05078 18.1963 8.15563C18.5997 8.8082 18.8959 9.5212 19.0738 10.2675C19.1022 10.3871 19.1701 10.4936 19.2665 10.5698C19.3629 10.6461 19.4821 10.6876 19.605 10.6878H21.4234V13.2541H19.6016C19.4787 13.2543 19.3596 13.2959 19.2632 13.3721C19.1669 13.4483 19.0989 13.5546 19.0703 13.6741C18.8924 14.4201 18.5971 15.133 18.1953 15.7863C18.1309 15.891 18.1037 16.0144 18.1181 16.1365C18.1325 16.2586 18.1877 16.3722 18.2747 16.4591L19.5625 17.7481L17.7478 19.5625L16.4591 18.2741Z" fill="#000D22"/>
<path d="M11.971 7.23694C11.0347 7.23694 10.1194 7.51459 9.3409 8.03477C8.56239 8.55496 7.95561 9.29432 7.5973 10.1594C7.23899 11.0244 7.14524 11.9763 7.3279 12.8946C7.51057 13.8129 7.96144 14.6564 8.62352 15.3185C9.28559 15.9806 10.1291 16.4314 11.0474 16.6141C11.9658 16.7968 12.9176 16.703 13.7826 16.3447C14.6477 15.9864 15.387 15.3796 15.9072 14.6011C16.4274 13.8226 16.7051 12.9073 16.7051 11.971C16.7037 10.7159 16.2044 9.51257 15.3169 8.62507C14.4294 7.73756 13.2261 7.23834 11.971 7.23694ZM11.971 15.6119C11.251 15.6119 10.5473 15.3985 9.94862 14.9985C9.34999 14.5985 8.8834 14.03 8.60785 13.3649C8.33231 12.6997 8.26018 11.9678 8.40059 11.2617C8.541 10.5555 8.88765 9.90689 9.39669 9.39776C9.90574 8.88863 10.5543 8.54187 11.2604 8.40134C11.9665 8.2608 12.6985 8.33281 13.3637 8.60824C14.0288 8.88367 14.5974 9.35016 14.9975 9.94872C15.3976 10.5473 15.6112 11.251 15.6113 11.971C15.6102 12.9361 15.2263 13.8614 14.5438 14.5438C13.8614 15.2263 12.9361 15.6102 11.971 15.6113V15.6119Z" fill="#000D22"/>
<path d="M38.0291 25.6522H36.0841C35.9168 25.0839 35.6888 24.5352 35.4041 24.0157L36.7809 22.6385C36.8317 22.5878 36.8721 22.5275 36.8996 22.4612C36.9271 22.3948 36.9412 22.3237 36.9412 22.2519C36.9412 22.1801 36.9271 22.109 36.8996 22.0427C36.8721 21.9764 36.8317 21.9161 36.7809 21.8654L34.1928 19.2776C34.142 19.2267 34.0818 19.1864 34.0154 19.1589C33.949 19.1314 33.8779 19.1172 33.8061 19.1172C33.7342 19.1172 33.6631 19.1314 33.5968 19.1589C33.5304 19.1864 33.4701 19.2267 33.4194 19.2776L32.0425 20.6541C31.523 20.3695 30.9744 20.1414 30.4062 19.9738V18.0288C30.4062 17.8838 30.3486 17.7447 30.2461 17.6421C30.1435 17.5396 30.0044 17.4819 29.8594 17.4819H26.1991C26.054 17.4819 25.9149 17.5396 25.8124 17.6421C25.7098 17.7447 25.6522 17.8838 25.6522 18.0288V19.9776C25.0846 20.1449 24.5365 20.3722 24.0172 20.6557L22.6387 19.2776C22.588 19.2267 22.5277 19.1864 22.4614 19.1589C22.3951 19.1314 22.324 19.1173 22.2522 19.1173C22.1804 19.1173 22.1093 19.1314 22.0429 19.1589C21.9766 19.1864 21.9164 19.2267 21.8656 19.2776L19.2772 21.8654C19.1747 21.9679 19.1171 22.107 19.1171 22.2519C19.1171 22.3969 19.1747 22.5359 19.2772 22.6385L20.6562 24.0172C20.3727 24.5365 20.1455 25.0847 19.9784 25.6522H18.0291C17.884 25.6522 17.7449 25.7099 17.6424 25.8124C17.5398 25.915 17.4822 26.0541 17.4822 26.1991V29.8591C17.4822 30.0042 17.5398 30.1433 17.6424 30.2458C17.7449 30.3484 17.884 30.406 18.0291 30.406H19.9741C20.1414 30.9743 20.3693 31.523 20.6541 32.0426L19.2772 33.4194C19.1747 33.522 19.1171 33.6611 19.1171 33.8062C19.1171 33.9512 19.1747 34.0903 19.2772 34.1929L21.8656 36.7813C21.9164 36.8321 21.9766 36.8724 22.0429 36.8999C22.1093 36.9275 22.1804 36.9416 22.2522 36.9416C22.324 36.9416 22.3951 36.9275 22.4614 36.8999C22.5277 36.8724 22.588 36.8321 22.6387 36.7813L24.0156 35.4063C24.5351 35.6911 25.0838 35.919 25.6522 36.0863V38.0313C25.6521 38.1031 25.6663 38.1743 25.6937 38.2406C25.7212 38.307 25.7615 38.3673 25.8123 38.4181C25.8631 38.4689 25.9234 38.5092 25.9897 38.5366C26.0561 38.5641 26.1272 38.5782 26.1991 38.5782H29.8591C29.9309 38.5782 30.002 38.5641 30.0684 38.5366C30.1347 38.5092 30.1951 38.4689 30.2458 38.4181C30.2966 38.3673 30.3369 38.307 30.3644 38.2406C30.3919 38.1743 30.406 38.1031 30.4059 38.0313V36.0829C30.9735 35.9155 31.5216 35.688 32.0409 35.4044L33.4194 36.7829C33.4701 36.8337 33.5304 36.874 33.5968 36.9015C33.6631 36.929 33.7342 36.9432 33.8061 36.9432C33.8779 36.9432 33.949 36.929 34.0154 36.9015C34.0818 36.874 34.142 36.8337 34.1928 36.7829L36.7809 34.1951C36.8318 34.1443 36.8721 34.084 36.8996 34.0177C36.9271 33.9513 36.9413 33.8802 36.9413 33.8083C36.9413 33.7365 36.9271 33.6654 36.8996 33.599C36.8721 33.5327 36.8318 33.4724 36.7809 33.4216L35.4025 32.0429C35.6859 31.5236 35.9132 30.9756 36.0806 30.4082H38.0291C38.1009 30.4082 38.172 30.3941 38.2384 30.3666C38.3048 30.3392 38.3651 30.2989 38.4158 30.2481C38.4666 30.1973 38.5069 30.137 38.5344 30.0706C38.5619 30.0043 38.576 29.9331 38.5759 29.8613V26.1991C38.576 26.1273 38.5619 26.0562 38.5344 25.9898C38.5069 25.9234 38.4666 25.8631 38.4158 25.8123C38.3651 25.7615 38.3048 25.7213 38.2384 25.6938C38.172 25.6663 38.1009 25.6522 38.0291 25.6522ZM37.4822 29.3126H35.6606C35.5378 29.3128 35.4187 29.3543 35.3223 29.4304C35.2259 29.5065 35.158 29.6128 35.1294 29.7322C34.9514 30.4782 34.6561 31.1912 34.2544 31.8444C34.1901 31.9492 34.163 32.0726 34.1774 32.1948C34.1918 32.3169 34.2468 32.4306 34.3337 32.5176L35.6228 33.8066L33.8081 35.621L32.5194 34.3322C32.4323 34.2455 32.3186 34.1904 32.1965 34.176C32.0745 34.1616 31.9511 34.1887 31.8462 34.2529C31.1928 34.6545 30.4798 34.9499 29.7337 35.1279C29.6143 35.1565 29.508 35.2244 29.4319 35.3208C29.3557 35.4172 29.3142 35.5363 29.3141 35.6591V37.4807H26.7459V35.6622C26.7458 35.5393 26.7042 35.4201 26.6279 35.3237C26.5517 35.2273 26.4452 35.1594 26.3256 35.131C25.5793 34.953 24.8662 34.6568 24.2134 34.2535C24.1087 34.1887 23.9851 34.1612 23.8628 34.1755C23.7405 34.1898 23.6266 34.2451 23.5397 34.3322L22.2522 35.6197L20.4375 33.8063L21.725 32.5185C21.8121 32.4314 21.8673 32.3175 21.8816 32.1952C21.8959 32.0728 21.8684 31.9492 21.8037 31.8444C21.4005 31.1918 21.1044 30.4788 20.9266 29.7326C20.8981 29.613 20.8302 29.5065 20.7338 29.4302C20.6375 29.354 20.5182 29.3124 20.3953 29.3122H18.5759V26.746H20.3975C20.5203 26.7457 20.6395 26.7042 20.7358 26.628C20.8322 26.5518 20.9001 26.4454 20.9287 26.326C21.1066 25.58 21.402 24.8671 21.8037 24.2138C21.8682 24.1091 21.8954 23.9857 21.881 23.8636C21.8665 23.7415 21.8114 23.6278 21.7244 23.541L20.4375 22.2519L22.2522 20.4376L23.5409 21.7263C23.6277 21.8134 23.7414 21.8687 23.8635 21.8831C23.9856 21.8975 24.1091 21.8702 24.2137 21.8057C24.8671 21.404 25.5802 21.1086 26.3262 20.9307C26.4456 20.902 26.5519 20.8341 26.628 20.7377C26.7042 20.6414 26.7457 20.5222 26.7459 20.3994V18.5776H29.3125V20.396C29.3127 20.5189 29.3542 20.6382 29.4305 20.7345C29.5067 20.8309 29.6132 20.8988 29.7328 20.9272C30.4791 21.1054 31.192 21.4017 31.8447 21.8051C31.9495 21.8699 32.0731 21.8974 32.1954 21.8831C32.3178 21.8688 32.4317 21.8135 32.5187 21.7263L33.8062 20.4376L35.6209 22.2522L34.3331 23.5401C34.2461 23.6271 34.1909 23.741 34.1767 23.8632C34.1624 23.9855 34.1897 24.109 34.2544 24.2138C34.6576 24.8664 34.9538 25.5794 35.1316 26.3257C35.1599 26.4453 35.2278 26.5519 35.3242 26.6282C35.4206 26.7045 35.5399 26.7461 35.6628 26.7463H37.4812L37.4822 29.3126Z" fill="#000D22"/>
<path d="M28.0291 23.295C27.0928 23.295 26.1775 23.5727 25.399 24.0929C24.6205 24.6131 24.0137 25.3524 23.6554 26.2175C23.2971 27.0825 23.2033 28.0344 23.386 28.9527C23.5687 29.871 24.0196 30.7145 24.6816 31.3766C25.3437 32.0387 26.1872 32.4895 27.1055 32.6722C28.0239 32.8549 28.9757 32.7611 29.8408 32.4028C30.7058 32.0445 31.4452 31.4377 31.9653 30.6592C32.4855 29.8807 32.7632 28.9654 32.7632 28.0291C32.7618 26.774 32.2625 25.5707 31.375 24.6832C30.4875 23.7957 29.2842 23.2965 28.0291 23.295ZM28.0291 31.67C27.3091 31.67 26.6053 31.4565 26.0067 31.0565C25.408 30.6565 24.9414 30.088 24.6659 29.4228C24.3904 28.7576 24.3183 28.0257 24.4587 27.3195C24.5992 26.6134 24.9459 25.9648 25.455 25.4556C25.9641 24.9465 26.6128 24.5998 27.3189 24.4594C28.0251 24.3189 28.757 24.391 29.4222 24.6665C30.0874 24.942 30.6559 25.4086 31.0559 26.0073C31.4559 26.6059 31.6694 27.3097 31.6694 28.0297C31.6682 28.9948 31.2842 29.9199 30.6018 30.6022C29.9194 31.2846 28.9941 31.6683 28.0291 31.6694V31.67Z" fill="#000D22"/>
<path d="M23.9722 6.51782C27.1496 7.45321 29.8937 9.48251 31.7188 12.2466C31.2811 12.6428 31.0043 13.1861 30.9412 13.7731C30.878 14.3601 31.0329 14.9499 31.3763 15.4301C31.7197 15.9104 32.2277 16.2476 32.8036 16.3776C33.3795 16.5077 33.9831 16.4215 34.4996 16.1354C35.016 15.8493 35.4093 15.3833 35.6045 14.8261C35.7997 14.2689 35.7833 13.6594 35.5583 13.1136C35.3333 12.5677 34.9155 12.1236 34.3844 11.8658C33.8533 11.608 33.2459 11.5544 32.6778 11.7153C30.7117 8.7001 27.7344 6.48517 24.2813 5.46875C24.2119 5.44691 24.139 5.43911 24.0666 5.44581C23.9942 5.4525 23.9239 5.47356 23.8597 5.50775C23.7956 5.54194 23.7389 5.58857 23.693 5.64493C23.6471 5.70128 23.6128 5.76622 23.5923 5.83595C23.5718 5.90569 23.5654 5.97881 23.5734 6.05105C23.5815 6.12329 23.6039 6.1932 23.6393 6.25669C23.6747 6.32017 23.7224 6.37597 23.7796 6.4208C23.8368 6.46564 23.9021 6.49862 23.9722 6.51782ZM34.625 14.0231C34.625 14.281 34.5486 14.5331 34.4053 14.7475C34.262 14.9619 34.0584 15.129 33.8202 15.2276C33.582 15.3263 33.3198 15.3521 33.0669 15.3018C32.814 15.2515 32.5817 15.1274 32.3994 14.945C32.217 14.7627 32.0929 14.5304 32.0426 14.2775C31.9923 14.0246 32.0181 13.7624 32.1168 13.5242C32.2154 13.286 32.3825 13.0824 32.5969 12.9391C32.8113 12.7958 33.0634 12.7194 33.3213 12.7194C33.6669 12.7197 33.9984 12.8572 34.2428 13.1016C34.4872 13.346 34.6247 13.6775 34.625 14.0231Z" fill="#000D22"/>
<path d="M16.0278 33.4822C12.851 32.5464 10.1075 30.5172 8.2828 27.7534C8.7205 27.3572 8.99726 26.8139 9.06041 26.2269C9.12357 25.6399 8.9687 25.0501 8.62529 24.5699C8.28187 24.0896 7.77388 23.7524 7.19798 23.6223C6.62208 23.4923 6.01847 23.5785 5.50201 23.8646C4.98555 24.1507 4.59229 24.6166 4.39707 25.1738C4.20185 25.731 4.21829 26.3405 4.44326 26.8864C4.66824 27.4323 5.08604 27.8763 5.61717 28.1342C6.1483 28.392 6.75568 28.4456 7.32373 28.2847C9.28943 31.2996 12.2661 33.5146 15.7187 34.5312C15.769 34.5461 15.8211 34.5535 15.8734 34.5534C16.0048 34.5531 16.1316 34.5056 16.2308 34.4195C16.33 34.3333 16.3948 34.2144 16.4135 34.0844C16.4322 33.9544 16.4035 33.822 16.3326 33.7114C16.2617 33.6008 16.1534 33.5194 16.0275 33.4822H16.0278ZM5.37498 25.9768C5.37511 25.719 5.45168 25.467 5.59501 25.2527C5.73834 25.0384 5.942 24.8714 6.18024 24.7728C6.41848 24.6742 6.6806 24.6485 6.93347 24.6988C7.18633 24.7492 7.41858 24.8734 7.60085 25.0558C7.78312 25.2382 7.90722 25.4705 7.95748 25.7234C8.00773 25.9762 7.98188 26.2383 7.88318 26.4765C7.78449 26.7147 7.61738 26.9183 7.40299 27.0615C7.18861 27.2048 6.93657 27.2812 6.67873 27.2812C6.33295 27.2809 6.00144 27.1433 5.75699 26.8988C5.51254 26.6542 5.37515 26.3226 5.37498 25.9768Z" fill="#000D22"/>
</svg>
