<svg width="60" height="60" viewBox="0 0 60 60" fill="none" xmlns="http://www.w3.org/2000/svg">
<g clip-path="url(#clip0_643_1415)">
<path d="M39.3339 42.2491C39.2779 42.0766 39.173 41.9241 39.0321 41.81C38.8912 41.6959 38.7202 41.6252 38.5398 41.6063L33.0848 41.0361L30.8567 36.0242C30.783 35.8585 30.6629 35.7177 30.5108 35.619C30.3588 35.5202 30.1813 35.4676 30 35.4676C29.8187 35.4676 29.6413 35.5202 29.4892 35.619C29.3372 35.7177 29.2171 35.8585 29.1434 36.0242L26.9153 41.0361L21.4602 41.6063C21.28 41.6253 21.1091 41.696 20.9683 41.8101C20.8274 41.9241 20.7227 42.0765 20.6667 42.2489C20.6106 42.4212 20.6058 42.6061 20.6527 42.7812C20.6995 42.9562 20.7961 43.1139 20.9308 43.2352L25.0089 46.9032L23.8656 52.2674C23.8278 52.4448 23.8423 52.6293 23.9072 52.7986C23.9722 52.9678 24.0848 53.1147 24.2315 53.2212C24.3782 53.3278 24.5527 53.3896 24.7337 53.399C24.9148 53.4084 25.0947 53.3652 25.2517 53.2744L30 50.5299L34.7485 53.2749C34.9054 53.3656 35.0854 53.4089 35.2664 53.3995C35.4475 53.39 35.622 53.3283 35.7687 53.2217C35.9154 53.1151 36.028 52.9683 36.0929 52.799C36.1579 52.6297 36.1723 52.4452 36.1346 52.2679L34.9913 46.9036L39.0694 43.2357C39.2042 43.1144 39.3009 42.9567 39.3478 42.7816C39.3948 42.6065 39.3899 42.4215 39.3339 42.2491ZM33.3345 45.8719C33.212 45.9821 33.1206 46.1226 33.0697 46.2793C33.0188 46.436 33.0101 46.6034 33.0444 46.7645L33.8612 50.5966L30.4688 48.6354C30.3261 48.553 30.1643 48.5096 29.9996 48.5096C29.8348 48.5096 29.673 48.553 29.5303 48.6354L26.1383 50.5963L26.9551 46.7643C26.9895 46.6032 26.9808 46.4358 26.9299 46.2791C26.8789 46.1224 26.7876 45.9819 26.6651 45.8717L23.7521 43.2516L27.6488 42.8443C27.8126 42.8271 27.9691 42.7671 28.1023 42.6703C28.2356 42.5735 28.341 42.4432 28.4079 42.2927L30 38.7129L31.5917 42.293C31.6586 42.4436 31.764 42.5738 31.8973 42.6706C32.0305 42.7675 32.187 42.8275 32.3508 42.8446L36.2475 43.252L33.3345 45.8719ZM55.44 48.8485C55.384 48.676 55.2792 48.5235 55.1383 48.4094C54.9973 48.2953 54.8263 48.2245 54.646 48.2056L49.191 47.6353L46.9628 42.6236C46.8891 42.4579 46.769 42.3172 46.617 42.2184C46.4649 42.1196 46.2875 42.067 46.1062 42.067C45.9248 42.067 45.7474 42.1196 45.5954 42.2184C45.4433 42.3172 45.3232 42.4579 45.2495 42.6236L43.0214 47.6353L37.5664 48.2056C37.386 48.2244 37.215 48.2952 37.074 48.4093C36.933 48.5234 36.8282 48.6759 36.7721 48.8484C36.7161 49.0209 36.7113 49.2059 36.7583 49.3811C36.8053 49.5562 36.9022 49.714 37.037 49.8352L41.1151 53.5032L39.9719 58.8673C39.9341 59.0447 39.9485 59.2292 40.0134 59.3985C40.0784 59.5678 40.191 59.7146 40.3377 59.8212C40.4844 59.9278 40.6589 59.9896 40.8399 59.999C41.021 60.0085 41.201 59.9652 41.358 59.8744L46.1064 57.1294L50.8548 59.8744C51.0118 59.9652 51.1918 60.0085 51.3728 59.999C51.5539 59.9896 51.7284 59.9278 51.8751 59.8212C52.0218 59.7146 52.1344 59.5678 52.1994 59.3985C52.2643 59.2292 52.2787 59.0447 52.2409 58.8673L51.0976 53.5032L55.1758 49.8352C55.3105 49.7139 55.4072 49.5561 55.4541 49.381C55.501 49.2059 55.4961 49.0209 55.44 48.8485ZM49.4407 52.4712C49.3182 52.5814 49.2269 52.7219 49.176 52.8786C49.1251 53.0353 49.1164 53.2026 49.1507 53.3637L49.9674 57.1958L46.5754 55.235C46.4327 55.1525 46.2709 55.1091 46.1062 55.1091C45.9414 55.1091 45.7796 55.1525 45.6369 55.235L42.2451 57.1958L43.0616 53.3637C43.096 53.2026 43.0873 53.0353 43.0364 52.8786C42.9855 52.7219 42.8942 52.5814 42.7717 52.4712L39.8587 49.8516L43.7554 49.4443C43.9192 49.4271 44.0757 49.3671 44.2089 49.2703C44.3422 49.1735 44.4476 49.0432 44.5145 48.8927L46.1062 45.3126L47.6978 48.8927C47.7647 49.0432 47.8701 49.1735 48.0034 49.2703C48.1367 49.3671 48.2931 49.4271 48.4569 49.4443L52.3537 49.8516L49.4407 52.4712ZM5.35409 48.2056C5.17371 48.2244 5.00266 48.2952 4.86168 48.4093C4.7207 48.5233 4.61583 48.6759 4.55979 48.8484C4.50375 49.0208 4.49895 49.2059 4.54596 49.381C4.59296 49.5562 4.68977 49.714 4.82464 49.8352L8.90276 53.5032L7.75948 58.8673C7.72167 59.0447 7.73611 59.2292 7.80104 59.3985C7.86597 59.5678 7.97861 59.7146 8.12531 59.8212C8.27201 59.9278 8.44647 59.9896 8.62756 59.999C8.80865 60.0085 8.98858 59.9652 9.14557 59.8744L13.894 57.1294L18.6424 59.8744C18.7994 59.9652 18.9794 60.0085 19.1605 59.999C19.3416 59.9896 19.516 59.9278 19.6627 59.8212C19.8094 59.7146 19.9221 59.5678 19.987 59.3985C20.0519 59.2292 20.0664 59.0447 20.0285 58.8673L18.8851 53.5032L22.9633 49.8352C23.0981 49.714 23.1949 49.5562 23.2419 49.381C23.289 49.2059 23.2841 49.0208 23.2281 48.8484C23.1721 48.6759 23.0672 48.5233 22.9262 48.4093C22.7852 48.2952 22.6142 48.2244 22.4338 48.2056L16.9787 47.6353L14.7507 42.6236C14.677 42.4579 14.5569 42.3171 14.4048 42.2183C14.2528 42.1195 14.0753 42.0669 13.894 42.0669C13.7126 42.0669 13.5352 42.1195 13.3831 42.2183C13.231 42.3171 13.1109 42.4579 13.0373 42.6236L10.8091 47.6353L5.35409 48.2056ZM12.3023 48.8922L13.8939 45.3121L15.4855 48.8922C15.5525 49.0427 15.6579 49.173 15.7911 49.2698C15.9244 49.3667 16.0808 49.4267 16.2447 49.4438L20.1414 49.8512L17.2283 52.4712C17.1058 52.5814 17.0145 52.7219 16.9636 52.8786C16.9127 53.0353 16.904 53.2026 16.9383 53.3637L17.755 57.1958L14.363 55.235C14.2204 55.1525 14.0586 55.1091 13.8938 55.1091C13.7291 55.1091 13.5673 55.1525 13.4247 55.235L10.0327 57.1955L10.8495 53.3635C10.8838 53.2024 10.8751 53.035 10.8242 52.8783C10.7733 52.7217 10.6819 52.5812 10.5594 52.471L7.64639 49.8516L11.543 49.4438C11.7069 49.4267 11.8633 49.3667 11.9966 49.2698C12.1299 49.173 12.2353 49.0428 12.3023 48.8922ZM23.8963 12.648H13.9739C13.2676 12.6488 12.5905 12.9297 12.0911 13.4292C11.5916 13.9286 11.3107 14.6057 11.3099 15.312V32.3227C11.3107 33.029 11.5916 33.7062 12.0911 34.2056C12.5905 34.7051 13.2676 34.986 13.9739 34.9869H23.8963C24.2766 34.9864 24.6412 34.8351 24.9101 34.5662C25.179 34.2973 25.3303 33.9327 25.3307 33.5524V33.2395C26.0848 33.6084 26.9135 33.7994 27.753 33.7978C27.849 33.7978 27.9456 33.7954 28.0426 33.7906H41.535C42.0902 33.7841 42.636 33.6464 43.1277 33.3886C43.6195 33.1308 44.0432 32.7603 44.3644 32.3074C44.6856 31.8545 44.895 31.332 44.9756 30.7827C45.0561 30.2334 45.0056 29.6728 44.828 29.1467C45.337 28.9839 45.8061 28.716 46.205 28.3604C46.6039 28.0048 46.9236 27.5694 47.1436 27.0824C47.3636 26.5954 47.4788 26.0676 47.4819 25.5332C47.485 24.9988 47.3758 24.4698 47.1614 23.9803C47.6126 23.6318 47.9827 23.1894 48.2459 22.6838C48.5091 22.1781 48.6593 21.6212 48.6859 21.0518C48.7124 20.4823 48.6149 19.9139 48.3999 19.3859C48.185 18.8579 47.8578 18.3829 47.441 17.994C47.7146 17.4064 47.8544 16.7655 47.8506 16.1174C47.8468 15.4693 47.6994 14.8301 47.419 14.2458C47.1386 13.6615 46.7322 13.1466 46.229 12.7381C45.7257 12.3297 45.1383 12.0378 44.5088 11.8836C44.441 11.8671 44.3717 11.8581 44.3019 11.8569C41.7252 11.8124 40.0849 11.8061 37.921 11.8328C39.4092 8.74892 39.369 6.49693 37.7949 3.59103C36.6873 1.54693 35.2735 0.371307 33.5918 0.0982597C32.9129 0.0110347 32.2279 -0.0184851 31.544 0.0100175C31.375 0.0175248 31.2097 0.0620287 31.0597 0.14039C30.9098 0.21875 30.7789 0.329059 30.6762 0.463533C30.1738 1.10678 30.2089 2.23998 30.8264 5.31357C30.8776 5.56834 30.9305 5.83166 30.942 5.91756C31.2533 8.26365 29.3819 10.881 27.731 13.1902C27.5892 13.3885 27.4489 13.5853 27.3101 13.7805C26.8395 14.4441 26.5249 14.5258 25.8346 14.705C25.6804 14.7451 25.5121 14.7891 25.3307 14.8428V14.0824C25.3303 13.7021 25.179 13.3375 24.9101 13.0686C24.6412 12.7997 24.2766 12.6484 23.8963 12.648ZM23.4557 33.1119H13.9739C13.7647 33.1116 13.5642 33.0284 13.4162 32.8804C13.2683 32.7325 13.1851 32.5319 13.1849 32.3227V15.312C13.1851 15.1028 13.2683 14.9022 13.4162 14.7543C13.5642 14.6064 13.7647 14.5232 13.9739 14.523H23.4557V33.1119ZM26.3056 16.5199C27.1252 16.3069 27.9728 16.0863 28.8392 14.8652C28.9762 14.6719 29.1151 14.4771 29.2559 14.2808C31.1091 11.6889 33.2096 8.75138 32.8006 5.67088C32.781 5.52322 32.7347 5.29295 32.6646 4.94431C32.3671 3.46353 32.2109 2.4365 32.1978 1.87646C32.5634 1.87749 32.9286 1.90175 33.2911 1.94912C34.3692 2.1242 35.3302 2.97697 36.1463 4.48412C37.2736 6.56537 37.6085 8.24935 36.152 11.182C36.0186 11.4505 35.9564 11.7488 35.9714 12.0483C35.9865 12.3478 36.0782 12.6384 36.2379 12.8923C36.3976 13.1461 36.6198 13.3546 36.8832 13.4978C37.1467 13.6411 37.4425 13.7142 37.7424 13.7102C39.9546 13.6811 41.5861 13.6858 44.1565 13.7296C44.5499 13.8422 44.9097 14.0493 45.2047 14.3328C45.4997 14.6163 45.7209 14.9676 45.8491 15.3562C45.9772 15.7448 46.0084 16.1588 45.9399 16.5621C45.8714 16.9655 45.7053 17.346 45.4561 17.6705C45.3738 17.7777 45.3157 17.9014 45.2856 18.0331C45.2556 18.1648 45.2544 18.3015 45.2821 18.4337C45.3098 18.566 45.3657 18.6907 45.4461 18.7993C45.5265 18.9079 45.6294 18.9978 45.7478 19.0629C46.0898 19.2511 46.3713 19.5325 46.5596 19.8744C46.7479 20.2164 46.8352 20.6047 46.8113 20.9943C46.7875 21.3839 46.6535 21.7588 46.4249 22.0752C46.1963 22.3916 45.8825 22.6365 45.5201 22.7815C45.3825 22.8366 45.2599 22.9235 45.1624 23.0352C45.0648 23.1468 44.9952 23.28 44.9591 23.4238C44.923 23.5676 44.9216 23.7179 44.9548 23.8623C44.9881 24.0068 45.0552 24.1413 45.1505 24.2548C45.4055 24.5586 45.5618 24.9328 45.5986 25.3277C45.6354 25.7226 45.551 26.1193 45.3565 26.4649C45.1621 26.8106 44.8669 27.0887 44.5103 27.2623C44.1537 27.4358 43.7527 27.4966 43.3607 27.4363C43.1611 27.4057 42.957 27.4403 42.7786 27.535C42.6003 27.6297 42.4573 27.7795 42.3709 27.962C42.2846 28.1446 42.2595 28.3501 42.2993 28.5481C42.3392 28.746 42.4419 28.9258 42.5922 29.0607C42.837 29.2804 43.01 29.5688 43.0885 29.8883C43.167 30.2078 43.1474 30.5435 43.0323 30.8517C42.9172 31.1599 42.7118 31.4263 42.4431 31.6161C42.1744 31.8059 41.8547 31.9103 41.5258 31.9157H28.0186C28.0019 31.9157 27.9852 31.9157 27.9685 31.917C27.0132 31.9688 26.1474 31.679 25.3307 31.0345V16.8282C25.6478 16.702 25.9736 16.599 26.3056 16.5199Z" fill="#7DC6E9"/>
</g>
<defs>
<clipPath id="clip0_643_1415">
<rect width="60" height="60" fill="white"/>
</clipPath>
</defs>
</svg>
