<svg width="51" height="51" viewBox="0 0 51 51" fill="none" xmlns="http://www.w3.org/2000/svg">
<path d="M25.5001 47.8125C29.3434 47.8125 33.1215 46.8198 36.4684 44.9305C39.8153 43.0413 42.6174 40.3195 44.6032 37.029C46.5891 33.7385 47.6913 29.9909 47.8031 26.1492C47.9149 22.3075 47.0325 18.5021 45.2414 15.1017C45.1414 14.9167 44.9724 14.7786 44.7711 14.7177C44.5697 14.6568 44.3525 14.678 44.1667 14.7766C43.9809 14.8751 43.8417 15.0432 43.7793 15.244C43.7169 15.4449 43.7364 15.6623 43.8336 15.8488C45.4024 18.8238 46.2212 22.1367 46.2188 25.5C45.0833 52.9819 5.91664 52.9822 4.7813 25.4998C4.5894 10.1348 21.6753 -0.163877 35.1514 7.16671C35.3381 7.26576 35.5566 7.28657 35.7586 7.22458C35.9607 7.16258 36.1299 7.02285 36.2289 6.83613C36.328 6.64941 36.3488 6.43099 36.2868 6.22892C36.2248 6.02685 36.0851 5.85768 35.8983 5.75863C32.6932 4.06788 29.1238 3.18528 25.5001 3.1875C-4.09623 4.41036 -4.09589 46.5902 25.5001 47.8125Z" fill="#7DC6E9"/>
<path fill-rule="evenodd" clip-rule="evenodd" d="M25.4897 48.0627C-4.4258 46.8272 -4.42606 4.17397 25.4897 2.93792L25.4999 2.9375C29.1643 2.93525 32.7739 3.82797 36.015 5.53771C36.2603 5.66783 36.4444 5.89033 36.5258 6.15579C36.6072 6.42125 36.5799 6.70819 36.4498 6.95348C36.3197 7.19878 36.0974 7.38234 35.832 7.46378C35.5665 7.54522 35.2796 7.51788 35.0343 7.38776L35.032 7.38653C21.7248 0.14788 4.84445 10.321 5.03126 25.4933C6.15659 52.6507 44.8419 52.651 45.9688 25.4949C45.9703 22.1741 45.1615 18.903 43.6125 15.9656L43.6119 15.9645C43.4842 15.7195 43.4586 15.4339 43.5405 15.17C43.6225 14.9062 43.8055 14.6854 44.0495 14.5559C44.2936 14.4264 44.579 14.3986 44.8435 14.4786C45.1079 14.5586 45.33 14.74 45.4614 14.9831L45.4626 14.9854C47.2738 18.4239 48.1661 22.2719 48.053 26.1566C47.9399 30.0414 46.8254 33.831 44.8173 37.1584C42.8092 40.4857 39.9756 43.238 36.5913 45.1484C33.2069 47.0588 29.3864 48.0627 25.5001 48.0627H25.4897ZM46.2188 25.5002C45.0833 52.9821 5.91666 52.9824 4.78132 25.5C4.58942 10.135 21.6752 -0.163682 35.1514 7.16691C35.3381 7.26595 35.5566 7.28677 35.7586 7.22478C35.9607 7.16278 36.1299 7.02305 36.2289 6.83633C36.328 6.64961 36.3488 6.43119 36.2868 6.22911C36.2248 6.02704 36.0851 5.85788 35.8983 5.75883C32.6932 4.06808 29.1238 3.18548 25.5001 3.1877C-4.09621 4.41056 -4.09587 46.5904 25.5001 47.8127C29.3434 47.8127 33.1215 46.82 36.4684 44.9307C39.8153 43.0414 42.6174 40.3197 44.6032 37.0292C46.5891 33.7387 47.6913 29.991 47.8031 26.1494C47.9149 22.3077 47.0325 18.5023 45.2414 15.1019C45.1414 14.9168 44.9724 14.7788 44.7711 14.7179C44.5697 14.657 44.3525 14.6781 44.1667 14.7767C43.9809 14.8753 43.8417 15.0433 43.7793 15.2442C43.7169 15.4451 43.7364 15.6624 43.8336 15.8489C45.4024 18.8239 46.2212 22.1369 46.2188 25.5002Z" fill="#7DC6E9"/>
<path d="M25.5 19.1251C26.19 19.1247 26.8753 19.2393 27.5276 19.4641C27.7274 19.5329 27.9464 19.5194 28.1363 19.4268C28.3262 19.3343 28.4716 19.17 28.5405 18.9702C28.8906 17.5606 26.4086 17.6169 25.5001 17.5312C14.9297 17.9681 14.9302 33.0325 25.5001 33.4689C27.6128 33.4665 29.6383 32.6262 31.1322 31.1323C32.6261 29.6383 33.4664 27.6128 33.4688 25.5001C33.3874 24.5751 33.4413 22.119 32.0378 22.4678C31.9388 22.5018 31.8475 22.555 31.7691 22.6244C31.6907 22.6937 31.6268 22.7779 31.5809 22.872C31.535 22.966 31.5082 23.0681 31.5018 23.1726C31.4955 23.2771 31.5098 23.3818 31.5439 23.4807C31.7657 24.1308 31.8776 24.8133 31.875 25.5001C31.5555 33.9443 19.4445 33.9446 19.125 25.5C19.127 23.8099 19.7993 22.1895 20.9944 20.9944C22.1895 19.7993 23.8099 19.127 25.5 19.1251Z" fill="#7DC6E9"/>
<path fill-rule="evenodd" clip-rule="evenodd" d="M27.5276 19.4641C26.8753 19.2393 26.19 19.1247 25.5 19.1251C23.8099 19.127 22.1895 19.7993 20.9944 20.9944C19.7993 22.1895 19.127 23.8099 19.125 25.5C19.4445 33.9446 31.5555 33.9443 31.875 25.5001C31.8776 24.8133 31.7657 24.1308 31.5439 23.4807C31.5098 23.3818 31.4955 23.2771 31.5018 23.1726C31.5082 23.0681 31.535 22.966 31.5809 22.872C31.6268 22.7779 31.6907 22.6937 31.7691 22.6244C31.8475 22.555 31.9388 22.5018 32.0378 22.4678C33.2704 22.1615 33.3789 24.0188 33.4422 25.1021C33.451 25.2522 33.4589 25.3875 33.4688 25.5001C33.4664 27.6128 32.6261 29.6383 31.1322 31.1323C29.6383 32.6262 27.6128 33.4665 25.5001 33.4689C14.9302 33.0325 14.9297 17.9681 25.5001 17.5312C25.6153 17.5422 25.7557 17.5507 25.9124 17.5602C26.9922 17.6261 28.8462 17.7392 28.5405 18.9702C28.4716 19.17 28.3262 19.3343 28.1363 19.4268C27.9464 19.5194 27.7274 19.5329 27.5276 19.4641ZM19.375 25.4956C19.3782 23.8734 20.024 22.3183 21.1712 21.1712C22.3195 20.0229 23.8763 19.377 25.5002 19.3751" fill="#7DC6E9"/>
<path d="M33.1299 13.3356C33.1806 13.2441 33.2129 13.1435 33.2247 13.0395C33.2366 12.9355 33.2279 12.8302 33.199 12.7296C33.1702 12.629 33.1218 12.5351 33.0567 12.4532C32.9915 12.3713 32.9109 12.3031 32.8194 12.2523C30.579 11.0123 28.0607 10.361 25.5 10.3594C5.41684 11.1894 5.4171 39.811 25.5001 40.6406C28.1339 40.6422 30.7225 39.9562 33.0099 38.6506C35.2973 37.345 37.2043 35.465 38.5424 33.1964C39.8805 30.9279 40.6032 28.3493 40.6392 25.7158C40.6752 23.0823 40.0232 20.4849 38.7477 18.1806C38.6972 18.0887 38.629 18.0076 38.5471 17.9421C38.4652 17.8765 38.3711 17.8278 38.2703 17.7987C38.1696 17.7696 38.064 17.7607 37.9598 17.7725C37.8555 17.7842 37.7546 17.8165 37.6629 17.8674C37.5711 17.9182 37.4903 17.9867 37.4251 18.0689C37.3599 18.1511 37.3116 18.2453 37.2829 18.3462C37.2542 18.4471 37.2457 18.5527 37.2579 18.6569C37.2701 18.7611 37.3027 18.8618 37.3539 18.9534C42.4049 27.7133 35.6196 39.2223 25.4998 39.0467C21.9082 39.0427 18.4649 37.6142 15.9252 35.0746C13.3856 32.5349 11.9571 29.0916 11.9531 25.5C11.7796 15.3805 23.2855 8.59434 32.0467 13.6463C32.1382 13.6972 32.2388 13.7296 32.3428 13.7415C32.4468 13.7535 32.5522 13.7448 32.6528 13.7159C32.7535 13.687 32.8474 13.6386 32.9293 13.5733C33.0111 13.508 33.0793 13.4273 33.1299 13.3356Z" fill="#7DC6E9"/>
<path fill-rule="evenodd" clip-rule="evenodd" d="M32.8194 12.2521C32.9109 12.3028 32.9915 12.3711 33.0567 12.453C33.1218 12.5349 33.1702 12.6288 33.199 12.7294C33.2279 12.83 33.2366 12.9353 33.2247 13.0393C33.2129 13.1432 33.1806 13.2439 33.1299 13.3354C33.0793 13.427 33.0111 13.5078 32.9293 13.5731C32.8474 13.6383 32.7535 13.6868 32.6528 13.7157C32.5522 13.7445 32.4468 13.7532 32.3428 13.7413C32.2388 13.7294 32.1382 13.697 32.0467 13.6461C23.2855 8.59413 11.7796 15.3803 11.9531 25.4998C11.9571 29.0914 13.3856 32.5347 15.9252 35.0743C18.4649 37.614 21.9082 39.0425 25.4998 39.0465C35.6196 39.2221 42.4049 27.7131 37.3539 18.9532C37.3027 18.8616 37.27 18.7608 37.2579 18.6567C37.2457 18.5525 37.2542 18.4469 37.2829 18.346C37.3116 18.2451 37.3599 18.1508 37.4251 18.0687C37.4903 17.9865 37.5711 17.918 37.6629 17.8671C37.7546 17.8163 37.8555 17.784 37.9598 17.7722C38.064 17.7605 38.1695 17.7694 38.2703 17.7985C38.3711 17.8276 38.4652 17.8763 38.5471 17.9418C38.629 18.0074 38.6972 18.0885 38.7477 18.1804C40.0232 20.4847 40.6752 23.082 40.6392 25.7156C40.6032 28.3491 39.8804 30.9276 38.5424 33.1962C37.2043 35.4648 35.2973 37.3448 33.0099 38.6504C30.7225 39.956 28.1339 40.6419 25.5001 40.6404C5.4171 39.8107 5.41684 11.1892 25.5 10.3592C28.0606 10.3607 30.579 11.012 32.8194 12.2521ZM38.9668 18.06C40.2632 20.4022 40.9258 23.0422 40.8892 25.719C40.8526 28.396 40.1179 31.0172 38.7577 33.3232C37.3975 35.6293 35.459 37.5404 33.1338 38.8675C30.8086 40.1947 28.1773 40.892 25.5 40.8904H25.4898C5.08719 40.0475 5.08697 10.9526 25.4897 10.1094L25.5002 10.1089C28.1031 10.1105 30.6631 10.7728 32.9404 12.0334C33.0607 12.1001 33.1667 12.1898 33.2523 12.2974C33.3379 12.405 33.4015 12.5284 33.4393 12.6605C33.4772 12.7927 33.4887 12.931 33.4731 13.0676C33.4575 13.2042 33.4152 13.3363 33.3486 13.4565C33.2821 13.5768 33.1926 13.6829 33.0851 13.7686C32.9775 13.8543 32.854 13.918 32.7218 13.956C32.5895 13.9939 32.451 14.0054 32.3143 13.9897C32.1776 13.974 32.0454 13.9315 31.9251 13.8645L31.9218 13.8627C23.3293 8.90793 12.0329 15.5699 12.2031 25.4955L12.2032 25.4995C12.2071 29.0249 13.6092 32.4047 16.102 34.8976C18.5948 37.3904 21.9747 38.7926 25.5001 38.7965H25.5041C35.4299 38.9688 42.0912 27.6694 37.1374 19.078L37.1358 19.0753C37.0685 18.9551 37.0256 18.8226 37.0095 18.6857C36.9935 18.5488 37.0047 18.4101 37.0424 18.2776C37.0801 18.145 37.1436 18.0212 37.2293 17.9133C37.315 17.8053 37.4211 17.7153 37.5417 17.6485C37.6622 17.5817 37.7947 17.5393 37.9317 17.5238C38.0686 17.5083 38.2073 17.5201 38.3397 17.5583C38.4721 17.5965 38.5957 17.6605 38.7033 17.7466C38.8109 17.8327 38.9004 17.9392 38.9668 18.06Z" fill="#7DC6E9"/>
<path d="M34.683 11.0754L34.9757 14.8974L24.9365 24.9367C24.7921 25.0871 24.7125 25.2882 24.7146 25.4967C24.7168 25.7052 24.8006 25.9046 24.948 26.052C25.0955 26.1994 25.2949 26.2832 25.5034 26.2854C25.7119 26.2875 25.9129 26.2078 26.0634 26.0634L36.1025 16.0243L39.9246 16.3169C40.0391 16.3257 40.1542 16.3096 40.2619 16.2697C40.3697 16.2298 40.4675 16.1671 40.5487 16.0858L46.3486 10.2863C46.4542 10.1776 46.5268 10.0413 46.5581 9.8931C46.5894 9.74489 46.5781 9.59084 46.5255 9.44879C46.4729 9.30673 46.3811 9.18247 46.2609 9.09037C46.1406 8.99827 45.9967 8.9421 45.8459 8.92836L42.3401 8.65987L42.0716 5.15405C42.0578 5.00323 42.0016 4.8594 41.9095 4.73919C41.8174 4.61897 41.6931 4.52728 41.5511 4.4747C41.4091 4.42213 41.255 4.41083 41.1069 4.44209C40.9587 4.47336 40.8224 4.54593 40.7137 4.65141L34.9142 10.4512C34.8329 10.5324 34.7701 10.6302 34.7302 10.738C34.6903 10.8457 34.6742 10.9608 34.683 11.0754ZM40.6148 7.00383C40.9338 10.7149 40.3061 10.0616 43.9962 10.3851L39.681 14.6998L36.5406 14.4593L36.3001 11.3189L40.6148 7.00383Z" fill="#7DC6E9"/>
<path fill-rule="evenodd" clip-rule="evenodd" d="M24.9365 24.9367L34.9757 14.8974L34.683 11.0754C34.6742 10.9608 34.6903 10.8457 34.7302 10.738C34.7701 10.6302 34.8329 10.5324 34.9142 10.4512L40.7137 4.65141C40.8224 4.54593 40.9587 4.47336 41.1069 4.44209C41.255 4.41083 41.4091 4.42213 41.5511 4.4747C41.6931 4.52728 41.8174 4.61897 41.9095 4.73919C42.0016 4.8594 42.0578 5.00323 42.0716 5.15405L42.3401 8.65987L45.8459 8.92836C45.9967 8.9421 46.1406 8.99827 46.2609 9.09037C46.3811 9.18247 46.4729 9.30673 46.5255 9.44879C46.5781 9.59084 46.5894 9.74489 46.5581 9.8931C46.5268 10.0413 46.4542 10.1776 46.3486 10.2863L40.5487 16.0858C40.4675 16.1671 40.3697 16.2298 40.2619 16.2697C40.1542 16.3096 40.0391 16.3257 39.9246 16.3169L36.1025 16.0243L26.0634 26.0634C25.9129 26.2078 25.7119 26.2875 25.5034 26.2854C25.2949 26.2832 25.0955 26.1994 24.948 26.052C24.8006 25.9046 24.7168 25.7052 24.7146 25.4967C24.7125 25.2882 24.7921 25.0871 24.9365 24.9367ZM36.198 16.2823L26.2365 26.2439C26.0389 26.4335 25.7747 26.5382 25.5008 26.5353C25.2269 26.5325 24.965 26.4225 24.7713 26.2288C24.5776 26.0351 24.4675 25.7732 24.4647 25.4993C24.4618 25.2253 24.5665 24.9612 24.7561 24.7636L24.7597 24.7598L34.7176 14.8019L34.4338 11.0946C34.4222 10.9441 34.4433 10.7927 34.4958 10.6511C34.5482 10.5096 34.6307 10.381 34.7376 10.2743M36.198 16.2823L39.9055 16.5662C40.056 16.5777 40.2072 16.5565 40.3488 16.5041C40.4903 16.4517 40.6188 16.3693 40.7255 16.2625L46.5254 10.4631L46.528 10.4605C46.6664 10.318 46.7616 10.1392 46.8027 9.94475C46.8437 9.75035 46.8289 9.54831 46.7599 9.36199C46.6909 9.17566 46.5706 9.01268 46.4129 8.89188C46.2551 8.77109 46.0664 8.69741 45.8685 8.67939L42.573 8.42698L42.3209 5.13496L42.3206 5.13125C42.3025 4.93344 42.2288 4.7448 42.1079 4.58713C41.9871 4.42946 41.8242 4.3092 41.6379 4.24025C41.4516 4.1713 41.2496 4.15647 41.0552 4.19748C40.8609 4.23849 40.6821 4.33367 40.5396 4.47201L34.7376 10.2743M40.6148 7.00383L36.3001 11.3189L36.5406 14.4593L39.681 14.6998L43.9962 10.3851C43.8833 10.3752 43.7746 10.3662 43.6697 10.358C42.0581 10.2318 41.3637 10.285 41.0408 9.96423C40.7181 9.64374 40.7664 8.94991 40.6415 7.33076C40.6334 7.22572 40.6246 7.1168 40.6148 7.00383ZM40.4082 7.5641L36.5582 11.4144L36.7735 14.2264L39.5855 14.4418L43.4365 10.5911C43.2005 10.574 42.9855 10.5605 42.7894 10.5487C42.7415 10.5458 42.6947 10.543 42.6488 10.5402C42.3748 10.5238 42.1367 10.5096 41.9333 10.4911C41.4773 10.4497 41.1094 10.3841 40.8654 10.1424C40.6209 9.9002 40.5528 9.53298 40.5099 9.0756C40.4899 8.86275 40.4748 8.61192 40.4572 8.32127C40.4551 8.28691 40.453 8.25199 40.4508 8.21652C40.4388 8.01896 40.4253 7.80227 40.4082 7.5641Z" fill="#7DC6E9"/>
</svg>
