<svg width="51" height="51" viewBox="0 0 51 51" fill="none" xmlns="http://www.w3.org/2000/svg">
<path d="M25.4949 47.9374L25.4949 47.9375H25.5001C29.3649 47.9375 33.1642 46.9392 36.5298 45.0394C39.8954 43.1395 42.7133 40.4025 44.7102 37.0936C46.7072 33.7847 47.8156 30.016 47.9281 26.1529C48.0405 22.2897 47.1531 18.4629 45.352 15.0435L45.3514 15.0423C45.2357 14.8282 45.0401 14.6685 44.8073 14.5981C44.5744 14.5276 44.3231 14.5521 44.1081 14.6661C43.8932 14.7802 43.7321 14.9746 43.6599 15.207C43.5877 15.4393 43.6103 15.6908 43.7228 15.9066L43.7231 15.9071C45.282 18.8633 46.0958 22.1553 46.0938 25.4974C44.9626 52.8164 6.03662 52.8164 4.90628 25.4965C4.71692 10.2278 21.7 -0.00809979 35.0917 7.27652L35.0928 7.27713C35.3089 7.39172 35.5615 7.4158 35.7953 7.34408C36.0291 7.27236 36.2248 7.11072 36.3393 6.89471C36.4539 6.6787 36.478 6.42602 36.4063 6.19225C36.3346 5.95849 36.1729 5.76279 35.9569 5.6482L35.9567 5.64807C32.7336 3.94782 29.1441 3.06027 25.5 3.0625V3.0624L25.4949 3.06261C-4.26115 4.29206 -4.26084 46.7085 25.4949 47.9374Z" fill="#7DC6E9" stroke="#7DC6E9" stroke-width="0.25"/>
<path d="M31.5439 23.4807L31.4256 23.521C31.6427 24.1573 31.7523 24.8253 31.7501 25.4975C31.4346 33.7785 19.5657 33.7788 19.25 25.4977C19.2526 23.8416 19.9116 22.2539 21.0828 21.0828C22.2545 19.9111 23.8431 19.252 25.5001 19.2501C26.1762 19.2497 26.8477 19.3619 27.4869 19.5822L27.4869 19.5822C27.7181 19.6618 27.9713 19.6463 28.1911 19.5392C28.4108 19.4321 28.579 19.2421 28.6586 19.011L28.6591 19.0111L28.6618 19.0004C28.7594 18.6071 28.6592 18.3004 28.4285 18.0736C28.2069 17.8557 27.8748 17.7211 27.5226 17.633C26.9947 17.5008 26.3715 17.4628 25.9088 17.4346C25.7558 17.4253 25.6204 17.417 25.5118 17.4068L25.5034 17.406L25.4949 17.4064C14.7648 17.8498 14.7652 33.1508 25.4949 33.5938L25.4949 33.5939L25.5002 33.5939C27.6461 33.5915 29.7033 32.738 31.2206 31.2206C32.7379 29.7033 33.5914 27.6461 33.5938 25.5003L33.5943 25.5003L33.5933 25.4892C33.5839 25.3825 33.5763 25.2518 33.5678 25.1051C33.5405 24.6376 33.5038 24.0077 33.3703 23.4759C33.2825 23.1257 33.1482 22.7961 32.9309 22.5765C32.7047 22.3478 32.399 22.2492 32.0076 22.3465L32.0075 22.346L31.9971 22.3496C31.8826 22.389 31.777 22.4505 31.6863 22.5307C31.5956 22.6109 31.5216 22.7083 31.4685 22.8171C31.4155 22.9259 31.3844 23.0442 31.377 23.165C31.3697 23.2859 31.3863 23.407 31.4258 23.5215L31.5439 23.4807ZM31.5439 23.4807C31.5098 23.3818 31.4955 23.2771 31.5018 23.1726C31.5082 23.0681 31.535 22.9659 31.5809 22.8719C31.6268 22.7778 31.6907 22.6937 31.7691 22.6244C31.8475 22.555 31.9388 22.5018 32.0378 22.4678L19.125 25.5C19.4445 33.9446 31.5555 33.9443 31.875 25.5001C31.8776 24.8133 31.7657 24.1308 31.5439 23.4807Z" fill="#7DC6E9" stroke="#7DC6E9" stroke-width="0.25"/>
<path d="M32.8799 12.143L32.8799 12.143C32.9858 12.2017 33.0791 12.2807 33.1545 12.3754C33.2299 12.4702 33.2858 12.5788 33.3192 12.6952C33.3525 12.8116 33.3626 12.9334 33.3489 13.0537C33.3352 13.1739 33.298 13.2902 33.2393 13.396C33.2393 13.3961 33.2392 13.3961 33.2392 13.3962L33.1299 13.3356L32.8799 12.143ZM32.8799 12.143C30.621 10.8927 28.0819 10.236 25.5001 10.2344V10.2343L25.4948 10.2345C5.2519 11.0711 5.25214 39.9293 25.495 40.7655L25.495 40.7656L25.5 40.7656C28.1556 40.7672 30.7655 40.0756 33.0719 38.7592C35.3782 37.4428 37.3009 35.5472 38.65 33.2599C39.9992 30.9726 40.7279 28.3728 40.7642 25.7175C40.8005 23.0623 40.1432 20.4436 38.8571 18.1203M32.8799 12.143L38.8571 18.1203M38.8571 18.1203C38.7987 18.014 38.7199 17.9202 38.6252 17.8445C38.5304 17.7686 38.4216 17.7123 38.305 17.6786C38.1884 17.6449 38.0663 17.6346 37.9457 17.6483C37.8251 17.6619 37.7084 17.6992 37.6023 17.758C37.4961 17.8169 37.4027 17.8961 37.3272 17.9912L37.4251 18.0689L38.8571 18.1203Z" fill="#7DC6E9" stroke="#7DC6E9" stroke-width="0.25"/>
<path d="M24.8481 24.8482L24.8481 24.8483L34.8467 14.8497L34.5584 11.085L34.5584 11.0849L34.683 11.0754L24.8481 24.8482ZM24.8481 24.8482L24.8463 24.8501M24.8481 24.8482L24.8463 24.8501M24.8463 24.8501C24.6793 25.0242 24.5872 25.2568 24.5896 25.498C24.5921 25.7392 24.6891 25.9698 24.8597 26.1404C25.0302 26.311 25.2609 26.4079 25.5021 26.4103C25.7433 26.4128 25.9759 26.3207 26.1499 26.1536L26.15 26.1536M24.8463 24.8501L26.15 26.1536M26.15 26.1536L26.1518 26.1518M26.15 26.1536L26.1518 26.1518M26.1518 26.1518L36.1503 16.1533L39.915 16.4416C40.0476 16.4517 40.1807 16.4331 40.3053 16.3869C40.43 16.3408 40.5431 16.2682 40.6371 16.1742C40.6371 16.1742 40.6371 16.1742 40.6371 16.1742L46.437 10.3747L46.4383 10.3734M26.1518 26.1518L46.4383 10.3734M46.4383 10.3734C46.5603 10.2478 46.6442 10.0902 46.6804 9.91893C46.7165 9.74762 46.7035 9.56958 46.6427 9.40539C46.5819 9.2412 46.4759 9.09757 46.3369 8.99112C46.1979 8.88468 46.0316 8.81976 45.8572 8.80387L45.8554 8.80373M46.4383 10.3734L45.8554 8.80373M45.8554 8.80373L42.4566 8.54343L42.1963 5.14451L42.1961 5.14265M45.8554 8.80373L42.1961 5.14265M42.1961 5.14265C42.1801 4.96834 42.1152 4.8021 42.0087 4.66316C41.9022 4.52422 41.7586 4.41824 41.5945 4.35748C41.4303 4.29671 41.2523 4.28365 41.081 4.31979C40.9098 4.35593 40.7522 4.4398 40.6266 4.56171L40.6253 4.56302M42.1961 5.14265L40.6253 4.56302M40.6253 4.56302L34.8259 10.3628L40.6253 4.56302ZM36.4292 11.3667L40.5124 7.28308C40.5398 7.63187 40.5591 7.9386 40.5756 8.20892C40.5777 8.24438 40.5799 8.27925 40.5819 8.31352C40.5996 8.60471 40.6146 8.8533 40.6344 9.06393C40.6776 9.52546 40.7451 9.84725 40.9534 10.0536C41.1614 10.2597 41.4841 10.3248 41.9446 10.3667C42.1459 10.3849 42.3818 10.399 42.656 10.4154C42.7019 10.4182 42.7489 10.421 42.797 10.4239C43.0659 10.4402 43.3708 10.4595 43.7173 10.4872L39.6333 14.5708L36.6571 14.3429L36.4292 11.3667Z" fill="#7DC6E9" stroke="#7DC6E9" stroke-width="0.25"/>
</svg>
