<svg width="40" height="40" viewBox="0 0 40 40" fill="none" xmlns="http://www.w3.org/2000/svg">
<g clip-path="url(#clip0_610_1184)">
<path d="M38.5547 16.532C38.1194 16.2943 37.6269 16.1813 37.1315 16.2053C36.636 16.2293 36.1568 16.3895 35.7465 16.6681L26.6835 22.7099C26.4697 22.102 26.0729 21.5752 25.5477 21.2019C25.0224 20.8286 24.3944 20.6271 23.75 20.6251H10.625C10.543 20.625 10.4617 20.6412 10.3859 20.6726C10.31 20.7041 10.2412 20.7501 10.1832 20.8082L6.25003 24.7413L5.4419 23.9332C5.38388 23.8751 5.31499 23.8291 5.23917 23.7977C5.16335 23.7662 5.08208 23.7501 5.00001 23.7501C4.91793 23.7501 4.83667 23.7662 4.76084 23.7977C4.68502 23.8291 4.61613 23.8751 4.55812 23.9332L1.43311 27.0582C1.37506 27.1162 1.32901 27.1851 1.2976 27.2609C1.26618 27.3367 1.25001 27.418 1.25001 27.5001C1.25001 27.5821 1.26618 27.6634 1.2976 27.7392C1.32901 27.8151 1.37506 27.8839 1.43311 27.942L2.24124 28.7501L0.183152 30.8082C0.124259 30.866 0.0774069 30.9349 0.0453016 31.011C0.0131963 31.087 -0.00352604 31.1687 -0.00389984 31.2512C-0.00427365 31.3338 0.0117085 31.4156 0.0431238 31.4919C0.074539 31.5682 0.120765 31.6376 0.179132 31.696C0.237499 31.7543 0.306851 31.8005 0.383182 31.832C0.459514 31.8634 0.541313 31.8794 0.623855 31.879C0.706398 31.8786 0.788048 31.8619 0.864092 31.8298C0.940136 31.7977 1.00907 31.7508 1.0669 31.6919L3.12503 29.6338L10.3662 36.8751L8.30812 38.9332C8.24949 38.9911 8.20289 39.06 8.171 39.136C8.13911 39.212 8.12256 39.2935 8.1223 39.3759C8.12204 39.4583 8.13808 39.5399 8.1695 39.6161C8.20091 39.6923 8.24708 39.7615 8.30534 39.8197C8.36361 39.878 8.43282 39.9242 8.509 39.9556C8.58517 39.987 8.66681 40.003 8.74921 40.0028C8.8316 40.0025 8.91314 39.9859 8.98911 39.9541C9.06509 39.9222 9.13401 39.8756 9.1919 39.8169L11.25 37.7588L12.0582 38.567C12.1162 38.625 12.1851 38.6711 12.2609 38.7025C12.3367 38.7339 12.418 38.7501 12.5 38.7501C12.5821 38.7501 12.6634 38.7339 12.7392 38.7025C12.815 38.6711 12.8839 38.625 12.9419 38.567L16.0669 35.442C16.125 35.3839 16.171 35.3151 16.2025 35.2392C16.2339 35.1634 16.25 35.0821 16.25 35.0001C16.25 34.918 16.2339 34.8367 16.2025 34.7609C16.171 34.6851 16.125 34.6162 16.0669 34.5582L15.2588 33.7501L17.1338 31.8751H24.375C24.5102 31.8751 24.6417 31.8312 24.7498 31.7499L38.9063 21.1332C39.2451 20.8775 39.5202 20.5468 39.7099 20.1671C39.8997 19.7874 39.999 19.3689 40 18.9444C40.0044 18.4483 39.8717 17.9605 39.6167 17.5349C39.3617 17.1093 38.9942 16.7623 38.5547 16.532ZM12.5 37.2413L2.75881 27.5001L5.00003 25.2588L14.7412 35.0001L12.5 37.2413ZM38.1562 20.1334L24.1669 30.6251H16.875C16.793 30.625 16.7117 30.6412 16.6359 30.6726C16.56 30.7041 16.4912 30.7501 16.4332 30.8082L14.375 32.8663L7.13381 25.6251L10.8838 21.8751H23.75C24.2473 21.8751 24.7242 22.0726 25.0759 22.4242C25.4275 22.7759 25.625 23.2528 25.625 23.7501C25.625 24.2473 25.4275 24.7242 25.0759 25.0759C24.7242 25.4275 24.2473 25.6251 23.75 25.6251H15.625C15.4593 25.6251 15.3003 25.6909 15.1831 25.8081C15.0659 25.9253 15 26.0843 15 26.2501C15 26.4158 15.0659 26.5748 15.1831 26.692C15.3003 26.8092 15.4593 26.8751 15.625 26.8751H23.75C24.5144 26.8726 25.2513 26.5895 25.8207 26.0796C26.3902 25.5696 26.7524 24.8682 26.8388 24.1087L36.4398 17.7082C36.6636 17.559 36.9237 17.4733 37.1923 17.4603C37.461 17.4473 37.7281 17.5075 37.9652 17.6344C38.2023 17.7613 38.4006 17.9501 38.5388 18.1809C38.677 18.4116 38.75 18.6755 38.75 18.9444C38.7495 19.175 38.6955 19.4023 38.5925 19.6086C38.4895 19.8148 38.3401 19.9945 38.1562 20.1334Z" fill="#000D22"/>
<path d="M13.213 19.375C13.3197 19.3748 13.4247 19.3473 13.5178 19.295C13.6109 19.2428 13.6891 19.1676 13.7449 19.0766C13.8007 18.9855 13.8323 18.8817 13.8366 18.775C13.8409 18.6684 13.8179 18.5623 13.7696 18.4671C12.9286 16.8124 12.4934 14.9812 12.5001 13.125C12.5001 9.97555 13.7512 6.9551 15.9782 4.72811C18.2052 2.50111 21.2256 1.25 24.3751 1.25C27.5245 1.25 30.545 2.50111 32.772 4.72811C34.999 6.9551 36.2501 9.97555 36.2501 13.125C36.2514 13.5142 36.2319 13.9031 36.1915 14.2902C36.1828 14.3718 36.1903 14.4543 36.2134 14.533C36.2366 14.6117 36.2751 14.6851 36.3266 14.7489C36.3782 14.8128 36.4418 14.8658 36.5139 14.9051C36.5859 14.9443 36.665 14.969 36.7466 14.9777C36.8282 14.9864 36.9107 14.979 36.9894 14.9558C37.0681 14.9326 37.1415 14.8941 37.2054 14.8426C37.2692 14.791 37.3223 14.7274 37.3615 14.6553C37.4008 14.5833 37.4255 14.5042 37.4342 14.4226C37.4794 13.9916 37.5014 13.5584 37.5001 13.125C37.5001 9.64403 36.1173 6.30564 33.6559 3.84422C31.1944 1.38281 27.856 0 24.3751 0C20.8941 0 17.5557 1.38281 15.0943 3.84422C12.6329 6.30564 11.2501 9.64403 11.2501 13.125C11.2428 15.1779 11.7244 17.203 12.6551 19.0329C12.7073 19.136 12.7871 19.2226 12.8856 19.283C12.9841 19.3434 13.0974 19.3752 13.213 19.375Z" fill="#000D22"/>
<path d="M33.9392 16.1261C34.1003 16.1653 34.2704 16.1389 34.4121 16.0528C34.5538 15.9667 34.6555 15.8278 34.6948 15.6668C35.0542 14.207 35.0998 12.6875 34.8285 11.2087C34.5571 9.72999 33.9751 8.32565 33.1209 7.0885C32.2666 5.85135 31.1596 4.80954 29.8729 4.03191C28.5862 3.25427 27.1492 2.75852 25.6567 2.5774C24.1642 2.39628 22.6503 2.53391 21.2149 2.9812C19.7796 3.42849 18.4555 4.17526 17.3301 5.17218C16.2048 6.16909 15.3037 7.39345 14.6866 8.76437C14.0694 10.1353 13.7502 11.6216 13.75 13.125C13.7474 15.2555 14.3858 17.3375 15.5823 19.1003C15.6752 19.2376 15.8188 19.3323 15.9816 19.3637C16.1444 19.3951 16.3129 19.3605 16.4502 19.2676C16.5875 19.1746 16.6822 19.031 16.7136 18.8682C16.7449 18.7055 16.7104 18.5369 16.6174 18.3996C15.7924 17.1861 15.2637 15.796 15.0739 14.3409C14.884 12.8859 15.0382 11.4066 15.5241 10.022C16.0101 8.63738 16.8142 7.38615 17.8717 6.36891C18.9293 5.35168 20.2108 4.59682 21.6132 4.16505C23.0157 3.73328 24.4998 3.63665 25.9464 3.88293C27.393 4.12922 28.7616 4.71154 29.9421 5.58307C31.1226 6.45459 32.0822 7.591 32.7435 8.90089C33.4049 10.2108 33.7496 11.6576 33.75 13.125C33.7498 13.8817 33.6593 14.6356 33.4802 15.3708C33.441 15.5318 33.4673 15.7018 33.5534 15.8435C33.6394 15.9851 33.7782 16.0868 33.9392 16.1261Z" fill="#000D22"/>
<path d="M24.375 6.875C24.4571 6.87502 24.5384 6.85887 24.6142 6.82747C24.69 6.79607 24.7589 6.75003 24.817 6.69199C24.875 6.63395 24.9211 6.56504 24.9525 6.4892C24.9839 6.41336 25 6.33208 25 6.25V5.625C25 5.45924 24.9342 5.30027 24.8169 5.18306C24.6997 5.06585 24.5408 5 24.375 5C24.2092 5 24.0503 5.06585 23.9331 5.18306C23.8158 5.30027 23.75 5.45924 23.75 5.625V6.25C23.75 6.33208 23.7661 6.41336 23.7975 6.4892C23.8289 6.56504 23.875 6.63395 23.933 6.69199C23.9911 6.75003 24.06 6.79607 24.1358 6.82747C24.2116 6.85887 24.2929 6.87502 24.375 6.875Z" fill="#000D22"/>
<path d="M20.3125 6.08886C20.2414 6.12985 20.1791 6.18445 20.1291 6.24954C20.0791 6.31463 20.0424 6.38894 20.0212 6.46821C19.9999 6.54748 19.9945 6.63017 20.0052 6.71154C20.0159 6.79291 20.0426 6.87137 20.0837 6.94244L20.3962 7.48351C20.4791 7.627 20.6156 7.73169 20.7757 7.77456C20.9358 7.81743 21.1063 7.79497 21.2499 7.71212C21.3934 7.62926 21.4982 7.4928 21.5411 7.33273C21.5841 7.17266 21.5617 7.00209 21.4789 6.85851L21.1664 6.31744C21.1254 6.24632 21.0708 6.18398 21.0056 6.134C20.9405 6.08401 20.8662 6.04736 20.7869 6.02613C20.7076 6.0049 20.6248 5.99951 20.5435 6.01028C20.4621 6.02104 20.3836 6.04774 20.3125 6.08886Z" fill="#000D22"/>
<path d="M18.7335 9.14613L18.1921 8.83363C18.1211 8.79255 18.0426 8.76587 17.9611 8.75513C17.8797 8.74439 17.797 8.74979 17.7177 8.77103C17.6384 8.79227 17.564 8.82893 17.4989 8.87892C17.4337 8.9289 17.379 8.99124 17.338 9.06236C17.2969 9.13347 17.2703 9.21198 17.2596 9.2934C17.2489 9.37482 17.2543 9.45754 17.2756 9.53685C17.2969 9.61616 17.3336 9.6905 17.3836 9.75563C17.4336 9.82075 17.496 9.87538 17.5671 9.9164L18.1085 10.2289C18.1796 10.27 18.2581 10.2967 18.3395 10.3074C18.4209 10.3181 18.5037 10.3127 18.583 10.2915C18.6623 10.2703 18.7367 10.2336 18.8018 10.1836C18.867 10.1336 18.9216 10.0713 18.9627 10.0002C19.0037 9.92906 19.0304 9.85055 19.0411 9.76913C19.0518 9.68772 19.0463 9.60499 19.0251 9.52568C19.0038 9.44637 18.9671 9.37203 18.9171 9.3069C18.867 9.24178 18.8047 9.18715 18.7335 9.14613Z" fill="#000D22"/>
<path d="M18.125 13.125C18.125 13.0429 18.1089 12.9616 18.0775 12.8858C18.0461 12.81 18 12.7411 17.942 12.683C17.8839 12.625 17.815 12.5789 17.7392 12.5475C17.6634 12.5161 17.5821 12.5 17.5 12.5H16.875C16.7092 12.5 16.5503 12.5658 16.4331 12.6831C16.3158 12.8003 16.25 12.9592 16.25 13.125C16.25 13.2908 16.3158 13.4497 16.4331 13.5669C16.5503 13.6842 16.7092 13.75 16.875 13.75H17.5C17.5821 13.75 17.6634 13.7339 17.7392 13.7025C17.815 13.6711 17.8839 13.625 17.942 13.567C18 13.5089 18.0461 13.44 18.0775 13.3642C18.1089 13.2884 18.125 13.2071 18.125 13.125Z" fill="#000D22"/>
<path d="M17.8802 17.5C17.9897 17.5001 18.0973 17.4713 18.1921 17.4164L18.7335 17.1039C18.8046 17.0629 18.867 17.0083 18.917 16.9431C18.967 16.878 19.0037 16.8037 19.025 16.7244C19.0463 16.645 19.0517 16.5623 19.041 16.4809C19.0303 16.3995 19.0037 16.321 18.9626 16.2499C18.9216 16.1787 18.8669 16.1164 18.8018 16.0664C18.7366 16.0164 18.6623 15.9798 18.5829 15.9585C18.5036 15.9373 18.4209 15.9319 18.3395 15.9426C18.2581 15.9534 18.1796 15.98 18.1085 16.0211L17.5671 16.3336C17.4478 16.4024 17.3546 16.5087 17.302 16.6359C17.2493 16.7631 17.2401 16.9041 17.2758 17.0371C17.3115 17.17 17.3901 17.2875 17.4994 17.3712C17.6087 17.4549 17.7425 17.5002 17.8802 17.5Z" fill="#000D22"/>
<path d="M27.5837 19.9325C27.6386 20.0276 27.7176 20.1066 27.8128 20.1614C27.9079 20.2163 28.0158 20.2451 28.1257 20.245C28.2353 20.2448 28.343 20.2158 28.4379 20.1609C28.5327 20.106 28.6115 20.0271 28.6663 19.9321C28.7211 19.8372 28.7499 19.7295 28.75 19.6198C28.75 19.5102 28.7212 19.4025 28.6664 19.3075L28.3539 18.7664C28.271 18.6229 28.1345 18.5182 27.9744 18.4754C27.8143 18.4325 27.6438 18.455 27.5002 18.5378C27.3567 18.6207 27.2519 18.7571 27.209 18.9172C27.166 19.0773 27.1884 19.2478 27.2712 19.3914L27.5837 19.9325Z" fill="#000D22"/>
<path d="M30.0165 17.1039L30.5579 17.4164C30.7014 17.4992 30.872 17.5216 31.0321 17.4786C31.1922 17.4356 31.3286 17.3309 31.4115 17.1874C31.4943 17.0438 31.5168 16.8733 31.4739 16.7132C31.4311 16.5531 31.3264 16.4166 31.1829 16.3336L30.6415 16.0211C30.5704 15.98 30.4919 15.9534 30.4105 15.9426C30.3291 15.9319 30.2463 15.9373 30.167 15.9585C30.0877 15.9798 30.0133 16.0164 29.9482 16.0664C29.883 16.1164 29.8284 16.1787 29.7873 16.2499C29.7463 16.321 29.7196 16.3995 29.7089 16.4809C29.6982 16.5623 29.7037 16.645 29.725 16.7244C29.7463 16.8037 29.783 16.878 29.833 16.9431C29.883 17.0083 29.9454 17.0629 30.0165 17.1039Z" fill="#000D22"/>
<path d="M32.5 13.125C32.5 13.0429 32.4839 12.9616 32.4525 12.8858C32.4211 12.81 32.375 12.7411 32.317 12.683C32.2589 12.625 32.19 12.5789 32.1142 12.5475C32.0384 12.5161 31.9571 12.5 31.875 12.5H31.25C31.0842 12.5 30.9253 12.5658 30.8081 12.6831C30.6908 12.8003 30.625 12.9592 30.625 13.125C30.625 13.2908 30.6908 13.4497 30.8081 13.5669C30.9253 13.6842 31.0842 13.75 31.25 13.75H31.875C31.9571 13.75 32.0384 13.7339 32.1142 13.7025C32.19 13.6711 32.2589 13.625 32.317 13.567C32.375 13.5089 32.4211 13.44 32.4525 13.3642C32.4839 13.2884 32.5 13.2071 32.5 13.125Z" fill="#000D22"/>
<path d="M30.3296 10.3125C30.4391 10.3126 30.5467 10.2838 30.6414 10.2289L31.1828 9.9164C31.254 9.87538 31.3163 9.82075 31.3663 9.75563C31.4164 9.6905 31.4531 9.61616 31.4743 9.53685C31.4956 9.45754 31.5011 9.37482 31.4904 9.2934C31.4797 9.21198 31.453 9.13347 31.412 9.06236C31.3709 8.99124 31.3163 8.9289 31.2511 8.87892C31.186 8.82893 31.1116 8.79227 31.0323 8.77103C30.953 8.74979 30.8702 8.74439 30.7888 8.75513C30.7074 8.76587 30.6289 8.79255 30.5578 8.83363L30.0164 9.14613C29.8972 9.21493 29.804 9.32117 29.7513 9.44837C29.6986 9.57557 29.6894 9.7166 29.7251 9.84957C29.7608 9.98253 29.8394 10.1 29.9487 10.1837C30.058 10.2674 30.1919 10.3127 30.3296 10.3125Z" fill="#000D22"/>
<path d="M28.4376 6.08877C28.3665 6.0476 28.288 6.02085 28.2066 6.01006C28.1252 5.99926 28.0425 6.00463 27.9632 6.02587C27.8839 6.0471 27.8095 6.08378 27.7444 6.13379C27.6793 6.18381 27.6247 6.24619 27.5837 6.31735L27.2712 6.85842C27.1884 7.002 27.166 7.17257 27.209 7.33264C27.2519 7.49271 27.3567 7.62918 27.5002 7.71203C27.6438 7.79488 27.8143 7.81734 27.9744 7.77447C28.1345 7.7316 28.271 7.62692 28.3539 7.48342L28.6664 6.94235C28.7075 6.87128 28.7342 6.79282 28.7449 6.71145C28.7556 6.63008 28.7502 6.5474 28.7289 6.46812C28.7077 6.38885 28.671 6.31454 28.621 6.24945C28.571 6.18436 28.5087 6.12976 28.4376 6.08877Z" fill="#000D22"/>
<path d="M23.75 13.125C23.75 13.2071 23.7661 13.2884 23.7975 13.3642C23.8289 13.44 23.875 13.5089 23.933 13.567C23.9911 13.625 24.06 13.6711 24.1358 13.7025C24.2116 13.7339 24.2929 13.75 24.375 13.75H27.5C27.6658 13.75 27.8247 13.6842 27.9419 13.5669C28.0592 13.4497 28.125 13.2908 28.125 13.125C28.125 12.9592 28.0592 12.8003 27.9419 12.6831C27.8247 12.5658 27.6658 12.5 27.5 12.5H25V8.75C25 8.58424 24.9342 8.42527 24.8169 8.30806C24.6997 8.19085 24.5408 8.125 24.375 8.125C24.2092 8.125 24.0503 8.19085 23.9331 8.30806C23.8158 8.42527 23.75 8.58424 23.75 8.75V13.125Z" fill="#000D22"/>
</g>
<defs>
<clipPath id="clip0_610_1184">
<rect width="40" height="40" fill="white"/>
</clipPath>
</defs>
</svg>
