<svg width="51" height="51" viewBox="0 0 51 51" fill="none" xmlns="http://www.w3.org/2000/svg">
<path d="M29.2892 7.23188C29.3063 7.00618 29.408 6.79524 29.574 6.64133C29.7399 6.48742 29.9579 6.4019 30.1843 6.4019C30.4106 6.4019 30.6286 6.48742 30.7946 6.64133C30.9606 6.79524 31.0623 7.00618 31.0793 7.23188V8.96589C31.0781 9.03839 31.0942 9.11014 31.1264 9.17513C31.1586 9.24011 31.2059 9.29643 31.2643 9.33939C31.3228 9.38234 31.3906 9.41066 31.4623 9.42198C31.5339 9.43331 31.6072 9.42732 31.676 9.4045L35.756 7.61439C35.8401 7.58421 35.9127 7.52883 35.9641 7.4558C36.0155 7.38278 36.0431 7.29567 36.0431 7.20639C36.0431 7.1171 36.0155 7.02999 35.9641 6.95696C35.9127 6.88394 35.8401 6.82856 35.756 6.79838L29.8502 4.24839C28.769 3.81489 29.4728 2.20838 30.554 2.62148L39.224 6.42098C39.3862 6.48643 39.5251 6.59883 39.6229 6.74377C39.7207 6.88872 39.7729 7.05958 39.7729 7.23444C39.7729 7.40929 39.7207 7.58015 39.6229 7.7251C39.5251 7.87004 39.3862 7.98244 39.224 8.04788L31.3139 11.4649C31.2417 11.4955 31.1816 11.5491 31.1429 11.6173C31.1042 11.6855 31.089 11.7646 31.0997 11.8423V14.7187C31.0925 14.7768 31.0983 14.8359 31.1169 14.8915C31.1354 14.9471 31.1661 14.9978 31.2068 15.04L36.5159 20.956C36.572 21.0631 36.623 21.1141 36.6791 21.2263L48.4091 47.1496C48.4841 47.2907 48.5197 47.4494 48.512 47.609C48.5042 47.7686 48.4536 47.9232 48.3653 48.0564C48.277 48.1896 48.1544 48.2965 48.0104 48.3658C47.8664 48.4351 47.7064 48.4642 47.5472 48.4501H3.44244C3.2125 48.4501 2.99197 48.3587 2.82938 48.1961C2.66678 48.0336 2.57544 47.813 2.57544 47.5831C2.57544 47.3531 2.66678 47.1326 2.82938 46.97C2.99197 46.8074 3.2125 46.7161 3.44244 46.7161H5.12544C5.2417 46.7135 5.35417 46.6743 5.44674 46.6039L12.9284 39.5557C12.9942 39.4806 13.032 39.3851 13.0355 39.2854L14.5655 30.391C14.5709 30.2871 14.5977 30.1855 14.6442 30.0924C14.6907 29.9994 14.756 29.917 14.8358 29.8504L19.6043 25.6735C19.7001 25.575 19.8172 25.4998 19.9467 25.4537C20.0761 25.4076 20.2144 25.3918 20.3508 25.4076C20.4873 25.4234 20.6183 25.4703 20.7338 25.5446C20.8494 25.619 20.9462 25.7189 21.017 25.8367L27.5399 37.2301C27.6031 37.3282 27.645 37.4385 27.6627 37.5539C27.6805 37.6692 27.6737 37.787 27.6429 37.8996C27.6122 38.0122 27.558 38.117 27.484 38.2073C27.41 38.2975 27.3179 38.3712 27.2135 38.4235C27.115 38.4835 27.0052 38.5228 26.8909 38.5388C26.7766 38.5549 26.6602 38.5474 26.5489 38.5168C26.4376 38.4862 26.3338 38.4332 26.2437 38.361C26.1537 38.2889 26.0793 38.199 26.0252 38.0971L20.2418 28.1113C20.2083 28.0586 20.164 28.0136 20.1119 27.9792C20.0598 27.9448 20.001 27.9218 19.9394 27.9117C19.8778 27.9016 19.8147 27.9046 19.7543 27.9206C19.694 27.9365 19.6376 27.965 19.589 28.0042L16.3199 30.8806C16.2518 30.9617 16.1968 31.0529 16.1567 31.1509L14.7134 40.0453C14.6863 40.2418 14.5905 40.4225 14.4431 40.5553C12.602 42.4015 10.5977 44.1916 8.70054 45.9817C8.63678 46.0443 8.59343 46.1248 8.57618 46.2125C8.55892 46.3002 8.56857 46.3911 8.60385 46.4733C8.63913 46.5554 8.69841 46.625 8.7739 46.6729C8.8494 46.7207 8.9376 46.7447 9.02694 46.7416H29.7227C29.8024 46.7433 29.8811 46.7231 29.95 46.683C30.019 46.643 30.0755 46.5847 30.1135 46.5146C30.1514 46.4445 30.1693 46.3652 30.1652 46.2856C30.161 46.206 30.135 46.1291 30.0899 46.0633L28.1519 41.9425C28.0708 41.7764 28.0429 41.5892 28.0721 41.4067C28.1013 41.2241 28.1862 41.055 28.3151 40.9225L34.3841 34.6801C34.4374 34.6349 34.4761 34.5749 34.4952 34.5077C34.5142 34.4405 34.5129 34.3691 34.4912 34.3027L29.942 18.5131C29.9179 18.4291 29.8697 18.354 29.8035 18.297C29.7372 18.24 29.6558 18.2035 29.5691 18.1922C29.4825 18.1808 29.3944 18.195 29.3157 18.2329C29.237 18.2709 29.1711 18.3311 29.126 18.406L24.3065 26.7547C24.2463 26.8551 24.1668 26.9427 24.0727 27.0125C23.9785 27.0822 23.8716 27.1328 23.7579 27.1612C23.6443 27.1896 23.5261 27.1953 23.4102 27.1781C23.2944 27.1609 23.183 27.121 23.0825 27.0607C22.9821 27.0004 22.8945 26.9209 22.8247 26.8268C22.755 26.7327 22.7045 26.6257 22.676 26.5121C22.6476 26.3984 22.6419 26.2803 22.6591 26.1644C22.6764 26.0485 22.7163 25.9371 22.7765 25.8367L29.2331 14.7901C29.2892 14.7391 29.2892 14.683 29.2892 14.5759V7.23188ZM32.6399 46.7161H45.4919C45.5687 46.7139 45.6439 46.6934 45.711 46.6561C45.7782 46.6189 45.8354 46.5661 45.8779 46.5021C45.9204 46.4381 45.9469 46.3648 45.9552 46.2885C45.9634 46.2121 45.9533 46.1349 45.9254 46.0633L35.1389 22.0933L35.0318 21.9862L33.0275 19.7065C32.9571 19.6365 32.8657 19.5916 32.7673 19.5785C32.6689 19.5655 32.5689 19.585 32.4827 19.6342C32.3965 19.6834 32.3288 19.7595 32.2899 19.8509C32.2511 19.9422 32.2433 20.0438 32.2676 20.14L36.3884 34.5118C36.4371 34.6623 36.4423 34.8235 36.4035 34.9768C36.3647 35.1302 36.2835 35.2695 36.1691 35.3788L30.2123 41.4988C30.1393 41.559 30.0886 41.642 30.0682 41.7344C30.0479 41.8269 30.0591 41.9235 30.1001 42.0088L32.2166 46.456C32.2623 46.5321 32.3255 46.5964 32.4008 46.6433C32.4762 46.6903 32.5616 46.7188 32.6501 46.7263L32.6399 46.7161Z" fill="#7DC6E9"/>
<path fill-rule="evenodd" clip-rule="evenodd" d="M29.0392 7.22234L29.0399 7.21293C29.0617 6.92436 29.1918 6.65467 29.404 6.45789C29.6162 6.26112 29.8949 6.15178 30.1843 6.15178C30.4737 6.15178 30.7524 6.26112 30.9646 6.45789C31.1768 6.65467 31.3068 6.92436 31.3286 7.21293L31.3293 7.22234V8.97005C31.3288 9.00261 31.336 9.03484 31.3505 9.06404C31.3649 9.09324 31.3862 9.11854 31.4124 9.13783C31.4387 9.15712 31.4691 9.16984 31.5013 9.17493C31.5304 9.17953 31.5601 9.17777 31.5884 9.16982L35.6635 7.38188L35.6716 7.37897C35.7071 7.3662 35.7379 7.34276 35.7596 7.31184C35.7814 7.28093 35.7931 7.24405 35.7931 7.20627C35.7931 7.16848 35.7814 7.1316 35.7596 7.10069C35.7379 7.06977 35.7071 7.04633 35.6716 7.03356L35.6642 7.0309L29.754 4.47902C29.4222 4.34502 29.2089 4.11101 29.1151 3.83297C29.0233 3.56053 29.0531 3.26764 29.162 3.01755C29.3797 2.51741 29.9524 2.12388 30.6433 2.38783L30.6545 2.39212L39.3212 6.19049C39.528 6.27479 39.7052 6.41864 39.8301 6.60382C39.9558 6.79007 40.0229 7.00963 40.0229 7.23432C40.0229 7.459 39.9558 7.67856 39.8301 7.86481C39.705 8.05018 39.5277 8.19413 39.3206 8.2784L31.4116 11.6949C31.39 11.7041 31.3719 11.7201 31.3603 11.7406C31.3487 11.761 31.3442 11.7847 31.3474 11.808L31.3497 11.825V14.7341L31.3478 14.7495C31.3452 14.7706 31.3473 14.7921 31.354 14.8123C31.3608 14.8325 31.3719 14.8509 31.3867 14.8663L31.393 14.8728L36.7229 20.8122L36.7374 20.8399C36.7578 20.8788 36.7768 20.9073 36.8032 20.9469L36.8055 20.9504C36.8334 20.9922 36.8674 21.0437 36.9027 21.1144L36.9071 21.123L48.6338 47.0396C48.7273 47.2185 48.7714 47.4192 48.7617 47.621C48.7518 47.8255 48.6868 48.0237 48.5737 48.1944C48.4605 48.3651 48.3034 48.5021 48.1188 48.5909C47.9378 48.678 47.737 48.7156 47.5369 48.7H3.44244C3.14619 48.7 2.86208 48.5823 2.6526 48.3728C2.44312 48.1633 2.32544 47.8792 2.32544 47.583C2.32544 47.2867 2.44312 47.0026 2.6526 46.7931C2.86208 46.5837 3.14619 46.466 3.44244 46.466H5.12233C5.18124 46.4642 5.23827 46.4452 5.28638 46.4114L12.7464 39.3836C12.7705 39.353 12.7843 39.3155 12.7857 39.2765L12.7863 39.2595L14.3168 30.3621C14.3258 30.2293 14.3611 30.0996 14.4206 29.9805C14.482 29.8576 14.568 29.7487 14.6732 29.6604L19.4326 25.4915C19.5536 25.3693 19.7006 25.2758 19.8628 25.2181C20.0282 25.1591 20.205 25.139 20.3795 25.1591C20.554 25.1793 20.7215 25.2392 20.8692 25.3343C21.0169 25.4295 21.1408 25.5572 21.2313 25.7077L21.234 25.7123L27.7539 37.1005C27.834 37.2266 27.8871 37.368 27.9098 37.5157C27.9329 37.6658 27.9241 37.819 27.8841 37.9654C27.844 38.1119 27.7736 38.2482 27.6774 38.3656C27.5833 38.4804 27.4667 38.5745 27.3347 38.6422C27.2093 38.717 27.0703 38.766 26.9256 38.7863L26.8909 38.5387C27.0052 38.5226 27.115 38.4834 27.2135 38.4234C27.3179 38.3711 27.41 38.2974 27.484 38.2071C27.558 38.1169 27.6122 38.0121 27.6429 37.8995C27.6737 37.7869 27.6805 37.6691 27.6627 37.5538C27.645 37.4384 27.6031 37.3281 27.5399 37.23L21.017 25.8366C20.9462 25.7188 20.8494 25.6189 20.7338 25.5445C20.6183 25.4701 20.4873 25.4233 20.3508 25.4075C20.2144 25.3917 20.0761 25.4075 19.9467 25.4536C19.8172 25.4997 19.7001 25.5749 19.6043 25.6734L14.8358 29.8503C14.756 29.9169 14.6907 29.9993 14.6442 30.0923C14.5977 30.1854 14.5709 30.287 14.5655 30.3909L13.0355 39.2853C13.032 39.385 12.9942 39.4805 12.9284 39.5556L5.44674 46.6038C5.35417 46.6741 5.2417 46.7134 5.12544 46.716H3.44244C3.2125 46.716 2.99197 46.8073 2.82938 46.9699C2.66678 47.1325 2.57544 47.353 2.57544 47.583C2.57544 47.8129 2.66678 48.0334 2.82938 48.196C2.99197 48.3586 3.2125 48.45 3.44244 48.45H47.5472C47.7064 48.4641 47.8664 48.4349 48.0104 48.3656C48.1544 48.2963 48.277 48.1895 48.3653 48.0563C48.4536 47.9231 48.5042 47.7685 48.512 47.6089C48.5197 47.4493 48.4841 47.2906 48.4091 47.1495L36.6791 21.2262C36.6497 21.1673 36.6216 21.1252 36.5935 21.0831C36.5681 21.045 36.5426 21.0067 36.5159 20.9559L31.2068 15.0399C31.1661 14.9977 31.1354 14.9469 31.1169 14.8914C31.0983 14.8358 31.0925 14.7767 31.0997 14.7186V11.8422C31.089 11.7645 31.1042 11.6854 31.1429 11.6172C31.1816 11.549 31.2417 11.4954 31.3139 11.4648L39.224 8.04777C39.3862 7.98232 39.5251 7.86992 39.6229 7.72498C39.7207 7.58003 39.7729 7.40917 39.7729 7.23432C39.7729 7.05946 39.7207 6.8886 39.6229 6.74365C39.5251 6.59871 39.3862 6.48631 39.224 6.42087L30.554 2.62137C29.4728 2.20827 28.769 3.81477 29.8502 4.24827L35.756 6.79826C35.8401 6.82844 35.9127 6.88382 35.9641 6.95685C36.0155 7.02987 36.0431 7.11698 36.0431 7.20627C36.0431 7.29555 36.0155 7.38266 35.9641 7.45569C35.9127 7.52871 35.8401 7.58409 35.756 7.61427L31.676 9.40437C31.6072 9.42719 31.5339 9.43319 31.4623 9.42186C31.3906 9.41054 31.3228 9.38221 31.2643 9.33926C31.2059 9.29631 31.1586 9.23999 31.1264 9.17501C31.0942 9.11002 31.0781 9.03827 31.0793 8.96576V7.23177C31.0623 7.00605 30.9606 6.79512 30.7946 6.64121C30.6286 6.4873 30.4106 6.40178 30.1843 6.40178C29.9579 6.40178 29.7399 6.4873 29.574 6.64121C29.408 6.79512 29.3063 7.00605 29.2892 7.23177V14.5758C29.2892 14.6829 29.2892 14.739 29.2331 14.79L22.7765 25.8366C22.7163 25.937 22.6764 26.0484 22.6591 26.1643L22.4118 26.1275C22.4338 25.9796 22.4847 25.8375 22.5614 25.7092C22.5617 25.7088 22.5619 25.7084 22.5622 25.7079L29.0366 14.6307L29.0389 14.6287C29.0392 14.6154 29.0392 14.599 29.0392 14.5758V7.22234ZM22.676 26.5119C22.6476 26.3983 22.6419 26.2801 22.6591 26.1643L22.4118 26.1275C22.3898 26.2758 22.3971 26.4271 22.4335 26.5726L22.676 26.5119ZM23.4102 27.178C23.2944 27.1607 23.183 27.1208 23.0825 27.0606C22.9821 27.0003 22.8945 26.9208 22.8247 26.8267C22.755 26.7325 22.7045 26.6256 22.676 26.5119L22.4335 26.5726C22.4699 26.7181 22.5346 26.855 22.6239 26.9755C22.7131 27.096 22.8253 27.1978 22.9539 27.2749C23.0825 27.3521 23.2251 27.4032 23.3734 27.4253C23.5218 27.4473 23.673 27.44 23.8186 27.4036C23.9641 27.3672 24.101 27.3025 24.2215 27.2132C24.342 27.124 24.4437 27.0118 24.5209 26.8832L29.3412 18.5331C29.3611 18.5007 29.39 18.4746 29.4243 18.458C29.4592 18.4412 29.4982 18.4349 29.5366 18.4399C29.575 18.445 29.6111 18.4611 29.6404 18.4863C29.6697 18.5116 29.6911 18.5449 29.7018 18.5821L34.251 34.3718L34.2535 34.38C34.2598 34.3992 34.2602 34.4199 34.2547 34.4393C34.2491 34.4588 34.2379 34.4762 34.2225 34.4892L34.2133 34.497L28.136 40.748C27.9712 40.9174 27.8626 41.1337 27.8252 41.367C27.788 41.5998 27.8233 41.8384 27.9264 42.0503C27.9267 42.0509 27.927 42.0515 27.9273 42.0521L29.8723 46.1878L29.8837 46.2044C29.9027 46.2323 29.9137 46.2648 29.9155 46.2985C29.9173 46.3322 29.9097 46.3658 29.8936 46.3954C29.8776 46.4251 29.8536 46.4498 29.8244 46.4667C29.7953 46.4837 29.762 46.4923 29.7282 46.4915H9.02694L9.01826 46.4916C8.97926 46.493 8.94076 46.4825 8.90779 46.4616C8.87484 46.4407 8.84896 46.4103 8.83356 46.3745C8.81816 46.3386 8.81394 46.2989 8.82148 46.2607C8.82888 46.223 8.84728 46.1885 8.87433 46.1613C9.48419 45.5859 10.1069 45.0089 10.7326 44.4291C12.0439 43.214 13.3685 41.9866 14.6158 40.7361C14.8032 40.565 14.9252 40.3339 14.9607 40.0825L16.3986 31.2209C16.4253 31.1615 16.4595 31.1057 16.5002 31.0548L19.7493 28.196C19.7698 28.1803 19.7932 28.1688 19.8181 28.1622C19.8445 28.1552 19.872 28.1539 19.8989 28.1583C19.9258 28.1627 19.9515 28.1728 19.9742 28.1878C19.9958 28.202 20.0143 28.2204 20.0287 28.2419L25.8067 38.2185C25.8766 38.3487 25.972 38.4636 26.0874 38.556C26.204 38.6495 26.3386 38.7182 26.4827 38.7577C26.6269 38.7973 26.7776 38.807 26.9256 38.7863L26.8909 38.5387C26.7766 38.5547 26.6602 38.5472 26.5489 38.5167C26.4376 38.4861 26.3338 38.4331 26.2437 38.3609C26.1537 38.2888 26.0793 38.1989 26.0252 38.097L20.2418 28.1112C20.2083 28.0585 20.164 28.0135 20.1119 27.9791C20.0598 27.9447 20.001 27.9217 19.9394 27.9116C19.8778 27.9015 19.8147 27.9045 19.7543 27.9204C19.694 27.9364 19.6376 27.9649 19.589 28.0041L16.3199 30.8805C16.2518 30.9615 16.1968 31.0527 16.1567 31.1508L14.7134 40.0452C14.6863 40.2417 14.5905 40.4223 14.4431 40.5552C13.198 41.8037 11.8782 43.0267 10.5674 44.2413C9.94002 44.8226 9.31467 45.4021 8.70054 45.9816C8.63678 46.0442 8.59343 46.1247 8.57618 46.2124C8.55892 46.3001 8.56857 46.391 8.60385 46.4731C8.63913 46.5553 8.69841 46.6249 8.7739 46.6727C8.8494 46.7206 8.9376 46.7446 9.02694 46.7415H29.7227C29.8024 46.7432 29.8811 46.7229 29.95 46.6829C30.019 46.6428 30.0755 46.5846 30.1135 46.5145C30.1514 46.4443 30.1693 46.3651 30.1652 46.2855C30.161 46.2059 30.135 46.129 30.0899 46.0632L28.1519 41.9424C28.0708 41.7762 28.0429 41.5891 28.0721 41.4065C28.1013 41.224 28.1862 41.0549 28.3151 40.9224L34.3841 34.68C34.4374 34.6348 34.4761 34.5748 34.4952 34.5076C34.5142 34.4404 34.5129 34.369 34.4912 34.3026L29.942 18.513C29.9179 18.429 29.8697 18.3539 29.8035 18.2969C29.7372 18.2398 29.6558 18.2034 29.5691 18.192C29.4825 18.1807 29.3944 18.1948 29.3157 18.2328C29.237 18.2708 29.1711 18.331 29.126 18.4059L24.3065 26.7546C24.2463 26.855 24.1668 26.9426 24.0727 27.0124C23.9785 27.0821 23.8716 27.1326 23.7579 27.1611C23.6443 27.1895 23.5261 27.1952 23.4102 27.178ZM32.6113 46.466H45.4878C45.5235 46.4645 45.5585 46.4548 45.5898 46.4374C45.622 46.4196 45.6493 46.3943 45.6697 46.3637C45.69 46.333 45.7027 46.298 45.7066 46.2614C45.7104 46.2267 45.7062 46.1915 45.6943 46.1587L34.9298 22.2375L34.8494 22.1572L32.8465 19.879C32.8155 19.8503 32.7764 19.8318 32.7344 19.8262C32.6902 19.8204 32.6453 19.8292 32.6066 19.8513C32.5679 19.8734 32.5374 19.9075 32.52 19.9486C32.5029 19.9886 32.4992 20.0331 32.5092 20.0754L36.6277 34.4391C36.6895 34.6331 36.6958 34.8405 36.6459 35.038C36.5959 35.2354 36.4918 35.4148 36.3453 35.5561L30.3819 41.6828L30.3714 41.6916C30.3415 41.7162 30.3207 41.7502 30.3124 41.788C30.3041 41.8259 30.3087 41.8654 30.3255 41.9003L32.4364 46.3359C32.4612 46.3744 32.4942 46.4069 32.5331 46.4311C32.5575 46.4463 32.5839 46.458 32.6113 46.466ZM32.6399 46.7252C32.6372 46.7249 32.6344 46.7246 32.6316 46.7243C32.5497 46.7146 32.4709 46.6869 32.4008 46.6432C32.3288 46.5983 32.268 46.5377 32.2228 46.466C32.2207 46.4626 32.2187 46.4593 32.2166 46.4559L30.1001 42.0087C30.0591 41.9234 30.0479 41.8268 30.0682 41.7343C30.0886 41.6419 30.1393 41.5589 30.2123 41.4987L36.1691 35.3787C36.2835 35.2694 36.3647 35.1301 36.4035 34.9767C36.4423 34.8234 36.4371 34.6622 36.3884 34.5117L32.2676 20.1399C32.2433 20.0436 32.2511 19.9421 32.2899 19.8507C32.3288 19.7594 32.3965 19.6833 32.4827 19.6341C32.5689 19.5849 32.6689 19.5654 32.7673 19.5784C32.8657 19.5915 32.9571 19.6364 33.0275 19.7064L35.0318 21.9861L35.1389 22.0932L45.9254 46.0632C45.9533 46.1348 45.9634 46.212 45.9552 46.2884C45.9469 46.3647 45.9204 46.438 45.8779 46.502C45.8354 46.5659 45.7782 46.6188 45.711 46.656C45.6439 46.6933 45.5687 46.7138 45.4919 46.716H32.6399L32.6501 46.7262C32.6467 46.7259 32.6433 46.7256 32.6399 46.7252Z" fill="#7DC6E9"/>
</svg>
