<svg width="50" height="50" viewBox="0 0 50 50" fill="none" xmlns="http://www.w3.org/2000/svg">
<path d="M25.5304 49.2424C25.0759 49.2424 24.6213 49.1667 24.091 49.0909L14.3941 46.5909C12.9547 46.2121 11.5153 46.2879 10.2274 46.6667C9.84861 46.8182 9.39406 46.5909 9.24255 46.1364C9.09103 45.7576 9.3183 45.303 9.77285 45.1515C11.288 44.697 13.0304 44.6212 14.6971 45.0758L24.4698 47.5758C25.5304 47.803 26.591 47.7273 27.5759 47.197L43.1062 39.0909C43.788 38.7121 44.091 38.0303 43.788 37.2727C43.485 36.5152 42.6516 36.1364 41.8941 36.3636L30.7577 40.3788C30.3789 40.5303 29.9244 40.303 29.7728 39.9243C29.6213 39.5455 29.8486 39.0909 30.2274 38.9394L41.3638 34.9242C42.9547 34.3939 44.6213 35.2273 45.2274 36.7424C45.7577 38.1818 45.1516 39.697 43.788 40.3788L28.3335 48.5606C27.4244 49.0152 26.5153 49.2424 25.5304 49.2424Z" fill="#057CB5"/>
<path d="M30.3028 40.8333L21.2876 40.6818C20.8331 40.6818 20.53 40.303 20.53 39.9243C20.53 39.5455 20.9088 39.1667 21.2876 39.1667L29.4694 39.3182C29.3937 39.0152 29.3937 38.7879 29.2422 38.5606C28.6361 36.894 27.1209 35.7576 25.3785 35.6818L21.2119 35.6061C20.4543 35.5303 19.6209 35.6061 18.6361 35.9091L10.1512 37.3485C9.77246 37.4243 9.31791 37.1212 9.24216 36.7424C9.1664 36.3636 9.46943 35.9091 9.84822 35.8333L18.2573 34.394C19.3179 34.0909 20.3785 34.0152 21.2876 34.0909L25.4543 34.1667C27.8028 34.2424 29.924 35.7576 30.6815 38.0303C30.9088 38.5606 31.0603 39.2424 31.0603 40.0758C31.0603 40.303 30.9846 40.4546 30.8331 40.6061C30.6815 40.7576 30.53 40.8333 30.3028 40.8333Z" fill="#057CB5"/>
<path d="M9.99988 48.4848H5.37867C4.92412 48.4848 4.62109 48.1818 4.62109 47.7273V34.7727C4.62109 34.3182 4.92412 34.0151 5.37867 34.0151H9.99988C10.4544 34.0151 10.7575 34.3182 10.7575 34.7727V47.7273C10.7575 48.1818 10.4544 48.4848 9.99988 48.4848ZM6.13625 46.9697H9.24231V35.5303H6.13625V46.9697Z" fill="#057CB5"/>
<path d="M37.1969 31.8181C36.5909 31.8181 35.9848 31.7424 35.3787 31.6666C35 31.5908 34.6969 31.2121 34.7727 30.8333C34.8484 30.2272 34.7727 29.8484 34.5454 29.7727C34.3939 29.6969 34.0151 29.8484 33.6363 30.3787C33.409 30.6818 32.9545 30.8333 32.5757 30.606C31.4393 29.8484 30.606 29.0151 30.0757 28.106C29.8484 27.803 30 27.3484 30.303 27.1212C30.8333 26.7424 30.9848 26.2878 30.9848 26.2121C30.909 26.1363 30.606 25.909 29.9242 26.0605C29.5454 26.1363 29.1666 25.8333 29.0909 25.4545C28.8636 24.3181 28.8636 23.106 29.0909 21.8939C29.1666 21.5151 29.5454 21.2121 29.9242 21.2878C30.5303 21.3636 30.909 21.2878 30.9848 21.0605C31.0606 20.909 30.909 20.5302 30.3787 20.1515C30.0757 19.9242 29.9242 19.4696 30.1515 19.0909C30.909 17.9545 31.7424 17.1212 32.6515 16.5908C32.9545 16.3636 33.409 16.5151 33.6363 16.8181C34.0151 17.3484 34.4697 17.4999 34.5454 17.4999C34.6212 17.4242 34.8484 17.1212 34.6969 16.4393C34.6212 16.0605 34.9242 15.6818 35.303 15.606C36.4393 15.3787 37.6515 15.3787 38.8636 15.606C39.2424 15.6818 39.5454 16.0605 39.4697 16.4393C39.3939 17.0454 39.4697 17.4242 39.6969 17.4999C39.8484 17.5757 40.2272 17.4242 40.606 16.8939C40.8333 16.5908 41.2878 16.4393 41.6666 16.6666C42.803 17.4242 43.6363 18.2575 44.1666 19.1666C44.3939 19.4696 44.2424 19.9242 43.9394 20.1515C43.409 20.5302 43.2575 20.9848 43.2575 21.0605C43.3333 21.1363 43.6363 21.3636 44.3181 21.2121C44.6969 21.1363 45.0757 21.4393 45.1515 21.8181C45.3787 22.9545 45.3787 24.1666 45.1515 25.3787C45.0757 25.7575 44.6969 26.0605 44.3181 25.9848C43.7121 25.909 43.3333 26.0605 43.2575 26.2121C43.1818 26.3636 43.409 26.7424 43.9394 27.1212C44.2424 27.3484 44.3181 27.803 44.0909 28.106C43.3333 29.2424 42.5 30.0757 41.5909 30.606C41.2878 30.8333 40.8333 30.6818 40.606 30.3787C40.2272 29.8484 39.7727 29.6969 39.6969 29.6969C39.6212 29.7727 39.3939 30.0757 39.5454 30.7575C39.6212 31.1363 39.3181 31.5151 38.9394 31.5909C38.3333 31.7424 37.803 31.8181 37.1969 31.8181ZM36.3636 30.303C36.8939 30.3787 37.5 30.3787 38.0303 30.303C38.0303 29.3939 38.4848 28.6363 39.1666 28.3333C39.8484 28.0302 40.6818 28.2575 41.4394 28.9393C41.8181 28.6363 42.1969 28.2575 42.5757 27.803C41.8939 27.1212 41.6666 26.2878 41.9697 25.606C42.2727 24.8484 43.0303 24.4696 43.9394 24.3939C44.0151 23.7878 44.0151 23.2575 43.9394 22.7272C43.0303 22.7272 42.2727 22.2727 41.9697 21.5908C41.6666 20.909 41.8939 20.0757 42.5757 19.3181C42.2727 18.9393 41.8939 18.5605 41.4394 18.1818C40.7575 18.8636 39.9242 19.0908 39.1666 18.7878C38.409 18.4848 38.0303 17.803 37.9545 16.8181C37.4242 16.7424 36.8181 16.7424 36.2878 16.8181C36.2878 17.7272 35.8333 18.4848 35.1515 18.7878C34.4697 19.0908 33.6363 18.8636 32.8787 18.1818C32.5 18.4848 32.1212 18.8636 31.7424 19.3181C32.4242 19.9999 32.6515 20.8333 32.3484 21.5908C32.0454 22.3484 31.3636 22.7272 30.3787 22.803C30.303 23.3333 30.303 23.9393 30.3787 24.4696C31.2878 24.4696 32.0454 24.9242 32.3484 25.606C32.6515 26.2878 32.4242 27.1969 31.7424 27.8787C32.0454 28.2575 32.4242 28.6363 32.8787 29.0151C33.5606 28.3333 34.3939 28.106 35.1515 28.409C35.8333 28.5605 36.2878 29.3181 36.3636 30.303Z" fill="#057CB5"/>
<path d="M37.1211 27.6514C34.9999 27.6514 33.1817 25.909 33.106 23.7121C33.106 21.5908 34.8484 19.7727 37.0454 19.6969C39.3181 19.6969 41.0605 21.4393 41.0605 23.6363C41.0605 25.7575 39.3181 27.5757 37.1211 27.6514ZM37.0454 21.2121C35.7575 21.2878 34.6211 22.4242 34.6211 23.7121C34.6969 24.9999 35.8332 26.1363 37.1211 26.1363C38.409 26.0605 39.5454 24.9242 39.5454 23.6363C39.5454 22.2727 38.4847 21.2121 37.0454 21.2121Z" fill="#057CB5"/>
<path d="M12.8787 31.9696C8.25753 31.9696 4.54541 28.2575 4.54541 23.6363C4.54541 19.0151 8.25753 15.303 12.8787 15.303C17.5 15.303 21.2121 19.0151 21.2121 23.6363C21.2121 28.2575 17.5 31.9696 12.8787 31.9696ZM12.8787 16.8181C9.09087 16.8181 6.06056 19.8484 6.06056 23.6363C6.06056 27.4242 9.09087 30.4545 12.8787 30.4545C16.6666 30.4545 19.6969 27.4242 19.6969 23.6363C19.6969 19.8484 16.6666 16.8181 12.8787 16.8181Z" fill="#057CB5"/>
<path d="M12.8786 24.4696C11.3635 24.4696 10.1514 23.2575 10.1514 21.7424C10.1514 20.2272 11.4392 18.9393 12.8786 18.9393C14.3938 18.9393 15.6059 20.1515 15.6059 21.6666C15.6059 22.1211 15.3029 22.4242 14.8483 22.4242C14.3938 22.4242 14.0908 22.1211 14.0908 21.6666C14.0908 20.9848 13.5605 20.4545 12.8786 20.4545C12.2726 20.4545 11.6665 21.0605 11.6665 21.7424C11.6665 22.4242 12.1968 22.9545 12.8786 22.9545C13.3332 22.9545 13.6362 23.2575 13.6362 23.7121C13.6362 24.1666 13.3332 24.4696 12.8786 24.4696Z" fill="#057CB5"/>
<path d="M12.8786 28.409C11.3635 28.409 10.1514 27.1969 10.1514 25.6817C10.1514 25.2272 10.4544 24.9242 10.9089 24.9242C11.3635 24.9242 11.6665 25.2272 11.6665 25.6817C11.6665 26.3636 12.1968 26.8939 12.8786 26.8939C13.5605 26.8939 14.0908 26.3636 14.0908 25.6817C14.0908 24.9999 13.5605 24.4696 12.8786 24.4696C12.4241 24.4696 12.1211 24.1666 12.1211 23.712C12.1211 23.2575 12.4241 22.9545 12.8786 22.9545C14.3938 22.9545 15.6059 24.1666 15.6059 25.6817C15.6059 27.1969 14.3938 28.409 12.8786 28.409Z" fill="#057CB5"/>
<path d="M12.8787 20.4545C12.4241 20.4545 12.1211 20.1515 12.1211 19.6969V18.9393C12.1211 18.4848 12.4241 18.1818 12.8787 18.1818C13.3332 18.1818 13.6362 18.4848 13.6362 18.9393V19.6969C13.6362 20.1515 13.3332 20.4545 12.8787 20.4545Z" fill="#057CB5"/>
<path d="M12.8787 29.1666C12.4241 29.1666 12.1211 28.8636 12.1211 28.4091V27.6515C12.1211 27.197 12.4241 26.8939 12.8787 26.8939C13.3332 26.8939 13.6362 27.197 13.6362 27.6515V28.4091C13.6362 28.8636 13.3332 29.1666 12.8787 29.1666Z" fill="#057CB5"/>
<path d="M24.9998 17.4242C20.3786 17.4242 16.6665 13.7121 16.6665 9.0909C16.6665 4.46969 20.3786 0.757568 24.9998 0.757568C29.621 0.757568 33.3332 4.46969 33.3332 9.0909C33.3332 13.7121 29.621 17.4242 24.9998 17.4242ZM24.9998 2.27272C21.212 2.27272 18.1817 5.30302 18.1817 9.0909C18.1817 12.8788 21.212 15.9091 24.9998 15.9091C28.7877 15.9091 31.818 12.8788 31.818 9.0909C31.818 5.30302 28.7877 2.27272 24.9998 2.27272Z" fill="#057CB5"/>
<path d="M24.9999 12.7272C22.8787 12.7272 21.1362 10.2272 21.1362 8.18175C21.1362 6.06054 22.8787 4.31812 24.9999 4.31812C27.1968 4.31812 28.8635 5.98478 28.8635 8.18175C28.8635 10.303 27.1968 12.7272 24.9999 12.7272ZM24.9999 5.83327C23.712 5.83327 22.6514 6.89387 22.6514 8.18175C22.6514 9.46963 23.7877 11.2121 24.9999 11.2121C26.212 11.2121 27.3484 9.54539 27.3484 8.18175C27.3484 6.89387 26.2877 5.83327 24.9999 5.83327Z" fill="#057CB5"/>
<path d="M29.3937 15.909C29.2422 15.909 29.1664 15.909 29.0149 15.8333L26.9694 14.6969C26.2119 14.2424 25.7573 13.4848 25.7573 12.5757V11.4393C25.7573 10.9848 26.0604 10.6818 26.5149 10.6818C26.9694 10.6818 27.2725 10.9848 27.2725 11.4393V12.5757C27.2725 12.8787 27.424 13.1818 27.727 13.3333L29.7725 14.4696C30.1513 14.6969 30.3028 15.1515 30.0755 15.5302C29.924 15.7575 29.6967 15.909 29.3937 15.909Z" fill="#057CB5"/>
<path d="M20.606 15.8332C20.303 15.8332 20.0757 15.6817 19.9242 15.4544C19.6969 15.0757 19.8484 14.6211 20.2272 14.3938L22.3484 13.2575C22.5757 13.106 22.7272 12.8029 22.7272 12.4999V11.3635C22.7272 10.909 23.0302 10.606 23.4848 10.606C23.9393 10.606 24.2423 10.909 24.2423 11.3635V12.4999C24.2423 13.409 23.7878 14.1666 23.0302 14.6211L22.2727 14.9999L20.909 15.7575C20.8333 15.8332 20.7575 15.8332 20.606 15.8332Z" fill="#057CB5"/>
<path d="M24.9998 17.4242C20.3786 17.4242 16.6665 13.7121 16.6665 9.0909C16.6665 4.46969 20.3786 0.757568 24.9998 0.757568C29.621 0.757568 33.3332 4.46969 33.3332 9.0909C33.3332 13.7121 29.621 17.4242 24.9998 17.4242ZM24.9998 2.27272C21.212 2.27272 18.1817 5.30302 18.1817 9.0909C18.1817 12.8788 21.212 15.9091 24.9998 15.9091C28.7877 15.9091 31.818 12.8788 31.818 9.0909C31.818 5.30302 28.7877 2.27272 24.9998 2.27272Z" fill="#057CB5"/>
<path d="M24.9999 12.7272C22.8787 12.7272 21.1362 10.2272 21.1362 8.18175C21.1362 6.06054 22.8787 4.31812 24.9999 4.31812C27.1968 4.31812 28.8635 5.98478 28.8635 8.18175C28.8635 10.303 27.1968 12.7272 24.9999 12.7272ZM24.9999 5.83327C23.712 5.83327 22.6514 6.89387 22.6514 8.18175C22.6514 9.46963 23.7877 11.2121 24.9999 11.2121C26.212 11.2121 27.3484 9.54539 27.3484 8.18175C27.3484 6.89387 26.2877 5.83327 24.9999 5.83327Z" fill="#057CB5"/>
<path d="M29.3937 15.909C29.2422 15.909 29.1664 15.909 29.0149 15.8333L26.9694 14.6969C26.2119 14.2424 25.7573 13.4848 25.7573 12.5757V11.4393C25.7573 10.9848 26.0604 10.6818 26.5149 10.6818C26.9694 10.6818 27.2725 10.9848 27.2725 11.4393V12.5757C27.2725 12.8787 27.424 13.1818 27.727 13.3333L29.7725 14.4696C30.1513 14.6969 30.3028 15.1515 30.0755 15.5302C29.924 15.7575 29.6967 15.909 29.3937 15.909Z" fill="#057CB5"/>
<path d="M20.606 15.8332C20.303 15.8332 20.0757 15.6817 19.9242 15.4544C19.6969 15.0757 19.8484 14.6211 20.2272 14.3938L22.3484 13.2575C22.5757 13.106 22.7272 12.8029 22.7272 12.4999V11.3635C22.7272 10.909 23.0302 10.606 23.4848 10.606C23.9393 10.606 24.2423 10.909 24.2423 11.3635V12.4999C24.2423 13.409 23.7878 14.1666 23.0302 14.6211L22.2727 14.9999L20.909 15.7575C20.8333 15.8332 20.7575 15.8332 20.606 15.8332Z" fill="#057CB5"/>
<path d="M25.5304 49.2424C25.0759 49.2424 24.6213 49.1667 24.091 49.0909L14.3941 46.5909C12.9547 46.2121 11.5153 46.2879 10.2274 46.6667C9.84861 46.8182 9.39406 46.5909 9.24255 46.1364C9.09103 45.7576 9.3183 45.303 9.77285 45.1515C11.288 44.697 13.0304 44.6212 14.6971 45.0758L24.4698 47.5758C25.5304 47.803 26.591 47.7273 27.5759 47.197L43.1062 39.0909C43.788 38.7121 44.091 38.0303 43.788 37.2727C43.485 36.5152 42.6516 36.1364 41.8941 36.3636L30.7577 40.3788C30.3789 40.5303 29.9244 40.303 29.7728 39.9243C29.6213 39.5455 29.8486 39.0909 30.2274 38.9394L41.3638 34.9242C42.9547 34.3939 44.6213 35.2273 45.2274 36.7424C45.7577 38.1818 45.1516 39.697 43.788 40.3788L28.3335 48.5606C27.4244 49.0152 26.5153 49.2424 25.5304 49.2424Z" fill="#057CB5"/>
<path d="M30.3028 40.8333L21.2876 40.6818C20.8331 40.6818 20.53 40.303 20.53 39.9243C20.53 39.5455 20.9088 39.1667 21.2876 39.1667L29.4694 39.3182C29.3937 39.0152 29.3937 38.7879 29.2422 38.5606C28.6361 36.894 27.1209 35.7576 25.3785 35.6818L21.2119 35.6061C20.4543 35.5303 19.6209 35.6061 18.6361 35.9091L10.1512 37.3485C9.77246 37.4243 9.31791 37.1212 9.24216 36.7424C9.1664 36.3636 9.46943 35.9091 9.84822 35.8333L18.2573 34.394C19.3179 34.0909 20.3785 34.0152 21.2876 34.0909L25.4543 34.1667C27.8028 34.2424 29.924 35.7576 30.6815 38.0303C30.9088 38.5606 31.0603 39.2424 31.0603 40.0758C31.0603 40.303 30.9846 40.4546 30.8331 40.6061C30.6815 40.7576 30.53 40.8333 30.3028 40.8333Z" fill="#057CB5"/>
<path d="M9.99988 48.4848H5.37867C4.92412 48.4848 4.62109 48.1818 4.62109 47.7273V34.7727C4.62109 34.3182 4.92412 34.0151 5.37867 34.0151H9.99988C10.4544 34.0151 10.7575 34.3182 10.7575 34.7727V47.7273C10.7575 48.1818 10.4544 48.4848 9.99988 48.4848ZM6.13625 46.9697H9.24231V35.5303H6.13625V46.9697Z" fill="#057CB5"/>
<path d="M37.1969 31.8181C36.5909 31.8181 35.9848 31.7424 35.3787 31.6666C35 31.5908 34.6969 31.2121 34.7727 30.8333C34.8484 30.2272 34.7727 29.8484 34.5454 29.7727C34.3939 29.6969 34.0151 29.8484 33.6363 30.3787C33.409 30.6818 32.9545 30.8333 32.5757 30.606C31.4393 29.8484 30.606 29.0151 30.0757 28.106C29.8484 27.803 30 27.3484 30.303 27.1212C30.8333 26.7424 30.9848 26.2878 30.9848 26.2121C30.909 26.1363 30.606 25.909 29.9242 26.0605C29.5454 26.1363 29.1666 25.8333 29.0909 25.4545C28.8636 24.3181 28.8636 23.106 29.0909 21.8939C29.1666 21.5151 29.5454 21.2121 29.9242 21.2878C30.5303 21.3636 30.909 21.2878 30.9848 21.0605C31.0606 20.909 30.909 20.5302 30.3787 20.1515C30.0757 19.9242 29.9242 19.4696 30.1515 19.0909C30.909 17.9545 31.7424 17.1212 32.6515 16.5908C32.9545 16.3636 33.409 16.5151 33.6363 16.8181C34.0151 17.3484 34.4697 17.4999 34.5454 17.4999C34.6212 17.4242 34.8484 17.1212 34.6969 16.4393C34.6212 16.0605 34.9242 15.6818 35.303 15.606C36.4393 15.3787 37.6515 15.3787 38.8636 15.606C39.2424 15.6818 39.5454 16.0605 39.4697 16.4393C39.3939 17.0454 39.4697 17.4242 39.6969 17.4999C39.8484 17.5757 40.2272 17.4242 40.606 16.8939C40.8333 16.5908 41.2878 16.4393 41.6666 16.6666C42.803 17.4242 43.6363 18.2575 44.1666 19.1666C44.3939 19.4696 44.2424 19.9242 43.9394 20.1515C43.409 20.5302 43.2575 20.9848 43.2575 21.0605C43.3333 21.1363 43.6363 21.3636 44.3181 21.2121C44.6969 21.1363 45.0757 21.4393 45.1515 21.8181C45.3787 22.9545 45.3787 24.1666 45.1515 25.3787C45.0757 25.7575 44.6969 26.0605 44.3181 25.9848C43.7121 25.909 43.3333 26.0605 43.2575 26.2121C43.1818 26.3636 43.409 26.7424 43.9394 27.1212C44.2424 27.3484 44.3181 27.803 44.0909 28.106C43.3333 29.2424 42.5 30.0757 41.5909 30.606C41.2878 30.8333 40.8333 30.6818 40.606 30.3787C40.2272 29.8484 39.7727 29.6969 39.6969 29.6969C39.6212 29.7727 39.3939 30.0757 39.5454 30.7575C39.6212 31.1363 39.3181 31.5151 38.9394 31.5909C38.3333 31.7424 37.803 31.8181 37.1969 31.8181ZM36.3636 30.303C36.8939 30.3787 37.5 30.3787 38.0303 30.303C38.0303 29.3939 38.4848 28.6363 39.1666 28.3333C39.8484 28.0302 40.6818 28.2575 41.4394 28.9393C41.8181 28.6363 42.1969 28.2575 42.5757 27.803C41.8939 27.1212 41.6666 26.2878 41.9697 25.606C42.2727 24.8484 43.0303 24.4696 43.9394 24.3939C44.0151 23.7878 44.0151 23.2575 43.9394 22.7272C43.0303 22.7272 42.2727 22.2727 41.9697 21.5908C41.6666 20.909 41.8939 20.0757 42.5757 19.3181C42.2727 18.9393 41.8939 18.5605 41.4394 18.1818C40.7575 18.8636 39.9242 19.0908 39.1666 18.7878C38.409 18.4848 38.0303 17.803 37.9545 16.8181C37.4242 16.7424 36.8181 16.7424 36.2878 16.8181C36.2878 17.7272 35.8333 18.4848 35.1515 18.7878C34.4697 19.0908 33.6363 18.8636 32.8787 18.1818C32.5 18.4848 32.1212 18.8636 31.7424 19.3181C32.4242 19.9999 32.6515 20.8333 32.3484 21.5908C32.0454 22.3484 31.3636 22.7272 30.3787 22.803C30.303 23.3333 30.303 23.9393 30.3787 24.4696C31.2878 24.4696 32.0454 24.9242 32.3484 25.606C32.6515 26.2878 32.4242 27.1969 31.7424 27.8787C32.0454 28.2575 32.4242 28.6363 32.8787 29.0151C33.5606 28.3333 34.3939 28.106 35.1515 28.409C35.8333 28.5605 36.2878 29.3181 36.3636 30.303Z" fill="#057CB5"/>
<path d="M37.1211 27.6514C34.9999 27.6514 33.1817 25.909 33.106 23.7121C33.106 21.5908 34.8484 19.7727 37.0454 19.6969C39.3181 19.6969 41.0605 21.4393 41.0605 23.6363C41.0605 25.7575 39.3181 27.5757 37.1211 27.6514ZM37.0454 21.2121C35.7575 21.2878 34.6211 22.4242 34.6211 23.7121C34.6969 24.9999 35.8332 26.1363 37.1211 26.1363C38.409 26.0605 39.5454 24.9242 39.5454 23.6363C39.5454 22.2727 38.4847 21.2121 37.0454 21.2121Z" fill="#057CB5"/>
<path d="M12.8787 31.9696C8.25753 31.9696 4.54541 28.2575 4.54541 23.6363C4.54541 19.0151 8.25753 15.303 12.8787 15.303C17.5 15.303 21.2121 19.0151 21.2121 23.6363C21.2121 28.2575 17.5 31.9696 12.8787 31.9696ZM12.8787 16.8181C9.09087 16.8181 6.06056 19.8484 6.06056 23.6363C6.06056 27.4242 9.09087 30.4545 12.8787 30.4545C16.6666 30.4545 19.6969 27.4242 19.6969 23.6363C19.6969 19.8484 16.6666 16.8181 12.8787 16.8181Z" fill="#057CB5"/>
<path d="M12.8786 24.4696C11.3635 24.4696 10.1514 23.2575 10.1514 21.7424C10.1514 20.2272 11.4392 18.9393 12.8786 18.9393C14.3938 18.9393 15.6059 20.1515 15.6059 21.6666C15.6059 22.1211 15.3029 22.4242 14.8483 22.4242C14.3938 22.4242 14.0908 22.1211 14.0908 21.6666C14.0908 20.9848 13.5605 20.4545 12.8786 20.4545C12.2726 20.4545 11.6665 21.0605 11.6665 21.7424C11.6665 22.4242 12.1968 22.9545 12.8786 22.9545C13.3332 22.9545 13.6362 23.2575 13.6362 23.7121C13.6362 24.1666 13.3332 24.4696 12.8786 24.4696Z" fill="#057CB5"/>
<path d="M12.8786 28.409C11.3635 28.409 10.1514 27.1969 10.1514 25.6817C10.1514 25.2272 10.4544 24.9242 10.9089 24.9242C11.3635 24.9242 11.6665 25.2272 11.6665 25.6817C11.6665 26.3636 12.1968 26.8939 12.8786 26.8939C13.5605 26.8939 14.0908 26.3636 14.0908 25.6817C14.0908 24.9999 13.5605 24.4696 12.8786 24.4696C12.4241 24.4696 12.1211 24.1666 12.1211 23.712C12.1211 23.2575 12.4241 22.9545 12.8786 22.9545C14.3938 22.9545 15.6059 24.1666 15.6059 25.6817C15.6059 27.1969 14.3938 28.409 12.8786 28.409Z" fill="#057CB5"/>
<path d="M12.8787 20.4545C12.4241 20.4545 12.1211 20.1515 12.1211 19.6969V18.9393C12.1211 18.4848 12.4241 18.1818 12.8787 18.1818C13.3332 18.1818 13.6362 18.4848 13.6362 18.9393V19.6969C13.6362 20.1515 13.3332 20.4545 12.8787 20.4545Z" fill="#057CB5"/>
<path d="M12.8787 29.1666C12.4241 29.1666 12.1211 28.8636 12.1211 28.4091V27.6515C12.1211 27.197 12.4241 26.8939 12.8787 26.8939C13.3332 26.8939 13.6362 27.197 13.6362 27.6515V28.4091C13.6362 28.8636 13.3332 29.1666 12.8787 29.1666Z" fill="#057CB5"/>
<path d="M24.9998 17.4242C20.3786 17.4242 16.6665 13.7121 16.6665 9.0909C16.6665 4.46969 20.3786 0.757568 24.9998 0.757568C29.621 0.757568 33.3332 4.46969 33.3332 9.0909C33.3332 13.7121 29.621 17.4242 24.9998 17.4242ZM24.9998 2.27272C21.212 2.27272 18.1817 5.30302 18.1817 9.0909C18.1817 12.8788 21.212 15.9091 24.9998 15.9091C28.7877 15.9091 31.818 12.8788 31.818 9.0909C31.818 5.30302 28.7877 2.27272 24.9998 2.27272Z" fill="#057CB5"/>
<path d="M24.9999 12.7272C22.8787 12.7272 21.1362 10.2272 21.1362 8.18175C21.1362 6.06054 22.8787 4.31812 24.9999 4.31812C27.1968 4.31812 28.8635 5.98478 28.8635 8.18175C28.8635 10.303 27.1968 12.7272 24.9999 12.7272ZM24.9999 5.83327C23.712 5.83327 22.6514 6.89387 22.6514 8.18175C22.6514 9.46963 23.7877 11.2121 24.9999 11.2121C26.212 11.2121 27.3484 9.54539 27.3484 8.18175C27.3484 6.89387 26.2877 5.83327 24.9999 5.83327Z" fill="#057CB5"/>
<path d="M29.3937 15.909C29.2422 15.909 29.1664 15.909 29.0149 15.8333L26.9694 14.6969C26.2119 14.2424 25.7573 13.4848 25.7573 12.5757V11.4393C25.7573 10.9848 26.0604 10.6818 26.5149 10.6818C26.9694 10.6818 27.2725 10.9848 27.2725 11.4393V12.5757C27.2725 12.8787 27.424 13.1818 27.727 13.3333L29.7725 14.4696C30.1513 14.6969 30.3028 15.1515 30.0755 15.5302C29.924 15.7575 29.6967 15.909 29.3937 15.909Z" fill="#057CB5"/>
<path d="M20.606 15.8332C20.303 15.8332 20.0757 15.6817 19.9242 15.4544C19.6969 15.0757 19.8484 14.6211 20.2272 14.3938L22.3484 13.2575C22.5757 13.106 22.7272 12.8029 22.7272 12.4999V11.3635C22.7272 10.909 23.0302 10.606 23.4848 10.606C23.9393 10.606 24.2423 10.909 24.2423 11.3635V12.4999C24.2423 13.409 23.7878 14.1666 23.0302 14.6211L22.2727 14.9999L20.909 15.7575C20.8333 15.8332 20.7575 15.8332 20.606 15.8332Z" fill="#057CB5"/>
<path d="M24.9998 17.4242C20.3786 17.4242 16.6665 13.7121 16.6665 9.0909C16.6665 4.46969 20.3786 0.757568 24.9998 0.757568C29.621 0.757568 33.3332 4.46969 33.3332 9.0909C33.3332 13.7121 29.621 17.4242 24.9998 17.4242ZM24.9998 2.27272C21.212 2.27272 18.1817 5.30302 18.1817 9.0909C18.1817 12.8788 21.212 15.9091 24.9998 15.9091C28.7877 15.9091 31.818 12.8788 31.818 9.0909C31.818 5.30302 28.7877 2.27272 24.9998 2.27272Z" fill="#057CB5"/>
<path d="M24.9999 12.7272C22.8787 12.7272 21.1362 10.2272 21.1362 8.18175C21.1362 6.06054 22.8787 4.31812 24.9999 4.31812C27.1968 4.31812 28.8635 5.98478 28.8635 8.18175C28.8635 10.303 27.1968 12.7272 24.9999 12.7272ZM24.9999 5.83327C23.712 5.83327 22.6514 6.89387 22.6514 8.18175C22.6514 9.46963 23.7877 11.2121 24.9999 11.2121C26.212 11.2121 27.3484 9.54539 27.3484 8.18175C27.3484 6.89387 26.2877 5.83327 24.9999 5.83327Z" fill="#057CB5"/>
<path d="M29.3937 15.909C29.2422 15.909 29.1664 15.909 29.0149 15.8333L26.9694 14.6969C26.2119 14.2424 25.7573 13.4848 25.7573 12.5757V11.4393C25.7573 10.9848 26.0604 10.6818 26.5149 10.6818C26.9694 10.6818 27.2725 10.9848 27.2725 11.4393V12.5757C27.2725 12.8787 27.424 13.1818 27.727 13.3333L29.7725 14.4696C30.1513 14.6969 30.3028 15.1515 30.0755 15.5302C29.924 15.7575 29.6967 15.909 29.3937 15.909Z" fill="#057CB5"/>
<path d="M20.606 15.8332C20.303 15.8332 20.0757 15.6817 19.9242 15.4544C19.6969 15.0757 19.8484 14.6211 20.2272 14.3938L22.3484 13.2575C22.5757 13.106 22.7272 12.8029 22.7272 12.4999V11.3635C22.7272 10.909 23.0302 10.606 23.4848 10.606C23.9393 10.606 24.2423 10.909 24.2423 11.3635V12.4999C24.2423 13.409 23.7878 14.1666 23.0302 14.6211L22.2727 14.9999L20.909 15.7575C20.8333 15.8332 20.7575 15.8332 20.606 15.8332Z" fill="#057CB5"/>
</svg>
