<svg width="22" height="20" viewBox="0 0 22 20" fill="none" xmlns="http://www.w3.org/2000/svg">
<path d="M19.0562 0H17.0573V1.9989C17.0573 2.39868 16.7241 2.6652 16.391 2.6652C16.0578 2.6652 15.7247 2.39868 15.7247 1.9989V0H5.06388V1.9989C5.06388 2.39868 4.73073 2.6652 4.39758 2.6652C4.06443 2.6652 3.73128 2.39868 3.73128 1.9989V0H1.73238C0.732929 0 0 0.866189 0 1.9989V4.39758H21.3216V1.9989C21.3216 0.866189 20.1222 0 19.0562 0ZM0 5.79681V17.9901C0 19.1894 0.732929 19.989 1.79901 19.989H19.1228C20.1889 19.989 21.3882 19.1228 21.3882 17.9901V5.79681H0ZM5.93007 16.9906H4.33095C4.06443 16.9906 3.79791 16.7908 3.79791 16.4576V14.7919C3.79791 14.5253 3.9978 14.2588 4.33095 14.2588H5.9967C6.26322 14.2588 6.52974 14.4587 6.52974 14.7919V16.4576C6.46311 16.7908 6.26322 16.9906 5.93007 16.9906ZM5.93007 10.9939H4.33095C4.06443 10.9939 3.79791 10.7941 3.79791 10.4609V8.79515C3.79791 8.52863 3.9978 8.26211 4.33095 8.26211H5.9967C6.26322 8.26211 6.52974 8.462 6.52974 8.79515V10.4609C6.46311 10.7941 6.26322 10.9939 5.93007 10.9939ZM11.2605 16.9906H9.59471C9.32819 16.9906 9.06167 16.7908 9.06167 16.4576V14.7919C9.06167 14.5253 9.26156 14.2588 9.59471 14.2588H11.2605C11.527 14.2588 11.7935 14.4587 11.7935 14.7919V16.4576C11.7935 16.7908 11.5936 16.9906 11.2605 16.9906ZM11.2605 10.9939H9.59471C9.32819 10.9939 9.06167 10.7941 9.06167 10.4609V8.79515C9.06167 8.52863 9.26156 8.26211 9.59471 8.26211H11.2605C11.527 8.26211 11.7935 8.462 11.7935 8.79515V10.4609C11.7935 10.7941 11.5936 10.9939 11.2605 10.9939ZM16.5909 16.9906H14.9251C14.6586 16.9906 14.3921 16.7908 14.3921 16.4576V14.7919C14.3921 14.5253 14.592 14.2588 14.9251 14.2588H16.5909C16.8574 14.2588 17.1239 14.4587 17.1239 14.7919V16.4576C17.1239 16.7908 16.924 16.9906 16.5909 16.9906ZM16.5909 10.9939H14.9251C14.6586 10.9939 14.3921 10.7941 14.3921 10.4609V8.79515C14.3921 8.52863 14.592 8.26211 14.9251 8.26211H16.5909C16.8574 8.26211 17.1239 8.462 17.1239 8.79515V10.4609C17.1239 10.7941 16.924 10.9939 16.5909 10.9939Z" fill="#7DC6E9"/>
</svg>
