<svg width="24" height="24" viewBox="0 0 24 24" fill="none" xmlns="http://www.w3.org/2000/svg">
<path d="M22.9723 17.3498L19.6732 14.0507C18.495 12.8724 16.4919 13.3438 16.0206 14.8755C15.6672 15.936 14.4889 16.5251 13.4285 16.2894C11.072 15.7003 7.89067 12.6368 7.30154 10.1625C6.94806 9.10198 7.65502 7.92372 8.71545 7.57029C10.2472 7.09899 10.7185 5.09596 9.54023 3.9177L6.24111 0.618584C5.29851 -0.206195 3.8846 -0.206195 3.05982 0.618584L0.821135 2.85727C-1.41755 5.21378 1.05679 11.4585 6.59459 16.9963C12.1324 22.5341 18.3771 25.1264 20.7337 22.7698L22.9723 20.5311C23.7972 19.5885 23.7972 18.1746 22.9723 17.3498Z" fill="#7DC6E9"/>
</svg>
