<svg width="46" height="47" viewBox="0 0 46 47" fill="none" xmlns="http://www.w3.org/2000/svg">
<path d="M22.4949 45.9374L22.4949 45.9375H22.5001C26.3649 45.9375 30.1642 44.9392 33.5298 43.0394C36.8954 41.1395 39.7133 38.4025 41.7102 35.0936C43.7072 31.7847 44.8156 28.016 44.9281 24.1529C45.0405 20.2897 44.1531 16.4629 42.352 13.0435L42.3514 13.0423C42.2357 12.8282 42.0401 12.6685 41.8073 12.5981C41.5744 12.5276 41.3231 12.5521 41.1081 12.6661C40.8932 12.7802 40.7321 12.9746 40.6599 13.207C40.5877 13.4393 40.6103 13.6908 40.7228 13.9066L40.7231 13.9071C42.282 16.8633 43.0958 20.1553 43.0938 23.4974C41.9626 50.8164 3.03662 50.8164 1.90628 23.4965C1.71692 8.22783 18.7 -2.0081 32.0917 5.27652L32.0928 5.27713C32.3089 5.39172 32.5615 5.4158 32.7953 5.34408C33.0291 5.27236 33.2248 5.11072 33.3393 4.89471C33.4539 4.6787 33.478 4.42602 33.4063 4.19225C33.3346 3.95849 33.1729 3.76279 32.9569 3.6482L32.9567 3.64807C29.7336 1.94782 26.1441 1.06027 22.5 1.0625V1.0624L22.4949 1.06261C-7.26115 2.29206 -7.26084 44.7085 22.4949 45.9374Z" fill="#7DC6E9" stroke="#7DC6E9" stroke-width="0.25"/>
<path d="M28.5439 21.4807L28.4256 21.521C28.6427 22.1573 28.7523 22.8253 28.7501 23.4975C28.4346 31.7785 16.5657 31.7788 16.25 23.4977C16.2526 21.8416 16.9116 20.2539 18.0828 19.0828C19.2545 17.9111 20.8431 17.252 22.5001 17.2501C23.1762 17.2497 23.8477 17.3619 24.4869 17.5822L24.4869 17.5822C24.7181 17.6618 24.9713 17.6463 25.1911 17.5392C25.4108 17.4321 25.579 17.2421 25.6586 17.011L25.6591 17.0111L25.6618 17.0004C25.7594 16.6071 25.6592 16.3004 25.4285 16.0736C25.2069 15.8557 24.8748 15.7211 24.5226 15.633C23.9947 15.5008 23.3715 15.4628 22.9088 15.4346C22.7558 15.4253 22.6204 15.417 22.5118 15.4068L22.5034 15.406L22.4949 15.4064C11.7648 15.8498 11.7652 31.1508 22.4949 31.5938L22.4949 31.5939L22.5002 31.5939C24.6461 31.5915 26.7033 30.738 28.2206 29.2206C29.7379 27.7033 30.5914 25.6461 30.5938 23.5003L30.5943 23.5003L30.5933 23.4892C30.5839 23.3825 30.5763 23.2518 30.5678 23.1051C30.5405 22.6376 30.5038 22.0077 30.3703 21.4759C30.2825 21.1257 30.1482 20.7961 29.9309 20.5765C29.7047 20.3478 29.399 20.2492 29.0076 20.3465L29.0075 20.346L28.9971 20.3496C28.8826 20.389 28.777 20.4505 28.6863 20.5307C28.5956 20.6109 28.5216 20.7083 28.4685 20.8171C28.4155 20.9259 28.3844 21.0442 28.377 21.165C28.3697 21.2859 28.3863 21.407 28.4258 21.5215L28.5439 21.4807ZM28.5439 21.4807C28.5098 21.3818 28.4955 21.2771 28.5018 21.1726C28.5082 21.0681 28.535 20.9659 28.5809 20.8719C28.6268 20.7778 28.6907 20.6937 28.7691 20.6244C28.8475 20.555 28.9388 20.5018 29.0378 20.4678L16.125 23.5C16.4445 31.9446 28.5555 31.9443 28.875 23.5001C28.8776 22.8133 28.7657 22.1308 28.5439 21.4807Z" fill="#7DC6E9" stroke="#7DC6E9" stroke-width="0.25"/>
<path d="M29.8799 10.143L29.8799 10.143C29.9858 10.2017 30.0791 10.2807 30.1545 10.3754C30.2299 10.4702 30.2858 10.5788 30.3192 10.6952C30.3525 10.8116 30.3626 10.9334 30.3489 11.0537C30.3352 11.1739 30.298 11.2902 30.2393 11.396C30.2393 11.3961 30.2392 11.3961 30.2392 11.3962L30.1299 11.3356L29.8799 10.143ZM29.8799 10.143C27.621 8.89267 25.0819 8.23597 22.5001 8.23438V8.23427L22.4948 8.23448C2.2519 9.07113 2.25214 37.9293 22.495 38.7655L22.495 38.7656L22.5 38.7656C25.1556 38.7672 27.7655 38.0756 30.0719 36.7592C32.3782 35.4428 34.3009 33.5472 35.65 31.2599C36.9992 28.9726 37.7279 26.3728 37.7642 23.7175C37.8005 21.0623 37.1432 18.4436 35.8571 16.1203M29.8799 10.143L35.8571 16.1203M35.8571 16.1203C35.7987 16.014 35.7199 15.9202 35.6252 15.8445C35.5304 15.7686 35.4216 15.7123 35.305 15.6786C35.1884 15.6449 35.0663 15.6346 34.9457 15.6483C34.8251 15.6619 34.7084 15.6992 34.6023 15.758C34.4961 15.8169 34.4027 15.8961 34.3272 15.9912L34.4251 16.0689L35.8571 16.1203Z" fill="#7DC6E9" stroke="#7DC6E9" stroke-width="0.25"/>
<path d="M21.8481 22.8482L21.8481 22.8483L31.8467 12.8497L31.5584 9.08497L31.5584 9.08491L31.683 9.07537L21.8481 22.8482ZM21.8481 22.8482L21.8463 22.8501M21.8481 22.8482L21.8463 22.8501M21.8463 22.8501C21.6793 23.0242 21.5872 23.2568 21.5896 23.498C21.5921 23.7392 21.6891 23.9698 21.8597 24.1404C22.0302 24.311 22.2609 24.4079 22.5021 24.4103C22.7433 24.4128 22.9759 24.3207 23.1499 24.1536L23.15 24.1536M21.8463 22.8501L23.15 24.1536M23.15 24.1536L23.1518 24.1518M23.15 24.1536L23.1518 24.1518M23.1518 24.1518L33.1503 14.1533L36.915 14.4416C37.0476 14.4517 37.1807 14.4331 37.3053 14.3869C37.43 14.3408 37.5431 14.2682 37.6371 14.1742C37.6371 14.1742 37.6371 14.1742 37.6371 14.1742L43.437 8.3747L43.4383 8.37339M23.1518 24.1518L43.4383 8.37339M43.4383 8.37339C43.5603 8.2478 43.6442 8.09023 43.6804 7.91893C43.7165 7.74762 43.7035 7.56958 43.6427 7.40539C43.5819 7.2412 43.4759 7.09757 43.3369 6.99112C43.1979 6.88468 43.0316 6.81976 42.8572 6.80387L42.8554 6.80373M43.4383 8.37339L42.8554 6.80373M42.8554 6.80373L39.4566 6.54343L39.1963 3.14451L39.1961 3.14265M42.8554 6.80373L39.1961 3.14265M39.1961 3.14265C39.1801 2.96834 39.1152 2.8021 39.0087 2.66316C38.9022 2.52422 38.7586 2.41824 38.5945 2.35748C38.4303 2.29671 38.2523 2.28365 38.081 2.31979C37.9098 2.35593 37.7522 2.4398 37.6266 2.56171L37.6253 2.56302M39.1961 3.14265L37.6253 2.56302M37.6253 2.56302L31.8259 8.36278L37.6253 2.56302ZM33.4292 9.36668L37.5124 5.28308C37.5398 5.63187 37.5591 5.9386 37.5756 6.20892C37.5777 6.24438 37.5799 6.27925 37.5819 6.31352C37.5996 6.60471 37.6146 6.8533 37.6344 7.06393C37.6776 7.52546 37.7451 7.84725 37.9534 8.0536C38.1614 8.25971 38.4841 8.32483 38.9446 8.36665C39.1459 8.38493 39.3818 8.39903 39.656 8.41544C39.7019 8.41819 39.7489 8.421 39.797 8.4239C40.0659 8.44016 40.3708 8.45946 40.7173 8.48715L36.6333 12.5708L33.6571 12.3429L33.4292 9.36668Z" fill="#7DC6E9" stroke="#7DC6E9" stroke-width="0.25"/>
</svg>
