<svg width="51" height="41" viewBox="0 0 51 41" fill="none" xmlns="http://www.w3.org/2000/svg">
<path d="M2.95435 28.0063C2.95435 33.0497 7.05721 37.1526 12.1006 37.1526C17.1439 37.1526 21.2467 33.0497 21.2467 28.0063C21.2467 22.963 17.1439 18.8601 12.1006 18.8601C7.0572 18.86 2.95435 22.9629 2.95435 28.0063ZM19.5069 28.0063C19.5069 32.0901 16.1843 35.4126 12.1007 35.4126C8.01703 35.4126 4.69429 32.0901 4.69429 28.0063C4.69429 23.9226 8.01693 20.6001 12.1006 20.6001C16.1842 20.6001 19.5069 23.9225 19.5069 28.0063Z" fill="#7DC6E9" stroke="#7DC6E9" stroke-width="0.25"/>
<path d="M12.1038 4.08064L12.1038 4.08063C13.0746 2.0682 15.1448 0.768311 17.379 0.768311C20.6086 0.768311 23.2358 3.39563 23.2358 6.62514V8.79341C23.72 9.66908 24.0587 10.6357 24.2194 11.6607H26.7808C26.9415 10.6357 27.2802 9.66918 27.7643 8.79361V6.62514C27.7643 3.39553 30.3915 0.768311 33.6211 0.768311C35.8553 0.768311 37.9256 2.06809 38.8963 4.08054L39.4484 5.2253C41.1191 6.08446 42.5114 7.46954 43.3522 9.213L49.3948 21.7401C49.3948 21.7402 49.3949 21.7403 49.3949 21.7404L49.395 21.7406L12.1038 4.08064ZM12.1038 4.08064L11.5517 5.2253C9.88096 6.08456 8.48872 7.46964 7.64785 9.21301L6.60122 11.3827C6.60122 11.3827 6.60122 11.3828 6.60122 11.3828C6.39242 11.8155 6.57409 12.3356 7.00673 12.5443L7.00679 12.5444M12.1038 4.08064L7.00679 12.5444M7.00679 12.5444C7.4395 12.7529 7.95952 12.5716 8.16834 12.1387L9.21497 9.96885L9.10239 9.91454M7.00679 12.5444L9.10239 9.91454M9.10239 9.91454L9.21497 9.96885C10.3805 7.55227 12.8682 5.99036 15.5512 5.99036C19.4301 5.99036 22.5861 9.14623 22.5861 13.0252V21.7208C21.9083 20.5909 21.0451 19.565 20.0162 18.6901C19.6502 18.3787 19.1011 18.4233 18.79 18.7891C18.4786 19.1551 18.5231 19.7042 18.889 20.0155C21.2387 22.0136 22.5861 24.926 22.5861 28.0062C22.5861 33.7878 17.8821 38.4917 12.1006 38.4917C6.31896 38.4917 1.61495 33.7879 1.61495 28.0063C1.61495 22.2247 6.31887 17.5208 12.1005 17.5208C13.6037 17.5208 15.054 17.8318 16.412 18.4453M9.10239 9.91454L17.5631 18.0105M17.5631 18.0105L17.5631 18.0105C17.3652 18.4485 16.8495 18.6429 16.412 18.4453M17.5631 18.0105C17.7609 17.5726 17.5662 17.0574 17.1284 16.8596L17.077 16.9735M17.5631 18.0105L17.077 16.9735M16.412 18.4453L16.4635 18.3314L16.4121 18.4453C16.4121 18.4453 16.4121 18.4453 16.412 18.4453ZM17.077 16.9735L17.1284 16.8596C15.5437 16.1438 13.8519 15.7808 12.1005 15.7808C9.65622 15.7808 7.37731 16.5023 5.46505 17.7429L6.78556 15.0052C6.78556 15.0052 6.78556 15.0052 6.78556 15.0052C6.99436 14.5724 6.81269 14.0524 6.38005 13.8436L6.37996 13.8436M17.077 16.9735L6.37996 13.8436M6.37996 13.8436C5.9475 13.6353 5.42728 13.8164 5.21845 14.2492L5.21844 14.2492M6.37996 13.8436L5.21844 14.2492M5.21844 14.2492L1.60524 21.7401C1.60519 21.7402 1.60515 21.7403 1.60511 21.7404L5.21844 14.2492ZM51.125 28.0063C51.125 25.7218 50.4946 23.582 49.3994 21.7506L1.60055 21.7506C0.505525 23.5819 -0.125 25.7218 -0.125 28.0063C-0.125 34.7475 5.35914 40.2317 12.1005 40.2317C18.7157 40.2317 24.1198 34.9505 24.3196 28.3829H26.6805C26.8803 34.9505 32.2843 40.2317 38.8995 40.2317C45.6409 40.2317 51.125 34.7475 51.125 28.0063ZM41.7851 9.96885L45.5349 17.7427C43.6227 16.5022 41.3438 15.7807 38.8995 15.7807C34.4526 15.7807 30.5534 18.1676 28.4141 21.7264V13.0252C28.4141 9.14623 31.57 5.99036 35.4489 5.99036C38.1319 5.99036 40.6195 7.55237 41.7851 9.96885ZM26.6742 26.6429H24.326V13.4006H26.6742V26.6429ZM33.6211 2.50826C35.0255 2.50826 36.3373 3.24085 37.0867 4.40792C36.5519 4.30472 36.0039 4.25052 35.4489 4.25052C33.1576 4.25052 31.0688 5.13379 29.5046 6.57688C29.5304 4.32903 31.3673 2.50826 33.6211 2.50826ZM15.5512 4.25042C14.9962 4.25042 14.4482 4.30462 13.9134 4.40781C14.6629 3.24074 15.9747 2.50816 17.379 2.50816C19.6328 2.50816 21.4696 4.32894 21.4955 6.57678C19.9313 5.1337 17.8425 4.25042 15.5512 4.25042ZM38.8995 38.4918C33.118 38.4918 28.4141 33.7879 28.4141 28.0063C28.4141 22.2247 33.118 17.5208 38.8995 17.5208C44.6811 17.5208 49.3851 22.2247 49.3851 28.0063C49.3851 33.7879 44.6811 38.4918 38.8995 38.4918Z" fill="#7DC6E9" stroke="#7DC6E9" stroke-width="0.25"/>
<path d="M38.8819 18.9854V18.8604L38.8816 18.8604C33.8483 18.8701 29.7534 22.9728 29.7534 28.0062C29.7534 33.0496 33.8563 37.1524 38.8995 37.1524C43.9429 37.1524 48.0458 33.0496 48.0458 28.0062C48.0459 24.2676 45.8025 20.9402 42.3312 19.5302C41.886 19.3492 41.3784 19.5637 41.1978 20.0088C41.0168 20.454 41.2312 20.9614 41.6764 21.1422L41.7234 21.0264L41.6764 21.1422C44.4891 22.2847 46.3059 24.9788 46.3059 28.0062C46.3059 32.0899 42.9833 35.4125 38.8996 35.4125C34.816 35.4125 31.4935 32.0899 31.4935 28.0062C31.4935 23.9306 34.8094 20.6082 38.8851 20.6003C39.3656 20.5994 39.7543 20.209 39.7533 19.7286C39.7524 19.2487 39.3631 18.8604 38.8834 18.8604H38.8834H38.8833H38.8833H38.8833H38.8833H38.8833H38.8833H38.8833H38.8833H38.8833H38.8833H38.8833H38.8832H38.8832H38.8832H38.8832H38.8832H38.8832H38.8832H38.8832H38.8832H38.8832H38.8832H38.8831H38.8831H38.8831H38.8831H38.8831H38.8831H38.8831H38.8831H38.8831H38.8831H38.8831H38.8831H38.883H38.883H38.883H38.883H38.883H38.883H38.883H38.883H38.883H38.883H38.883H38.8829H38.8829H38.8829H38.8829H38.8829H38.8829H38.8829H38.8829H38.8829H38.8829H38.8829H38.8829H38.8828H38.8828H38.8828H38.8828H38.8828H38.8828H38.8828H38.8828H38.8828H38.8828H38.8828H38.8827H38.8827H38.8827H38.8827H38.8827H38.8827H38.8827H38.8827H38.8827H38.8827H38.8827H38.8827H38.8826H38.8826H38.8826H38.8826H38.8826H38.8826H38.8826H38.8826H38.8826H38.8826H38.8826H38.8825H38.8825H38.8825H38.8825H38.8825H38.8825H38.8825H38.8825H38.8825H38.8825H38.8825H38.8825H38.8824H38.8824H38.8824H38.8824H38.8824H38.8824H38.8824H38.8824H38.8824H38.8824H38.8824H38.8823H38.8823H38.8823H38.8823H38.8823H38.8823H38.8823H38.8823H38.8823H38.8823H38.8823H38.8823H38.8822H38.8822H38.8822H38.8822H38.8822H38.8822H38.8822H38.8822H38.8822H38.8822H38.8822H38.8821H38.8821H38.8821H38.8821H38.8821H38.8821H38.8821H38.8821H38.8821H38.8821H38.8821H38.8821H38.882H38.882H38.882H38.882H38.882H38.882H38.882H38.882H38.882H38.882H38.882H38.8819H38.8819H38.8819H38.8819H38.8819H38.8819H38.8819H38.8819H38.8819L38.8819 18.9854Z" fill="#7DC6E9" stroke="#7DC6E9" stroke-width="0.25"/>
</svg>
