<svg width="47" height="47" viewBox="0 0 47 47" fill="none" xmlns="http://www.w3.org/2000/svg">
<mask id="path-1-outside-1_642_1291" maskUnits="userSpaceOnUse" x="-0.424561" y="-0.445801" width="48" height="48" fill="black">
<rect fill="white" x="-0.424561" y="-0.445801" width="48" height="48"/>
<path d="M27.2892 12.5555V5.23188C27.3063 5.00617 27.408 4.79524 27.574 4.64133C27.7399 4.48742 27.9579 4.4019 28.1843 4.4019C28.4106 4.4019 28.6286 4.48742 28.7946 4.64133C28.9606 4.79524 29.0623 5.00617 29.0793 5.23188V6.96588C29.0781 7.03839 29.0942 7.11014 29.1264 7.17513C29.1586 7.24011 29.2059 7.29643 29.2643 7.33938C29.3228 7.38233 29.3906 7.41066 29.4623 7.42198C29.5339 7.43331 29.6072 7.42731 29.676 7.40449L33.756 5.61439C33.8401 5.58421 33.9127 5.52883 33.9641 5.4558C34.0155 5.38278 34.0431 5.29567 34.0431 5.20639C34.0431 5.1171 34.0155 5.02999 33.9641 4.95696C33.9127 4.88394 33.8401 4.82856 33.756 4.79838L27.8502 2.24838C26.769 1.81488 27.4728 0.208385 28.554 0.621485L37.224 4.42098C37.3862 4.48643 37.5251 4.59883 37.6229 4.74377C37.7207 4.88872 37.7729 5.05958 37.7729 5.23444C37.7729 5.40929 37.7207 5.58015 37.6229 5.7251C37.5251 5.87004 37.3862 5.98244 37.224 6.04788L29.3139 9.46488C29.2417 9.49552 29.1816 9.54909 29.1429 9.6173C29.1042 9.68552 29.089 9.76458 29.0997 9.84228V12.7187C29.0925 12.7768 29.0983 12.8359 29.1169 12.8915C29.1354 12.9471 29.1661 12.9978 29.2068 13.04L34.5159 18.956C34.572 19.0631 34.623 19.1141 34.6791 19.2263L46.4091 45.1496C46.4841 45.2907 46.5197 45.4494 46.512 45.609C46.5042 45.7686 46.4536 45.9232 46.3653 46.0564C46.277 46.1896 46.1544 46.2965 46.0104 46.3658C45.8664 46.4351 45.7064 46.4642 45.5472 46.4501H1.44244C1.2125 46.4501 0.991972 46.3587 0.829378 46.1961C0.666784 46.0336 0.575439 45.813 0.575439 45.5831C0.575439 45.3531 0.666784 45.1326 0.829378 44.97C0.991972 44.8074 1.2125 44.7161 1.44244 44.7161H3.12544C3.2417 44.7135 3.35417 44.6743 3.44674 44.6039L10.9284 37.5557C10.9942 37.4806 11.032 37.3851 11.0355 37.2854L12.5655 28.391C12.5709 28.2871 12.5977 28.1855 12.6442 28.0924C12.6907 27.9994 12.756 27.917 12.8358 27.8504L17.6043 23.6735C17.7001 23.575 17.8172 23.4998 17.9467 23.4537C18.0761 23.4076 18.2144 23.3918 18.3508 23.4076C18.4873 23.4234 18.6183 23.4703 18.7338 23.5446C18.8494 23.619 18.9462 23.7189 19.017 23.8367L25.5399 35.2301C25.6031 35.3282 25.645 35.4385 25.6627 35.5539C25.6805 35.6692 25.6737 35.787 25.6429 35.8996C25.6122 36.0122 25.558 36.117 25.484 36.2073C25.41 36.2975 25.3179 36.3712 25.2135 36.4235C25.115 36.4835 25.0052 36.5228 24.8909 36.5388C24.7766 36.5549 24.6602 36.5474 24.5489 36.5168C24.4376 36.4862 24.3338 36.4332 24.2437 36.361C24.1537 36.2889 24.0793 36.199 24.0252 36.0971L18.2418 26.1113C18.2083 26.0586 18.164 26.0136 18.1119 25.9792C18.0598 25.9448 18.001 25.9218 17.9394 25.9117C17.8778 25.9016 17.8147 25.9046 17.7543 25.9206C17.694 25.9365 17.6376 25.965 17.589 26.0042L14.3199 28.8806C14.2518 28.9617 14.1968 29.0529 14.1567 29.1509L12.7134 38.0453C12.6863 38.2418 12.5905 38.4225 12.4431 38.5553C10.602 40.4015 8.59774 42.1916 6.70054 43.9817C6.63678 44.0443 6.59343 44.1248 6.57618 44.2125C6.55892 44.3002 6.56857 44.3911 6.60385 44.4733C6.63913 44.5554 6.69841 44.625 6.7739 44.6729C6.8494 44.7207 6.9376 44.7447 7.02694 44.7416H27.7227C27.8024 44.7433 27.8811 44.7231 27.95 44.683C28.019 44.643 28.0755 44.5847 28.1135 44.5146C28.1514 44.4445 28.1693 44.3652 28.1652 44.2856C28.161 44.206 28.135 44.1291 28.0899 44.0633L26.1519 39.9425C26.0708 39.7764 26.0429 39.5892 26.0721 39.4067C26.1013 39.2241 26.1862 39.055 26.3151 38.9225L32.3841 32.6801C32.4374 32.6349 32.4761 32.5749 32.4952 32.5077C32.5142 32.4405 32.5129 32.3691 32.4912 32.3027L27.942 16.5131C27.9179 16.4291 27.8697 16.354 27.8035 16.297C27.7372 16.24 27.6558 16.2035 27.5691 16.1922C27.4825 16.1808 27.3944 16.195 27.3157 16.2329C27.237 16.2709 27.1711 16.3311 27.126 16.406L22.3065 24.7547C22.2463 24.8551 22.1668 24.9427 22.0727 25.0125C21.9785 25.0822 21.8716 25.1328 21.7579 25.1612C21.6443 25.1896 21.5261 25.1953 21.4102 25.1781C21.2944 25.1609 21.183 25.121 21.0825 25.0607C20.9821 25.0004 20.8945 24.9209 20.8247 24.8268C20.755 24.7327 20.7045 24.6257 20.676 24.5121C20.6476 24.3984 20.6419 24.2803 20.6591 24.1644C20.6764 24.0485 20.7163 23.9371 20.7765 23.8367L27.2331 12.7901C27.2892 12.7391 27.2892 12.683 27.2892 12.5759V12.5555ZM30.6399 44.7161H43.4919C43.5687 44.7139 43.6439 44.6934 43.711 44.6561C43.7782 44.6189 43.8354 44.5661 43.8779 44.5021C43.9204 44.4381 43.9469 44.3648 43.9552 44.2885C43.9634 44.2121 43.9533 44.1349 43.9254 44.0633L33.1389 20.0933L33.0318 19.9862L31.0275 17.7065C30.9571 17.6365 30.8657 17.5916 30.7673 17.5785C30.6689 17.5655 30.5689 17.585 30.4827 17.6342C30.3965 17.6834 30.3288 17.7595 30.2899 17.8509C30.2511 17.9422 30.2433 18.0438 30.2676 18.14L34.3884 32.5118C34.4371 32.6623 34.4423 32.8235 34.4035 32.9768C34.3647 33.1302 34.2835 33.2695 34.1691 33.3788L28.2123 39.4988C28.1393 39.559 28.0886 39.642 28.0682 39.7344C28.0479 39.8269 28.0591 39.9235 28.1001 40.0088L30.2166 44.456C30.2623 44.5321 30.3255 44.5964 30.4008 44.6433C30.4762 44.6903 30.5616 44.7188 30.6501 44.7263L30.6399 44.7161Z"/>
</mask>
<path d="M27.2892 12.5555V5.23188C27.3063 5.00617 27.408 4.79524 27.574 4.64133C27.7399 4.48742 27.9579 4.4019 28.1843 4.4019C28.4106 4.4019 28.6286 4.48742 28.7946 4.64133C28.9606 4.79524 29.0623 5.00617 29.0793 5.23188V6.96588C29.0781 7.03839 29.0942 7.11014 29.1264 7.17513C29.1586 7.24011 29.2059 7.29643 29.2643 7.33938C29.3228 7.38233 29.3906 7.41066 29.4623 7.42198C29.5339 7.43331 29.6072 7.42731 29.676 7.40449L33.756 5.61439C33.8401 5.58421 33.9127 5.52883 33.9641 5.4558C34.0155 5.38278 34.0431 5.29567 34.0431 5.20639C34.0431 5.1171 34.0155 5.02999 33.9641 4.95696C33.9127 4.88394 33.8401 4.82856 33.756 4.79838L27.8502 2.24838C26.769 1.81488 27.4728 0.208385 28.554 0.621485L37.224 4.42098C37.3862 4.48643 37.5251 4.59883 37.6229 4.74377C37.7207 4.88872 37.7729 5.05958 37.7729 5.23444C37.7729 5.40929 37.7207 5.58015 37.6229 5.7251C37.5251 5.87004 37.3862 5.98244 37.224 6.04788L29.3139 9.46488C29.2417 9.49552 29.1816 9.54909 29.1429 9.6173C29.1042 9.68552 29.089 9.76458 29.0997 9.84228V12.7187C29.0925 12.7768 29.0983 12.8359 29.1169 12.8915C29.1354 12.9471 29.1661 12.9978 29.2068 13.04L34.5159 18.956C34.572 19.0631 34.623 19.1141 34.6791 19.2263L46.4091 45.1496C46.4841 45.2907 46.5197 45.4494 46.512 45.609C46.5042 45.7686 46.4536 45.9232 46.3653 46.0564C46.277 46.1896 46.1544 46.2965 46.0104 46.3658C45.8664 46.4351 45.7064 46.4642 45.5472 46.4501H1.44244C1.2125 46.4501 0.991972 46.3587 0.829378 46.1961C0.666784 46.0336 0.575439 45.813 0.575439 45.5831C0.575439 45.3531 0.666784 45.1326 0.829378 44.97C0.991972 44.8074 1.2125 44.7161 1.44244 44.7161H3.12544C3.2417 44.7135 3.35417 44.6743 3.44674 44.6039L10.9284 37.5557C10.9942 37.4806 11.032 37.3851 11.0355 37.2854L12.5655 28.391C12.5709 28.2871 12.5977 28.1855 12.6442 28.0924C12.6907 27.9994 12.756 27.917 12.8358 27.8504L17.6043 23.6735C17.7001 23.575 17.8172 23.4998 17.9467 23.4537C18.0761 23.4076 18.2144 23.3918 18.3508 23.4076C18.4873 23.4234 18.6183 23.4703 18.7338 23.5446C18.8494 23.619 18.9462 23.7189 19.017 23.8367L25.5399 35.2301C25.6031 35.3282 25.645 35.4385 25.6627 35.5539C25.6805 35.6692 25.6737 35.787 25.6429 35.8996C25.6122 36.0122 25.558 36.117 25.484 36.2073C25.41 36.2975 25.3179 36.3712 25.2135 36.4235C25.115 36.4835 25.0052 36.5228 24.8909 36.5388C24.7766 36.5549 24.6602 36.5474 24.5489 36.5168C24.4376 36.4862 24.3338 36.4332 24.2437 36.361C24.1537 36.2889 24.0793 36.199 24.0252 36.0971L18.2418 26.1113C18.2083 26.0586 18.164 26.0136 18.1119 25.9792C18.0598 25.9448 18.001 25.9218 17.9394 25.9117C17.8778 25.9016 17.8147 25.9046 17.7543 25.9206C17.694 25.9365 17.6376 25.965 17.589 26.0042L14.3199 28.8806C14.2518 28.9617 14.1968 29.0529 14.1567 29.1509L12.7134 38.0453C12.6863 38.2418 12.5905 38.4225 12.4431 38.5553C10.602 40.4015 8.59774 42.1916 6.70054 43.9817C6.63678 44.0443 6.59343 44.1248 6.57618 44.2125C6.55892 44.3002 6.56857 44.3911 6.60385 44.4733C6.63913 44.5554 6.69841 44.625 6.7739 44.6729C6.8494 44.7207 6.9376 44.7447 7.02694 44.7416H27.7227C27.8024 44.7433 27.8811 44.7231 27.95 44.683C28.019 44.643 28.0755 44.5847 28.1135 44.5146C28.1514 44.4445 28.1693 44.3652 28.1652 44.2856C28.161 44.206 28.135 44.1291 28.0899 44.0633L26.1519 39.9425C26.0708 39.7764 26.0429 39.5892 26.0721 39.4067C26.1013 39.2241 26.1862 39.055 26.3151 38.9225L32.3841 32.6801C32.4374 32.6349 32.4761 32.5749 32.4952 32.5077C32.5142 32.4405 32.5129 32.3691 32.4912 32.3027L27.942 16.5131C27.9179 16.4291 27.8697 16.354 27.8035 16.297C27.7372 16.24 27.6558 16.2035 27.5691 16.1922C27.4825 16.1808 27.3944 16.195 27.3157 16.2329C27.237 16.2709 27.1711 16.3311 27.126 16.406L22.3065 24.7547C22.2463 24.8551 22.1668 24.9427 22.0727 25.0125C21.9785 25.0822 21.8716 25.1328 21.7579 25.1612C21.6443 25.1896 21.5261 25.1953 21.4102 25.1781C21.2944 25.1609 21.183 25.121 21.0825 25.0607C20.9821 25.0004 20.8945 24.9209 20.8247 24.8268C20.755 24.7327 20.7045 24.6257 20.676 24.5121C20.6476 24.3984 20.6419 24.2803 20.6591 24.1644C20.6764 24.0485 20.7163 23.9371 20.7765 23.8367L27.2331 12.7901C27.2892 12.7391 27.2892 12.683 27.2892 12.5759V12.5555ZM30.6399 44.7161H43.4919C43.5687 44.7139 43.6439 44.6934 43.711 44.6561C43.7782 44.6189 43.8354 44.5661 43.8779 44.5021C43.9204 44.4381 43.9469 44.3648 43.9552 44.2885C43.9634 44.2121 43.9533 44.1349 43.9254 44.0633L33.1389 20.0933L33.0318 19.9862L31.0275 17.7065C30.9571 17.6365 30.8657 17.5916 30.7673 17.5785C30.6689 17.5655 30.5689 17.585 30.4827 17.6342C30.3965 17.6834 30.3288 17.7595 30.2899 17.8509C30.2511 17.9422 30.2433 18.0438 30.2676 18.14L34.3884 32.5118C34.4371 32.6623 34.4423 32.8235 34.4035 32.9768C34.3647 33.1302 34.2835 33.2695 34.1691 33.3788L28.2123 39.4988C28.1393 39.559 28.0886 39.642 28.0682 39.7344C28.0479 39.8269 28.0591 39.9235 28.1001 40.0088L30.2166 44.456C30.2623 44.5321 30.3255 44.5964 30.4008 44.6433C30.4762 44.6903 30.5616 44.7188 30.6501 44.7263L30.6399 44.7161Z" fill="#7DC6E9"/>
<path d="M27.2892 12.5555V5.23188C27.3063 5.00617 27.408 4.79524 27.574 4.64133C27.7399 4.48742 27.9579 4.4019 28.1843 4.4019C28.4106 4.4019 28.6286 4.48742 28.7946 4.64133C28.9606 4.79524 29.0623 5.00617 29.0793 5.23188V6.96588C29.0781 7.03839 29.0942 7.11014 29.1264 7.17513C29.1586 7.24011 29.2059 7.29643 29.2643 7.33938C29.3228 7.38233 29.3906 7.41066 29.4623 7.42198C29.5339 7.43331 29.6072 7.42731 29.676 7.40449L33.756 5.61439C33.8401 5.58421 33.9127 5.52883 33.9641 5.4558C34.0155 5.38278 34.0431 5.29567 34.0431 5.20639C34.0431 5.1171 34.0155 5.02999 33.9641 4.95696C33.9127 4.88394 33.8401 4.82856 33.756 4.79838L27.8502 2.24838C26.769 1.81488 27.4728 0.208385 28.554 0.621485L37.224 4.42098C37.3862 4.48643 37.5251 4.59883 37.6229 4.74377C37.7207 4.88872 37.7729 5.05958 37.7729 5.23444C37.7729 5.40929 37.7207 5.58015 37.6229 5.7251C37.5251 5.87004 37.3862 5.98244 37.224 6.04788L29.3139 9.46488C29.2417 9.49552 29.1816 9.54909 29.1429 9.6173C29.1042 9.68552 29.089 9.76458 29.0997 9.84228V12.7187C29.0925 12.7768 29.0983 12.8359 29.1169 12.8915C29.1354 12.9471 29.1661 12.9978 29.2068 13.04L34.5159 18.956C34.572 19.0631 34.623 19.1141 34.6791 19.2263L46.4091 45.1496C46.4841 45.2907 46.5197 45.4494 46.512 45.609C46.5042 45.7686 46.4536 45.9232 46.3653 46.0564C46.277 46.1896 46.1544 46.2965 46.0104 46.3658C45.8664 46.4351 45.7064 46.4642 45.5472 46.4501H1.44244C1.2125 46.4501 0.991972 46.3587 0.829378 46.1961C0.666784 46.0336 0.575439 45.813 0.575439 45.5831C0.575439 45.3531 0.666784 45.1326 0.829378 44.97C0.991972 44.8074 1.2125 44.7161 1.44244 44.7161H3.12544C3.2417 44.7135 3.35417 44.6743 3.44674 44.6039L10.9284 37.5557C10.9942 37.4806 11.032 37.3851 11.0355 37.2854L12.5655 28.391C12.5709 28.2871 12.5977 28.1855 12.6442 28.0924C12.6907 27.9994 12.756 27.917 12.8358 27.8504L17.6043 23.6735C17.7001 23.575 17.8172 23.4998 17.9467 23.4537C18.0761 23.4076 18.2144 23.3918 18.3508 23.4076C18.4873 23.4234 18.6183 23.4703 18.7338 23.5446C18.8494 23.619 18.9462 23.7189 19.017 23.8367L25.5399 35.2301C25.6031 35.3282 25.645 35.4385 25.6627 35.5539C25.6805 35.6692 25.6737 35.787 25.6429 35.8996C25.6122 36.0122 25.558 36.117 25.484 36.2073C25.41 36.2975 25.3179 36.3712 25.2135 36.4235C25.115 36.4835 25.0052 36.5228 24.8909 36.5388C24.7766 36.5549 24.6602 36.5474 24.5489 36.5168C24.4376 36.4862 24.3338 36.4332 24.2437 36.361C24.1537 36.2889 24.0793 36.199 24.0252 36.0971L18.2418 26.1113C18.2083 26.0586 18.164 26.0136 18.1119 25.9792C18.0598 25.9448 18.001 25.9218 17.9394 25.9117C17.8778 25.9016 17.8147 25.9046 17.7543 25.9206C17.694 25.9365 17.6376 25.965 17.589 26.0042L14.3199 28.8806C14.2518 28.9617 14.1968 29.0529 14.1567 29.1509L12.7134 38.0453C12.6863 38.2418 12.5905 38.4225 12.4431 38.5553C10.602 40.4015 8.59774 42.1916 6.70054 43.9817C6.63678 44.0443 6.59343 44.1248 6.57618 44.2125C6.55892 44.3002 6.56857 44.3911 6.60385 44.4733C6.63913 44.5554 6.69841 44.625 6.7739 44.6729C6.8494 44.7207 6.9376 44.7447 7.02694 44.7416H27.7227C27.8024 44.7433 27.8811 44.7231 27.95 44.683C28.019 44.643 28.0755 44.5847 28.1135 44.5146C28.1514 44.4445 28.1693 44.3652 28.1652 44.2856C28.161 44.206 28.135 44.1291 28.0899 44.0633L26.1519 39.9425C26.0708 39.7764 26.0429 39.5892 26.0721 39.4067C26.1013 39.2241 26.1862 39.055 26.3151 38.9225L32.3841 32.6801C32.4374 32.6349 32.4761 32.5749 32.4952 32.5077C32.5142 32.4405 32.5129 32.3691 32.4912 32.3027L27.942 16.5131C27.9179 16.4291 27.8697 16.354 27.8035 16.297C27.7372 16.24 27.6558 16.2035 27.5691 16.1922C27.4825 16.1808 27.3944 16.195 27.3157 16.2329C27.237 16.2709 27.1711 16.3311 27.126 16.406L22.3065 24.7547C22.2463 24.8551 22.1668 24.9427 22.0727 25.0125C21.9785 25.0822 21.8716 25.1328 21.7579 25.1612C21.6443 25.1896 21.5261 25.1953 21.4102 25.1781C21.2944 25.1609 21.183 25.121 21.0825 25.0607C20.9821 25.0004 20.8945 24.9209 20.8247 24.8268C20.755 24.7327 20.7045 24.6257 20.676 24.5121C20.6476 24.3984 20.6419 24.2803 20.6591 24.1644C20.6764 24.0485 20.7163 23.9371 20.7765 23.8367L27.2331 12.7901C27.2892 12.7391 27.2892 12.683 27.2892 12.5759V12.5555ZM30.6399 44.7161H43.4919C43.5687 44.7139 43.6439 44.6934 43.711 44.6561C43.7782 44.6189 43.8354 44.5661 43.8779 44.5021C43.9204 44.4381 43.9469 44.3648 43.9552 44.2885C43.9634 44.2121 43.9533 44.1349 43.9254 44.0633L33.1389 20.0933L33.0318 19.9862L31.0275 17.7065C30.9571 17.6365 30.8657 17.5916 30.7673 17.5785C30.6689 17.5655 30.5689 17.585 30.4827 17.6342C30.3965 17.6834 30.3288 17.7595 30.2899 17.8509C30.2511 17.9422 30.2433 18.0438 30.2676 18.14L34.3884 32.5118C34.4371 32.6623 34.4423 32.8235 34.4035 32.9768C34.3647 33.1302 34.2835 33.2695 34.1691 33.3788L28.2123 39.4988C28.1393 39.559 28.0886 39.642 28.0682 39.7344C28.0479 39.8269 28.0591 39.9235 28.1001 40.0088L30.2166 44.456C30.2623 44.5321 30.3255 44.5964 30.4008 44.6433C30.4762 44.6903 30.5616 44.7188 30.6501 44.7263L30.6399 44.7161Z" stroke="#7DC6E9" stroke-width="0.5" mask="url(#path-1-outside-1_642_1291)"/>
</svg>
