<svg width="35" height="37" viewBox="0 0 35 37" fill="none" xmlns="http://www.w3.org/2000/svg">
<path d="M34.9237 16.9773C34.7853 16.5146 34.4687 16.1259 34.0436 15.8966C33.6186 15.6673 33.1198 15.6162 32.6571 15.7546L16.3733 20.6266C16.2831 20.6537 16.2003 20.7014 16.1316 20.7659L14.1533 22.6249C14.0711 22.7021 14.0121 22.8007 13.9828 22.9095C13.9535 23.0184 13.9551 23.1332 13.9874 23.2412C14.0197 23.3493 14.0814 23.4461 14.1657 23.521C14.2499 23.5959 14.3534 23.6459 14.4644 23.6653L17.1386 24.1324C17.2315 24.1486 17.3268 24.143 17.4171 24.116L30.6299 20.1627L30.6871 21.4128L26.4887 22.6689L26.8367 23.8322L31.4892 22.4401C31.6189 22.4013 31.7319 22.3203 31.8103 22.2099C31.8886 22.0995 31.9278 21.9661 31.9217 21.8308L31.8289 19.8045L33.7011 19.2444C34.1638 19.1059 34.5525 18.7894 34.7818 18.3643C35.0111 17.9392 35.0621 17.4404 34.9237 16.9777V16.9773ZM17.2066 22.9119L15.8694 22.6783L16.8586 21.7487L19.6291 20.92L19.9771 22.0831L17.2066 22.9119ZM21.1402 21.7349L20.7922 20.5718L30.5155 17.6625L30.5728 18.9127L21.1402 21.7349ZM33.7134 17.7874C33.6757 17.8577 33.6245 17.9198 33.5627 17.9702C33.5008 18.0206 33.4296 18.0582 33.3531 18.0809L31.7717 18.554L31.7145 17.3038L33.0052 16.9177C33.1202 16.8833 33.2428 16.8838 33.3576 16.919C33.4723 16.9543 33.574 17.0229 33.6498 17.116C33.7257 17.209 33.7722 17.3225 33.7835 17.442C33.7948 17.5616 33.7704 17.6818 33.7134 17.7874Z" fill="#057CB5"/>
<path d="M22.4604 25.4956H12.1408V16.39C12.1408 16.229 12.0768 16.0746 11.963 15.9608C11.8491 15.8469 11.6947 15.783 11.5337 15.783H0.607038C0.446041 15.783 0.291639 15.8469 0.177797 15.9608C0.0639556 16.0746 0 16.229 0 16.39V35.8152C0 35.9762 0.0639556 36.1306 0.177797 36.2444C0.291639 36.3583 0.446041 36.4222 0.607038 36.4222H22.4604C22.6214 36.4222 22.7758 36.3583 22.8896 36.2444C23.0035 36.1306 23.0674 35.9762 23.0674 35.8152V26.1026C23.0674 25.9416 23.0035 25.7872 22.8896 25.6734C22.7758 25.5595 22.6214 25.4956 22.4604 25.4956ZM15.783 26.7096H18.2111V29.1378H15.783V26.7096ZM4.8563 16.997H7.28445V19.4252H4.8563V16.997ZM1.21408 16.997H3.64223V20.0322C3.64223 20.1932 3.70618 20.3476 3.82002 20.4615C3.93387 20.5753 4.08827 20.6393 4.24926 20.6393H7.89149C8.05249 20.6393 8.20689 20.5753 8.32073 20.4615C8.43457 20.3476 8.49853 20.1932 8.49853 20.0322V16.997H10.9267V25.4956H1.21408V16.997ZM4.8563 26.7096H7.28445V29.1378H4.8563V26.7096ZM1.21408 26.7096H3.64223V29.7448C3.64223 29.9058 3.70618 30.0602 3.82002 30.1741C3.93387 30.2879 4.08827 30.3519 4.24926 30.3519H7.89149C8.05249 30.3519 8.20689 30.2879 8.32073 30.1741C8.43457 30.0602 8.49853 29.9058 8.49853 29.7448V26.7096H10.9267V35.2082H1.21408V26.7096ZM21.8534 35.2082H12.1408V26.7096H14.5689V29.7448C14.5689 29.9058 14.6329 30.0602 14.7467 30.1741C14.8605 30.2879 15.0149 30.3519 15.1759 30.3519H18.8182C18.9792 30.3519 19.1336 30.2879 19.2474 30.1741C19.3613 30.0602 19.4252 29.9058 19.4252 29.7448V26.7096H21.8534V35.2082Z" fill="#057CB5"/>
<path d="M19.4253 32.78H20.6394V33.9941H19.4253V32.78Z" fill="#057CB5"/>
<path d="M8.49854 32.78H9.71261V33.9941H8.49854V32.78Z" fill="#057CB5"/>
<path d="M8.49854 23.0674H9.71261V24.2815H8.49854V23.0674Z" fill="#057CB5"/>
<path d="M9.71261 4.8563C9.71299 4.53443 9.84103 4.22584 10.0686 3.99824C10.2962 3.77064 10.6048 3.64261 10.9267 3.64223H14.5689V4.8563H11.5337C11.3727 4.8563 11.2183 4.92026 11.1045 5.0341C10.9906 5.14794 10.9267 5.30234 10.9267 5.46334V14.5689H12.1408V6.07038H26.7097V15.783H27.9237V5.46334C27.9237 5.30234 27.8598 5.14794 27.7459 5.0341C27.6321 4.92026 27.4777 4.8563 27.3167 4.8563H24.2815V3.64223H27.9237C28.2456 3.64261 28.5542 3.77064 28.7818 3.99824C29.0094 4.22584 29.1374 4.53443 29.1378 4.8563V15.1759H30.3519V4.8563C30.3512 4.21254 30.0951 3.59535 29.6399 3.14014C29.1847 2.68493 28.5675 2.42887 27.9237 2.42815H22.0238L22.4423 0.754244C22.4646 0.664751 22.4663 0.571336 22.4472 0.481097C22.428 0.390857 22.3886 0.306166 22.3318 0.233457C22.275 0.160748 22.2025 0.101933 22.1195 0.0614808C22.0366 0.0210284 21.9456 2.43583e-06 21.8534 0H16.9971C16.9048 2.43583e-06 16.8138 0.0210284 16.7309 0.0614808C16.648 0.101933 16.5754 0.160748 16.5186 0.233457C16.4618 0.306166 16.4224 0.390857 16.4032 0.481097C16.3841 0.571336 16.3858 0.664751 16.4082 0.754244L16.8266 2.42815H10.9267C10.2829 2.42887 9.66573 2.68493 9.21052 3.14014C8.75531 3.59535 8.49926 4.21254 8.49854 4.8563V14.5689H9.71261V4.8563ZM15.783 3.64223H17.6041C17.6963 3.64222 17.7874 3.6212 17.8703 3.58075C17.9532 3.54029 18.0258 3.48148 18.0826 3.40877C18.1393 3.33606 18.1788 3.25137 18.1979 3.16113C18.2171 3.07089 18.2154 2.97748 18.193 2.88798L17.7745 1.21408H21.0759L20.6574 2.88798C20.6351 2.97748 20.6334 3.07089 20.6525 3.16113C20.6717 3.25137 20.7111 3.33606 20.7679 3.40877C20.8246 3.48148 20.8972 3.54029 20.9801 3.58075C21.063 3.6212 21.1541 3.64222 21.2463 3.64223H23.0674V4.8563H15.783V3.64223Z" fill="#057CB5"/>
<path d="M29.138 29.7448C29.1377 30.0667 29.0096 30.3753 28.782 30.6029C28.5544 30.8305 28.2458 30.9585 27.924 30.9589H24.2817V32.173H27.924C28.5677 32.1723 29.1849 31.9162 29.6401 31.461C30.0953 31.0058 30.3514 30.3886 30.3521 29.7448V24.2815H29.138V29.7448Z" fill="#057CB5"/>
<path d="M27.924 29.1377V24.8884H26.7099V28.5307H24.2817V29.7447H27.3169C27.4779 29.7447 27.6323 29.6808 27.7462 29.5669C27.86 29.4531 27.924 29.2987 27.924 29.1377Z" fill="#057CB5"/>
<path d="M16.9972 7.89171C16.9972 7.73071 16.9333 7.57631 16.8194 7.46247C16.7056 7.34862 16.5512 7.28467 16.3902 7.28467H13.962C13.801 7.28467 13.6466 7.34862 13.5328 7.46247C13.4189 7.57631 13.355 7.73071 13.355 7.89171V10.3199C13.355 10.4809 13.4189 10.6353 13.5328 10.7491C13.6466 10.8629 13.801 10.9269 13.962 10.9269H16.3902C16.5512 10.9269 16.7056 10.8629 16.8194 10.7491C16.9333 10.6353 16.9972 10.4809 16.9972 10.3199V7.89171ZM15.7831 9.71282H14.5691V8.49874H15.7831V9.71282Z" fill="#057CB5"/>
<path d="M16.3902 12.7478H13.962C13.801 12.7478 13.6466 12.8118 13.5328 12.9256C13.4189 13.0394 13.355 13.1938 13.355 13.3548V15.783C13.355 15.944 13.4189 16.0984 13.5328 16.2122C13.6466 16.3261 13.801 16.39 13.962 16.39H16.3902C16.5512 16.39 16.7056 16.3261 16.8194 16.2122C16.9333 16.0984 16.9972 15.944 16.9972 15.783V13.3548C16.9972 13.1938 16.9333 13.0394 16.8194 12.9256C16.7056 12.8118 16.5512 12.7478 16.3902 12.7478ZM15.7831 15.176H14.5691V13.9619H15.7831V15.176Z" fill="#057CB5"/>
<path d="M18.2114 7.28467H19.4255V8.49874H18.2114V7.28467Z" fill="#057CB5"/>
<path d="M18.2114 9.71265H25.4959V10.9267H18.2114V9.71265Z" fill="#057CB5"/>
<path d="M20.6396 7.28467H25.4959V8.49874H20.6396V7.28467Z" fill="#057CB5"/>
<path d="M18.2114 12.7478H19.4255V13.9619H18.2114V12.7478Z" fill="#057CB5"/>
<path d="M18.2114 15.176H25.4959V16.3901H18.2114V15.176Z" fill="#057CB5"/>
<path d="M20.6396 12.7478H25.4959V13.9619H20.6396V12.7478Z" fill="#057CB5"/>
</svg>
