<svg width="67" height="55" viewBox="0 0 67 55" fill="none" xmlns="http://www.w3.org/2000/svg">
<path fill-rule="evenodd" clip-rule="evenodd" d="M20.2308 0L32.7924 10.2486L29.5783 12.3709C26.4881 14.4115 23.477 17.4277 21.1726 20.7437C19.701 22.8614 18.5857 25.0024 17.8992 26.9935C21.3123 27.1748 24.3404 28.5687 26.5517 30.9247C28.9174 33.4452 30.2048 36.9092 30.2048 40.7715C30.2048 48.5364 24.0643 55 16.0645 55C11.7414 55 7.65758 53.2075 4.68588 49.823C1.72123 46.4465 0 41.653 0 35.8235C0 21.6324 8.05606 8.78854 18.4892 1.25721L20.2308 0ZM17.2062 29.8001C17.182 29.7999 17.1577 29.7999 17.1335 29.7999C16.3948 29.7999 15.452 29.9026 14.8693 29.9661C14.6087 29.9944 14.4202 30.015 14.3541 30.015C14.4415 29.0766 14.6322 28.1062 14.9138 27.1186C16.4584 21.7003 20.7368 15.7623 25.6925 11.7338C26.4603 11.1096 27.2444 10.5313 28.0371 10.0078L20.1266 3.55388C10.2919 10.6532 2.80902 22.7005 2.80902 35.8235C2.80902 46.3649 9.00915 52.1735 16.0645 52.1735C22.4784 52.1735 27.3957 47.0103 27.3957 40.7715C27.3957 34.3438 23.1544 29.8365 17.2062 29.8001ZM54.4385 0L67 10.2486L63.7859 12.3709C60.7084 14.4032 57.7514 17.4112 55.4685 20.732C54.0198 22.8394 52.9016 24.9861 52.1842 26.9976C59.368 27.4131 64.6262 33.1281 64.6262 40.7715C64.6262 48.6057 58.2031 55 50.2721 55C45.9491 55 41.8652 53.2075 38.8935 49.823C35.9288 46.4465 34.2076 41.653 34.2076 35.8235C34.2076 21.6324 42.2637 8.78854 52.6968 1.25721L54.4385 0ZM51.4325 29.8002C51.4021 29.8 51.3716 29.7999 51.3411 29.7999C50.6024 29.7999 49.6596 29.9026 49.0769 29.9661C48.8163 29.9944 48.6278 30.015 48.5617 30.015C48.6786 29.0744 48.8912 28.1016 49.1887 27.1116C50.816 21.6965 54.9826 15.7636 59.9039 11.7369C60.6682 11.1115 61.4507 10.5321 62.2448 10.0078L54.3342 3.55388C44.4996 10.6532 37.0166 22.7005 37.0166 35.8235C37.0166 46.3649 43.2168 52.1735 50.2721 52.1735C56.686 52.1735 61.8172 47.0103 61.8172 40.7715C61.8172 34.3505 57.3731 29.846 51.4325 29.8002Z" fill="#7DC6E9"/>
</svg>
