<svg width="35" height="33" viewBox="0 0 35 33" fill="none" xmlns="http://www.w3.org/2000/svg">
<path d="M33.2259 22.7499C34.0602 21.9158 34.4839 20.8636 34.4513 19.7073L34.1354 8.56125C34.1055 7.50257 33.0422 6.55511 31.8993 6.5733C31.3473 6.58218 29.5471 6.88378 29.5604 10.3933L29.5835 16.448C29.5844 16.6744 29.5616 16.8904 29.5141 17.0988C29.4359 16.9822 29.3437 16.8702 29.2372 16.7638C28.4753 16.0018 27.2261 15.9934 26.3933 16.7444C26.375 16.7608 26.3579 16.7785 26.342 16.7973C25.3597 17.9586 24.1559 18.9731 23.1887 19.7883C22.8514 20.0726 22.5327 20.3412 22.2719 20.5763C21.2018 21.5407 21.0589 22.8799 21.0603 24.0628L21.0657 28.4771L20.4041 28.4715C20.4002 28.4715 20.3963 28.4715 20.3925 28.4715C20.0458 28.4715 19.7187 28.6056 19.4701 28.8499C19.2187 29.097 19.0787 29.4263 19.0757 29.7773L19.0612 31.464C19.0582 31.8149 19.1926 32.1466 19.4396 32.398C19.6867 32.6494 20.016 32.7895 20.367 32.7925L29.129 32.8678H29.1404C29.8615 32.8678 30.4513 32.2844 30.4574 31.5619L30.4719 29.8752C30.4749 29.5242 30.3405 29.1925 30.0935 28.9412C29.8464 28.6898 29.5171 28.5497 29.1661 28.5467L28.3447 28.5396V27.6312L33.2259 22.7499ZM29.3782 29.8657L29.3637 31.5525C29.3627 31.673 29.2605 31.774 29.1402 31.774C29.1395 31.774 29.1389 31.774 29.1383 31.774L20.3763 31.6986C20.297 31.698 20.2441 31.6561 20.2196 31.6312C20.1951 31.6064 20.1542 31.5528 20.1549 31.4733L20.1694 29.7866C20.17 29.7072 20.2119 29.6543 20.2368 29.6298C20.2615 29.6056 20.3144 29.5652 20.3927 29.5652H20.3947L29.1567 29.6404C29.2778 29.6414 29.3792 29.7447 29.3782 29.8657ZM22.1596 28.4865L22.1542 24.0614C22.1529 23.0722 22.2551 22.0638 23.0042 21.3887C23.2515 21.1657 23.5491 20.915 23.8936 20.6246C24.8839 19.79 26.1143 18.7531 27.1507 17.5347C27.5559 17.1894 28.1152 17.1885 28.4639 17.537C28.9223 17.9955 28.7276 18.4909 28.4761 18.8318C27.9563 19.4167 27.4111 19.9445 26.834 20.503C26.5591 20.7691 26.2747 21.0443 25.9882 21.3308C25.7747 21.5443 25.7747 21.8906 25.9882 22.1041C26.095 22.2109 26.2349 22.2643 26.3749 22.2643C26.5149 22.2643 26.6549 22.2109 26.7617 22.1041C27.0418 21.8239 27.3228 21.5519 27.5946 21.2889C28.1925 20.7103 28.7572 20.1638 29.3091 19.5412C29.3116 19.5385 29.3211 19.5273 29.3234 19.5244L29.7406 19.0136C30.3744 18.2333 30.6808 17.3927 30.6773 16.4438L30.6542 10.389C30.6478 8.69722 31.1199 7.67956 31.917 7.66684C31.922 7.66677 31.927 7.6667 31.932 7.6667C32.4716 7.6667 33.0292 8.12943 33.0422 8.59215L33.3581 19.7381C33.3823 20.5983 33.0777 21.3514 32.4526 21.9764L27.4111 27.0179C27.3085 27.1205 27.2509 27.2595 27.2509 27.4046V28.5301L22.1596 28.4865ZM20.8945 30.4469C21.0014 30.1779 21.3062 30.0465 21.5752 30.1535C21.8442 30.2604 21.9755 30.5651 21.8686 30.8341C21.7616 31.1031 21.4569 31.2344 21.1879 31.1275C20.9189 31.0206 20.7876 30.7158 20.8945 30.4469ZM15.5298 28.8499C15.2784 28.6029 14.9476 28.4698 14.5957 28.4715L13.9342 28.4771L13.9396 24.0628C13.941 22.8799 13.7982 21.5407 12.7281 20.5763C12.4672 20.3412 12.1485 20.0726 11.8112 19.7883C10.844 18.9731 9.64016 17.9586 8.65791 16.7973C8.64205 16.7785 8.62489 16.7608 8.60657 16.7444C7.77375 15.9935 6.52455 16.0019 5.76261 16.7638C5.65625 16.8702 5.56389 16.9822 5.48576 17.0988C5.43839 16.8904 5.41562 16.6745 5.41644 16.448L5.43955 10.3933C5.45281 6.88378 3.65263 6.58218 3.10056 6.5733C3.08969 6.57309 3.07896 6.57302 3.06809 6.57302C1.94009 6.57302 0.894127 7.51262 0.864459 8.56125L0.548639 19.7073C0.515894 20.8636 0.939654 21.9158 1.77398 22.7499L6.65532 27.6312V28.5397L5.83391 28.5467C5.48289 28.5497 5.15353 28.6898 4.90648 28.9412C4.65943 29.1926 4.52503 29.5243 4.52804 29.8752L4.54247 31.5619C4.54869 32.2844 5.13836 32.8679 5.85955 32.8679H5.87096L14.6328 32.7925C14.9838 32.7895 15.3132 32.6495 15.5602 32.398C15.8073 32.1467 15.9417 31.815 15.9387 31.464L15.9242 29.7773C15.9212 29.4263 15.7812 29.097 15.5298 28.8499ZM7.74914 27.4047C7.74914 27.2597 7.69151 27.1206 7.58897 27.018L2.54747 21.9765C1.92232 21.3515 1.61771 20.5985 1.64205 19.7383L1.95787 8.59229C1.97092 8.12943 2.52853 7.66684 3.06809 7.66684C3.07308 7.66684 3.07814 7.66691 3.08313 7.66698C3.8802 7.67976 4.35229 8.69736 4.34587 10.3892L4.32276 16.444C4.31927 17.3929 4.62566 18.2335 5.26038 19.0148L5.67655 19.5244C5.6788 19.5271 5.68831 19.5383 5.69084 19.5413C6.24277 20.1639 6.80742 20.7104 7.40536 21.2889C7.67715 21.552 7.95818 21.824 8.23832 22.1041C8.34509 22.2109 8.48503 22.2644 8.62503 22.2644C8.76496 22.2644 8.90496 22.211 9.01173 22.1042C9.22529 21.8906 9.22536 21.5444 9.01173 21.3309C8.72524 21.0444 8.44087 20.7691 8.16592 20.5031C7.58883 19.9446 7.0436 19.4167 6.52386 18.8318C6.27237 18.491 6.07768 17.9956 6.5361 17.5372C6.8848 17.1886 7.44412 17.1895 7.84935 17.5348C8.88575 18.7532 10.1161 19.79 11.1065 20.6246C11.451 20.915 11.7486 21.1658 11.9959 21.3888C12.745 22.0639 12.8471 23.0723 12.8459 24.0615L12.8405 28.4866L7.74927 28.5303L7.74914 27.4047ZM14.7803 31.6313C14.7558 31.6562 14.7029 31.6981 14.6236 31.6987L5.86173 31.774C5.86112 31.774 5.8605 31.774 5.85989 31.774C5.73951 31.774 5.63731 31.673 5.63628 31.5526L5.62186 29.8658C5.62118 29.7864 5.66212 29.7328 5.6866 29.7079C5.71107 29.6829 5.76398 29.6411 5.84335 29.6405L14.6052 29.5652C14.6826 29.5617 14.7382 29.6054 14.7631 29.6299C14.788 29.6544 14.8299 29.7073 14.8306 29.7866L14.845 31.4733C14.8457 31.5528 14.8048 31.6064 14.7803 31.6313ZM14.1054 30.4469C14.2123 30.7158 14.081 31.0206 13.812 31.1275C13.543 31.2344 13.2383 31.1031 13.1313 30.8341C13.0244 30.5651 13.1557 30.2604 13.4247 30.1535C13.6937 30.0465 13.9985 30.1779 14.1054 30.4469ZM9.01467 14.8777C7.96098 13.0676 7.5202 11.0073 7.73998 8.91946C8.01444 6.31244 9.28763 3.96839 11.3251 2.31902C13.3625 0.669644 15.9205 -0.0874361 18.5274 0.18689C20.0425 0.346373 21.4784 0.84854 22.7462 1.65245L22.7271 1.58532C22.6442 1.29486 22.8125 0.992232 23.1029 0.909312C23.3932 0.826392 23.6959 0.994761 23.7789 1.28515L24.2479 2.92919C24.2941 3.09086 24.2633 3.26477 24.1644 3.40074C24.0656 3.5367 23.9097 3.61969 23.7417 3.62578L22.0331 3.68716C22.0264 3.68737 22.0197 3.68751 22.0131 3.68751C21.7201 3.68751 21.4775 3.45536 21.4669 3.16025C21.4561 2.85844 21.692 2.60497 21.9938 2.5941L22.1782 2.58747C21.0478 1.86703 19.766 1.41702 18.4128 1.27456C16.0963 1.03092 13.8236 1.70351 12.0132 3.16907C10.2028 4.63462 9.07148 6.71747 8.82764 9.03396C8.63234 10.8891 9.02383 12.7195 9.95981 14.3274C10.1118 14.5884 10.0234 14.9233 9.76232 15.0752C9.67578 15.1255 9.5811 15.1495 9.48765 15.1495C9.29946 15.1495 9.11619 15.0521 9.01467 14.8777ZM23.6749 17.5748C21.911 19.0027 19.7568 19.7619 17.5187 19.7619C17.1715 19.7619 16.8226 19.7437 16.4726 19.7068C14.9582 19.5474 13.5216 19.0448 12.2536 18.2409L12.2728 18.3084C12.3557 18.5989 12.1874 18.9015 11.897 18.9844C11.8469 18.9987 11.7964 19.0055 11.7467 19.0055C11.5086 19.0055 11.2896 18.8489 11.221 18.6086L10.752 16.9645C10.7058 16.8029 10.7366 16.629 10.8355 16.493C10.9343 16.357 11.0902 16.274 11.2582 16.268L12.9668 16.2066C13.269 16.1986 13.5222 16.4316 13.533 16.7335C13.5438 17.0353 13.3079 17.2888 13.0061 17.2996L12.8217 17.3063C13.9522 18.0266 15.2346 18.4769 16.587 18.6192C18.9036 18.8628 21.1763 18.1903 22.9866 16.7247C24.797 15.2592 25.9284 13.1763 26.1722 10.8598C26.3675 9.00436 25.976 7.17397 25.04 5.56636C24.888 5.30537 24.9764 4.97054 25.2374 4.81865C25.4984 4.66662 25.8331 4.75507 25.9852 5.01607C27.0389 6.82588 27.4798 8.88617 27.2599 10.9743C26.9855 13.5813 25.7123 15.9253 23.6749 17.5748ZM17.5 6.25515C15.4644 6.25515 13.8082 7.91129 13.8082 9.9469C13.8082 11.9825 15.4644 13.6386 17.5 13.6386C19.5357 13.6386 21.1917 11.9825 21.1917 9.9469C21.1917 7.91129 19.5357 6.25515 17.5 6.25515ZM17.5 12.5449C16.0674 12.5449 14.902 11.3794 14.902 9.9469C14.902 8.51436 16.0674 7.3489 17.5 7.3489C18.9325 7.3489 20.098 8.51436 20.098 9.9469C20.098 11.3794 18.9325 12.5449 17.5 12.5449ZM22.9816 6.92111L23.3483 6.0954C23.4402 5.88868 23.3952 5.64675 23.2353 5.48672L21.9602 4.21162C21.8002 4.05166 21.5582 4.00695 21.3515 4.09855L20.5254 4.4655C20.1164 4.23923 19.6848 4.06027 19.2365 3.93114L18.912 3.0882C18.8307 2.8771 18.6279 2.73779 18.4016 2.73779H16.5984C16.3721 2.73779 16.1693 2.8771 16.088 3.0882L15.7635 3.93114C15.3152 4.06034 14.8836 4.2393 14.4747 4.4655L13.6486 4.09855C13.4418 4.00674 13.1999 4.05166 13.0399 4.21162L11.7648 5.48672C11.6049 5.64675 11.5599 5.88868 11.6517 6.0954L12.0186 6.92138C11.7923 7.33038 11.6134 7.76213 11.4842 8.21043L10.6413 8.53487C10.4302 8.61608 10.2909 8.81897 10.2909 9.04524V10.8485C10.2909 11.0748 10.4302 11.2776 10.6413 11.3589L11.484 11.6832C11.6132 12.1318 11.7922 12.5636 12.0185 12.9726L11.6517 13.7983C11.5598 14.005 11.6048 14.2469 11.7648 14.4069L13.0399 15.682C13.2 15.842 13.442 15.8869 13.6486 15.7951L14.4747 15.4282C14.8837 15.6545 15.3154 15.8335 15.7636 15.9626L16.0881 16.8055C16.1693 17.0166 16.3722 17.1559 16.5985 17.1559H18.4017C18.628 17.1559 18.8308 17.0166 18.9121 16.8055L19.2365 15.9629C19.685 15.8336 20.1167 15.6546 20.5258 15.4284L21.3515 15.7951C21.5583 15.887 21.8002 15.842 21.9602 15.682L23.2353 14.4069C23.3952 14.2469 23.4402 14.005 23.3484 13.7983L22.9815 12.9721C23.2078 12.5632 23.3867 12.1316 23.5158 11.6833L24.3588 11.3588C24.5699 11.2776 24.7092 11.0747 24.7092 10.8484V9.0451C24.7092 8.81883 24.5699 8.61601 24.3588 8.53473L23.5162 8.21037C23.3869 7.76193 23.2079 7.3301 22.9816 6.92111ZM23.6154 10.473L22.8618 10.7631C22.6935 10.8278 22.5679 10.9715 22.5262 11.1468C22.3996 11.6784 22.1898 12.1848 21.9023 12.6517C21.8078 12.8053 21.7951 12.9955 21.8682 13.1603L22.1963 13.8991L21.4522 14.6432L20.7138 14.3152C20.5489 14.2419 20.3586 14.2548 20.205 14.3494C19.7382 14.6369 19.2318 14.8468 18.6998 14.9734C18.5244 15.0151 18.3808 15.1406 18.3161 15.3089L18.0261 16.0623H16.9738L16.6837 15.3087C16.619 15.1404 16.4754 15.0149 16.2999 14.9732C15.7683 14.8466 15.262 14.6368 14.7951 14.3493C14.6415 14.2546 14.4512 14.2419 14.2864 14.3151L13.5477 14.6433L12.8036 13.8992L13.1315 13.1607C13.2047 12.9959 13.1919 12.8056 13.0973 12.652C12.8098 12.1853 12.5999 11.6789 12.4733 11.1467C12.4315 10.9714 12.306 10.8278 12.1377 10.763L11.3844 10.4731V9.42067L12.1379 9.13062C12.3062 9.06588 12.4318 8.92226 12.4735 8.74685C12.6001 8.21515 12.81 7.70875 13.0974 7.24192C13.192 7.08838 13.2048 6.89807 13.1316 6.73326L12.8036 5.99457L13.5477 5.25047L14.2863 5.5786C14.4512 5.65181 14.6415 5.63903 14.7951 5.54449C15.2619 5.25704 15.7682 5.04717 16.2999 4.92057C16.4753 4.87887 16.619 4.75336 16.6837 4.58506L16.9738 3.83147H18.0261L18.3163 4.58506C18.381 4.75336 18.5246 4.87887 18.7 4.92057C19.2317 5.04717 19.738 5.25704 20.2048 5.54449C20.3584 5.63903 20.5487 5.65181 20.7135 5.5786L21.4523 5.25047L22.1963 5.99457L21.8684 6.73298C21.7952 6.8978 21.808 7.08811 21.9026 7.24171C22.1901 7.70847 22.4 8.21488 22.5266 8.74692C22.5683 8.92233 22.6939 9.06595 22.8622 9.13069L23.6156 9.42067V10.473H23.6154Z" fill="#057CB5"/>
</svg>
