<svg width="36" height="32" viewBox="0 0 36 32" fill="none" xmlns="http://www.w3.org/2000/svg">
<path fill-rule="evenodd" clip-rule="evenodd" d="M10.6339 21.9972C10.1039 21.9972 9.67224 21.5656 9.67224 21.0347C9.67224 20.5047 10.1038 20.073 10.6339 20.073C11.164 20.073 11.5955 20.5046 11.5955 21.0347C11.5956 21.5656 11.1639 21.9972 10.6339 21.9972ZM10.6339 19.0258C9.52615 19.0258 8.62456 19.927 8.62456 21.0348C8.62456 22.1434 9.52615 23.045 10.6339 23.045C11.7416 23.045 12.6433 22.1434 12.6433 21.0348C12.6433 19.927 11.7417 19.0258 10.6339 19.0258ZM33.0864 20.6256C33.2991 21.4576 33.2986 22.3328 33.0864 23.1649C33.0432 23.3348 33.0877 23.5149 33.2051 23.6446L34.1178 24.6588L33.5136 25.7052L32.1777 25.4214C32.006 25.3844 31.8277 25.436 31.7019 25.5591C31.0876 26.1597 30.3276 26.5988 29.5054 26.8288C29.3364 26.8764 29.2027 27.0048 29.1489 27.1716L28.727 28.4692H27.5186L27.0967 27.1716C27.0429 27.0048 26.9087 26.8764 26.7397 26.8288C25.917 26.5988 25.158 26.1597 24.5436 25.5591C24.4174 25.436 24.2395 25.3843 24.0678 25.4214L22.7315 25.7052L22.1274 24.6588L23.0405 23.6446C23.1579 23.5148 23.2025 23.3348 23.1592 23.1649C22.9468 22.3324 22.9466 21.4576 23.1592 20.6256C23.2025 20.4561 23.1578 20.2756 23.0405 20.1449L22.1274 19.1316L22.7315 18.0852L24.0678 18.369C24.2395 18.406 24.4174 18.3544 24.5436 18.2313C25.1579 17.6307 25.9179 17.1916 26.7397 16.9616C26.9087 16.9144 27.0429 16.786 27.0967 16.6188L27.5186 15.3212H28.727L29.1489 16.6188C29.2027 16.786 29.3364 16.9144 29.5054 16.9616C30.3276 17.1916 31.0876 17.6307 31.7019 18.2313C31.8277 18.3544 32.006 18.4052 32.1777 18.369L33.5136 18.0852L34.1178 19.1316L33.2051 20.1449C33.0877 20.2756 33.0431 20.4561 33.0864 20.6256ZM34.1654 23.1468C34.3354 22.3197 34.3354 21.4707 34.1654 20.6436L35.1509 19.5492C35.3031 19.381 35.3287 19.1339 35.2158 18.9375L34.2311 17.2317C34.1173 17.0349 33.89 16.9338 33.668 16.9811L32.2258 17.2878C31.5964 16.7268 30.8568 16.2996 30.0606 16.0357L29.6052 14.6359C29.5354 14.4196 29.3342 14.2736 29.1074 14.2736H27.1377C26.9109 14.2736 26.71 14.4196 26.6398 14.6359L26.1844 16.0357C25.3882 16.2996 24.6486 16.7268 24.0193 17.2878L22.577 16.9811C22.355 16.9339 22.1282 17.0349 22.0143 17.2317L21.0302 18.9375C20.9163 19.1339 20.9423 19.381 21.0946 19.5492L22.0801 20.6436C21.9094 21.4699 21.9096 22.32 22.0801 23.1468L21.0946 24.2404C20.9424 24.4095 20.9163 24.6566 21.0302 24.853L22.0143 26.5588C22.1282 26.7547 22.355 26.8567 22.577 26.8094L24.0193 26.5027C24.6486 27.0628 25.3882 27.4908 26.1844 27.7543L26.6398 29.1546C26.71 29.3704 26.9108 29.5169 27.1377 29.5169H29.1074C29.3342 29.5169 29.5354 29.3704 29.6052 29.1546L30.0602 27.7543C30.8569 27.4908 31.5965 27.0636 32.2258 26.5027L33.6681 26.8094C33.8901 26.8566 34.1174 26.7547 34.2312 26.5588L35.2158 24.853C35.3288 24.6566 35.3032 24.4095 35.151 24.2404L34.1654 23.1468ZM28.1228 24.4832C29.5496 24.4832 30.7103 23.3221 30.7103 21.8953C30.7103 20.4685 29.5497 19.3078 28.1228 19.3078C26.696 19.3078 25.5349 20.4685 25.5349 21.8953C25.5349 23.3221 26.696 24.4832 28.1228 24.4832ZM28.1228 18.2601C26.1183 18.2601 24.4876 19.8908 24.4876 21.8953C24.4876 23.8998 26.1183 25.5305 28.1228 25.5305C30.1269 25.5305 31.758 23.8998 31.758 21.8953C31.758 19.8908 30.1269 18.2601 28.1228 18.2601ZM19.7557 8.0178C19.7557 6.591 20.9163 5.43036 22.3432 5.43036C23.7704 5.43036 24.9311 6.59108 24.9311 8.0178C24.9311 9.44508 23.7704 10.6057 22.3432 10.6057C20.9163 10.6057 19.7557 9.445 19.7557 8.0178ZM25.9784 8.0178C25.9784 6.01372 24.3477 4.3826 22.3432 4.3826C20.3391 4.3826 18.708 6.01372 18.708 8.0178C18.708 10.0223 20.3391 11.653 22.3432 11.653C24.3477 11.653 25.9784 10.0223 25.9784 8.0178ZM18.764 11.6816C18.6382 11.5589 18.4604 11.5073 18.2882 11.5435L16.9523 11.8277L16.3482 10.7813L17.2608 9.76716C17.3782 9.6374 17.4232 9.45732 17.38 9.28748C17.1675 8.45636 17.1674 7.5794 17.38 6.74812C17.4233 6.57868 17.3782 6.39812 17.2608 6.26796L16.3482 5.2542L16.9523 4.20828L18.2882 4.49164C18.4603 4.52868 18.6382 4.47708 18.764 4.35396C19.3788 3.75332 20.1383 3.3142 20.9605 3.08428C21.1295 3.03708 21.2637 2.9086 21.3175 2.7414L21.7394 1.44388H22.9478L23.3692 2.7414C23.423 2.90868 23.5572 3.03708 23.7262 3.08428C24.548 3.3142 25.3079 3.75332 25.9227 4.35396C26.0485 4.4762 26.2263 4.52876 26.3985 4.49164L27.7344 4.20828L28.3386 5.2542L27.4254 6.26796C27.3085 6.39812 27.2634 6.57868 27.3071 6.74812C27.5188 7.57492 27.5186 8.46092 27.3071 9.28748C27.2634 9.4574 27.3085 9.63748 27.4254 9.76716L28.3386 10.7813L27.7344 11.8277L26.3985 11.5435C26.2263 11.5073 26.0485 11.5589 25.9227 11.6816C25.3079 12.2823 24.548 12.7219 23.7262 12.9513C23.5572 12.999 23.423 13.1274 23.3692 13.2942L22.9478 14.5921H21.7394L21.3175 13.2942C21.2637 13.1274 21.1295 12.9989 20.9605 12.9513C20.1378 12.7219 19.3788 12.2823 18.764 11.6816ZM21.3586 15.6395H23.3282C23.555 15.6395 23.7563 15.4929 23.8261 15.2772L24.2806 13.8768C25.0777 13.6138 25.8174 13.1862 26.4466 12.6252L27.8889 12.932C28.1109 12.9796 28.3377 12.8776 28.4516 12.6813L29.4358 10.9756C29.5496 10.7796 29.5236 10.5324 29.3714 10.3639L28.3863 9.2694C28.5563 8.44236 28.5563 7.59332 28.3863 6.7662L29.3714 5.67212C29.5236 5.50356 29.5497 5.25636 29.4366 5.05956L28.4516 3.35468C28.3378 3.1574 28.1109 3.05636 27.8889 3.10404L26.4466 3.41036C25.8173 2.84988 25.0777 2.4222 24.2806 2.15828L23.8261 0.758438C23.7563 0.543078 23.5551 0.396118 23.3282 0.396118H21.3586C21.1317 0.396118 20.9305 0.542198 20.8607 0.758438L20.4053 2.15828C19.6091 2.4222 18.8694 2.84988 18.2402 3.41036L16.7979 3.10404C16.5759 3.05636 16.3491 3.15748 16.2352 3.35468L15.251 5.05956C15.1372 5.25636 15.1628 5.50348 15.315 5.67212L16.301 6.7662C16.1302 7.5922 16.1304 8.44324 16.301 9.2694L15.315 10.3639C15.1628 10.5324 15.1372 10.7796 15.251 10.9756L16.2352 12.6813C16.349 12.8781 16.5759 12.9796 16.7979 12.932L18.2402 12.6252C18.8695 13.1853 19.6091 13.6138 20.4053 13.8768L20.8607 15.2772C20.9305 15.4929 21.1318 15.6395 21.3586 15.6395ZM10.6339 24.9144C12.773 24.9144 14.5136 23.1742 14.5136 21.0347C14.5136 18.8964 12.773 17.1559 10.6339 17.1559C8.4948 17.1559 6.75424 18.8964 6.75424 21.0347C6.75424 23.1742 8.4948 24.9144 10.6339 24.9144ZM10.6339 16.1082C7.91711 16.1082 5.70648 18.318 5.70648 21.0348C5.70648 23.7516 7.91704 25.9621 10.6339 25.9621C13.3507 25.9621 15.5609 23.7515 15.5609 21.0348C15.5609 18.318 13.3507 16.1082 10.6339 16.1082ZM17.9882 18.7045L19.3854 17.1519L18.373 15.3972L16.3266 15.8323C16.1553 15.8684 15.9774 15.8172 15.8517 15.695C14.9558 14.819 13.8481 14.1786 12.6494 13.8432C12.4804 13.7964 12.3462 13.6671 12.2919 13.5012L11.6462 11.5143H9.62104L8.97496 13.5012C8.92112 13.6671 8.78736 13.7964 8.6184 13.8432C7.41976 14.1786 6.312 14.8189 5.41616 15.695C5.2904 15.8172 5.11208 15.8684 4.94128 15.8323L2.89488 15.3972L1.882 17.1519L3.27968 18.7045C3.39704 18.8343 3.44168 19.0144 3.3984 19.1842C3.0896 20.3959 3.08944 21.6752 3.3984 22.8865C3.44168 23.056 3.39704 23.2364 3.27968 23.3662L1.882 24.9188L2.89488 26.6721L4.94128 26.2379C5.11208 26.2017 5.2904 26.2533 5.41616 26.3756C6.31208 27.2516 7.41936 27.8911 8.6184 28.2269C8.78744 28.2737 8.92112 28.4021 8.97496 28.5694L9.62104 30.5563H11.6462L12.2919 28.5694C12.3462 28.4021 12.4804 28.2737 12.6494 28.2269C13.8481 27.892 14.9558 27.2516 15.8517 26.3756C15.9774 26.2533 16.1553 26.2016 16.3266 26.2379L18.373 26.6721L19.3854 24.9188L17.9882 23.3662C17.8708 23.2364 17.8262 23.056 17.8694 22.8865C18.1778 21.6775 18.1778 20.3939 17.8694 19.1842C17.8262 19.0143 17.8708 18.8343 17.9882 18.7045ZM20.483 16.9577L19.0893 14.5436C18.9763 14.3477 18.7494 14.2462 18.5274 14.2938L16.3773 14.7506C15.4646 13.916 14.3772 13.2876 13.2033 12.916L12.5254 10.828C12.4553 10.6127 12.254 10.4666 12.0272 10.4666H9.24063C9.01335 10.4666 8.81256 10.6127 8.7424 10.828L8.06448 12.916C6.89104 13.2876 5.80272 13.916 4.89 14.7506L2.74032 14.2938C2.51832 14.2461 2.29104 14.3476 2.17808 14.5436L0.784396 16.9577C0.670956 17.1536 0.697036 17.4012 0.849276 17.5698L2.318 19.2009C2.05272 20.4086 2.05248 21.6621 2.318 22.8688L0.849276 24.5004C0.697036 24.6685 0.670956 24.9156 0.784396 25.1129L2.17808 27.5256C2.29104 27.7229 2.51832 27.824 2.74032 27.7763L4.89 27.32C5.80264 28.1536 6.89056 28.7829 8.06448 29.1545L8.7424 31.2416C8.81256 31.4578 9.01335 31.6039 9.24063 31.6039H12.0272C12.254 31.6039 12.4553 31.4578 12.5254 31.2416L13.2033 29.1545C14.3763 28.7829 15.4646 28.1544 16.3773 27.32L18.5274 27.7763C18.7494 27.824 18.9762 27.7229 19.0893 27.5256L20.483 25.1129C20.5968 24.9156 20.5708 24.6685 20.4185 24.5004L18.9498 22.8688C19.2147 21.6652 19.2144 20.4056 18.9498 19.2009L20.4185 17.5698C20.5708 17.4012 20.5969 17.1536 20.483 16.9577Z" fill="#000D22"/>
</svg>
