<svg width="51" height="41" viewBox="0 0 51 41" fill="none" xmlns="http://www.w3.org/2000/svg">
<path d="M12.1038 4.08064L12.1038 4.08063C13.0746 2.0682 15.1448 0.768311 17.379 0.768311C20.6086 0.768311 23.2358 3.39563 23.2358 6.62514V8.79341C23.72 9.66908 24.0587 10.6357 24.2194 11.6607H26.7808C26.9415 10.6357 27.2802 9.66918 27.7643 8.79361V6.62514C27.7643 3.39553 30.3915 0.768311 33.6211 0.768311C35.8553 0.768311 37.9256 2.06809 38.8963 4.08054L39.4484 5.2253C41.1191 6.08446 42.5114 7.46954 43.3522 9.213L49.3947 21.7401C49.3948 21.7403 49.3949 21.7404 49.395 21.7405C49.3968 21.7443 49.3983 21.7479 49.3995 21.7506C50.4946 23.582 51.125 25.7218 51.125 28.0063C51.125 34.7475 45.6409 40.2317 38.8995 40.2317C32.2844 40.2317 26.8803 34.9505 26.6805 28.3829H24.3196C24.1198 34.9505 18.7157 40.2317 12.1005 40.2317C5.35914 40.2317 -0.125 34.7475 -0.125 28.0063C-0.125 25.7218 0.505525 23.5819 1.60055 21.7506L12.1038 4.08064ZM12.1038 4.08064L11.5517 5.2253C9.88096 6.08455 8.48872 7.46964 7.64785 9.21301L6.60122 11.3827M12.1038 4.08064L6.60122 11.3828M16.412 18.4453C16.8495 18.6429 17.3652 18.4485 17.5631 18.0105L17.5631 18.0105C17.7609 17.5726 17.5662 17.0574 17.1284 16.8596L17.077 16.9735L17.1284 16.8596C15.5437 16.1438 13.8519 15.7808 12.1005 15.7808C9.65622 15.7808 7.37731 16.5023 5.46505 17.7429L6.78556 15.0052C6.78556 15.0052 6.78556 15.0052 6.78556 15.0052C6.99436 14.5724 6.81269 14.0524 6.38005 13.8436L6.37996 13.8436C5.9475 13.6353 5.42728 13.8164 5.21845 14.2492L5.21844 14.2492L1.60524 21.7401C1.60517 21.7403 1.6051 21.7404 1.60504 21.7406L16.4635 18.3314M16.412 18.4453L16.4635 18.3314M16.412 18.4453C16.4121 18.4453 16.4121 18.4453 16.4121 18.4453L16.4635 18.3314M16.412 18.4453C15.054 17.8318 13.6037 17.5208 12.1005 17.5208C6.31887 17.5208 1.61495 22.2247 1.61495 28.0063C1.61495 33.7879 6.31896 38.4917 12.1006 38.4917C17.8821 38.4917 22.5861 33.7878 22.5861 28.0062C22.5861 24.926 21.2387 22.0136 18.889 20.0155C18.5231 19.7042 18.4786 19.1551 18.79 18.7891M16.4635 18.3314C15.0892 17.7105 13.6213 17.3958 12.1005 17.3958C6.24983 17.3958 1.48995 22.1557 1.48995 28.0063C1.48995 33.8569 6.24993 38.6167 12.1006 38.6167C17.9512 38.6167 22.7111 33.8568 22.7111 28.0062C22.7111 24.8893 21.3476 21.9421 18.97 19.9202C18.6566 19.6537 18.6186 19.1835 18.8852 18.8701M18.79 18.7891C18.79 18.7891 18.79 18.7891 18.79 18.7891L18.8852 18.8701M18.79 18.7891C19.1011 18.4233 19.6502 18.3787 20.0162 18.6901M18.79 18.7891L18.8852 18.8701M18.8852 18.8701L20.0162 18.6901M20.0162 18.6901C20.0162 18.6901 20.0162 18.6901 20.0162 18.6901L19.9352 18.7853L20.0162 18.6901ZM6.60122 11.3828L6.7138 11.4371L6.60122 11.3827M6.60122 11.3828C6.60122 11.3828 6.60122 11.3827 6.60122 11.3827M6.60122 11.3828L6.60122 11.3827M22.7111 21.9341V22.1897C22.6702 22.1152 22.6285 22.0411 22.5861 21.9675V21.7208C22.6285 21.7915 22.6701 21.8626 22.7111 21.9341ZM41.7851 9.96885L45.5349 17.7427C43.6227 16.5022 41.3438 15.7807 38.8995 15.7807C34.4526 15.7807 30.5534 18.1675 28.4141 21.7264V13.0252C28.4141 9.14623 31.57 5.99036 35.4489 5.99036C38.1319 5.99036 40.6195 7.55237 41.7851 9.96885ZM26.6742 26.6429H24.326V13.4006H26.6742V26.6429ZM33.6211 2.50826C35.0255 2.50826 36.3373 3.24084 37.0867 4.40792C36.5519 4.30472 36.0039 4.25052 35.4489 4.25052C33.1576 4.25052 31.0688 5.13379 29.5046 6.57688C29.5304 4.32903 31.3673 2.50826 33.6211 2.50826ZM15.5512 4.25042C14.9962 4.25042 14.4482 4.30462 13.9134 4.40781C14.6629 3.24074 15.9747 2.50816 17.379 2.50816C19.6328 2.50816 21.4696 4.32894 21.4955 6.57678C19.9313 5.1337 17.8425 4.25042 15.5512 4.25042ZM38.8995 38.4918C33.118 38.4918 28.4141 33.7879 28.4141 28.0063C28.4141 22.2247 33.118 17.5208 38.8995 17.5208C44.6811 17.5208 49.3851 22.2247 49.3851 28.0063C49.3851 33.7879 44.6811 38.4918 38.8995 38.4918Z" fill="#7DC6E9" stroke="#7DC6E9" stroke-width="0.25"/>
</svg>
